{
.appVersion = "3260";
.formatVersion = 3;
DisplayStrings = (
"Ꞌ",
"'",
"ꞌ",
"Ǎ",
"Ậ",
"ậ",
"̣",
"ạ",
"Ǟ",
"ǟ",
"ɑ",
"Ɑ",
"Ḅ",
"ḅ",
"ṣ",
"Ṣ",
"µ",
"ª",
"º",
"Ω",
"∆",
"­",
"/caroncomb.alt"
);
customParameters = (
{
name = vendorID;
value = dmol;
},
{
name = panose;
value = (
0,
0,
0,
0,
0,
0,
0,
0,
0,
0
);
},
{
name = unicodeRanges;
value = (
0,
1,
2,
3,
5,
6,
7,
29,
31,
32,
33,
35,
38,
45,
62
);
},
{
name = fsType;
value = (
);
},
{
name = blueScale;
value = 0.0396;
},
{
name = glyphOrder;
value = (
.notdef,
A,
Aacute,
Abreve,
uni01CD,
Acircumflex,
uni0200,
Adieresis,
uni0226,
Agrave,
uni0202,
Amacron,
Aogonek,
Aring,
Aringacute,
Atilde,
AE,
AEacute,
uni01E2,
B,
uni1E02,
C,
Cacute,
Ccaron,
Ccedilla,
Ccircumflex,
Cdotaccent,
D,
uni01F1,
uni01C4,
Dcaron,
Dcroat,
uni1E0A,
Dtail,
uni01F2,
uni01C5,
Eth,
E,
Eacute,
Ebreve,
Ecaron,
uni0228,
Ecircumflex,
uni0204,
Edieresis,
Edotaccent,
Egrave,
uni0206,
Emacron,
Eogonek,
uni1EBC,
F,
uni1E1E,
G,
uni01F4,
Gbreve,
Gcaron,
Gcircumflex,
uni0122,
Gdotaccent,
H,
Hbar,
uni021E,
Hcircumflex,
I,
IJ,
Iacute,
Ibreve,
uni01CF,
Icircumflex,
uni0208,
Idieresis,
Idotaccent,
Igrave,
uni020A,
Imacron,
Iogonek,
Itilde,
J,
Jcircumflex,
K,
uni01E8,
uni0136,
L,
uni01C7,
Lacute,
Lcaron,
uni013B,
Ldot,
uni01C8,
Lslash,
M,
uni1E40,
N,
uni01CA,
Nacute,
Ncaron,
uni0145,
uni01F8,
uni01CB,
Ntilde,
Eng,
O,
Oacute,
Obreve,
uni01D1,
Ocircumflex,
uni020C,
Odieresis,
uni022E,
Ograve,
Ohungarumlaut,
uni020E,
Omacron,
uni01EA,
Oslash,
Oslashacute,
Otilde,
OE,
P,
uni1E56,
Thorn,
Q,
R,
Racute,
Rcaron,
uni0156,
uni0210,
uni0212,
S,
Sacute,
Scaron,
Scedilla,
Scircumflex,
uni0218,
uni1E60,
uni1E9E,
T,
Tbar,
Tcaron,
uni021A,
uni1E6A,
U,
Uacute,
Ubreve,
uni01D3,
Ucircumflex,
uni0214,
Udieresis,
Ugrave,
Uhungarumlaut,
uni0216,
Umacron,
Uogonek,
Uring,
Utilde,
V,
W,
Wacute,
Wcircumflex,
Wdieresis,
Wgrave,
X,
Y,
Yacute,
Ycircumflex,
Ydieresis,
Ygrave,
uni0232,
uni1EF8,
Z,
Zacute,
Zcaron,
Zdotaccent,
R.ss02,
a,
aacute,
abreve,
uni01CE,
acircumflex,
uni0201,
adieresis,

glyphs = (
{
glyphname = .notdef;
lastChange = "2024-09-29 22:21:23 +0000";
layers = (
{
layerId = m01;
shapes = (
{
closed = 1;
nodes = (
(192,-306,ls),
(192,-358,o),
(220,-386,o),
(272,-386,cs),
(1520,-386,ls),
(1572,-386,o),
(1600,-358,o),
(1600,-306,cs),
(1600,1558,ls),
(1600,1610,o),
(1572,1638,o),
(1520,1638,cs),
(272,1638,ls),
(220,1638,o),
(192,1610,o),
(192,1558,cs)
);
},
{
closed = 1;
nodes = (
(464,-226,ls),
(412,-226,o),
(384,-198,o),
(384,-146,cs),
(384,1398,ls),
(384,1450,o),
(412,1478,o),
(464,1478,cs),
(1328,1478,ls),
(1380,1478,o),
(1408,1450,o),
(1408,1398,cs),
(1408,-146,ls),
(1408,-198,o),
(1380,-226,o),
(1328,-226,cs)
);
}
);
width = 1792;
}
);
note = .notdef;
},
{
glyphname = A;
lastChange = "2024-09-29 22:40:02 +0000";
layers = (
{
anchors = (
{
name = bottom;
pos = (980,0);
},
{
name = ogonek;
pos = (1974,21);
},
{
name = top;
pos = (980,1536);
}
);
layerId = m01;
shapes = (
{
closed = 1;
nodes = (
(182,0,ls),
(226,0,o),
(256,17,o),
(277,56,cs),
(438,352,l),
(1654,352,l),
(1815,56,ls),
(1836,17,o),
(1866,0,o),
(1910,0,cs),
(1959,0,ls),
(2023,0,o),
(2046,40,o),
(2014,96,cs),
(1206,1481,ls),
(1184,1519,o),
(1155,1536,o),
(1111,1536,cs),
(981,1536,ls),
(937,1536,o),
(908,1519,o),
(886,1481,cs),
(78,96,ls),
(46,40,o),
(69,0,o),
(133,0,cs)
);
},
{
closed = 1;
nodes = (
(1046,1408,l),
(1558,512,l),
(534,512,l)
);
}
);
width = 2092;
}
);
note = A;
unicode = 65;
},
{
glyphname = Abreve;
lastChange = "2024-09-30 05:31:21 +0000";
layers = (
{
layerId = m01;
shapes = (
{
ref = A;
},
{
closed = 1;
nodes = (
(1260,1691,o),
(1395,1756,o),
(1424,1981,cs),
(1432,2045,o),
(1400,2081,o),
(1348,2081,cs),
(1348,2081,ls),
(1297,2081,o),
(1272,2053,o),
(1267,2000,cs),
(1259,1921,o),
(1239,1873,o),
(1206,1853,cs),
(1179,1837,o),
(1126,1829,o),
(1046,1829,cs),
(966,1829,o),
(914,1836,o),
(891,1850,cs),
(856,1872,o),
(834,1920,o),
(826,2000,cs),
(820,2053,o),
(795,2081,o),
(744,2081,cs),
(742,2081,ls),
(691,2081,o),
(660,2051,o),
(666,1997,cs),
(691,1759,o),
(827,1691,o),
(1046,1691,cs)
);
}
);
width = 2092;
}
);
unicode = 258;
},
{
glyphname = Acircumflex;
lastChange = "2024-09-30 05:31:15 +0000";
layers = (
{
layerId = m01;
shapes = (
{
ref = A;
},
{
closed = 1;
nodes = (
(692,1743,ls),
(735,1711,o),
(774,1720,o),
(803,1764,cs),
(1046,2142,l),
(1289,1764,ls),
(1318,1720,o),
(1357,1711,o),
(1400,1743,cs),
(1400,1743,ls),
(1441,1773,o),
(1447,1813,o),
(1419,1855,cs),
(1176,2218,ls),
(1152,2254,o),
(1123,2270,o),
(1080,2270,cs),
(1012,2270,ls),
(969,2270,o),
(940,2254,o),
(916,2218,cs),
(673,1855,ls),
(645,1813,o),
(652,1773,o),
(692,1743,cs)
);
}
);
width = 2092;
}
);
unicode = 194;
},
{
glyphname = Adieresis;
lastChange = "2024-09-30 05:31:28 +0000";
layers = (
{
layerId = m01;
shapes = (
{
ref = A;
},
{
closed = 1;
nodes = (
(1304,1808,ls),
(1304,1756,o),
(1332,1728,o),
(1384,1728,cs),
(1416,1728,ls),
(1468,1728,o),
(1496,1756,o),
(1496,1808,cs),
(1496,1840,ls),
(1496,1892,o),
(1468,1920,o),
(1416,1920,cs),
(1384,1920,ls),
(1332,1920,o),
(1304,1892,o),
(1304,1840,cs)
);
},
{
closed = 1;
nodes = (
(596,1808,ls),
(596,1756,o),
(624,1728,o),
(676,1728,cs),
(708,1728,ls),
(760,1728,o),
(788,1756,o),
(788,1808,cs),
(788,1840,ls),
(788,1892,o),
(760,1920,o),
(708,1920,cs),
(676,1920,ls),
(624,1920,o),
(596,1892,o),
(596,1840,cs)
);
}
);
width = 2092;
}
);
unicode = 196;
},
{
glyphname = Amacron;
lastChange = "2024-09-30 05:31:33 +0000";
layers = (
{
layerId = m01;
shapes = (
{
ref = A;
},
{
closed = 1;
nodes = (
(662,1769,ls),
(662,1717,o),
(690,1689,o),
(742,1689,cs),
(1350,1689,ls),
(1402,1689,o),
(1430,1717,o),
(1430,1769,cs),
(1430,1769,ls),
(1430,1821,o),
(1402,1849,o),
(1350,1849,cs),
(742,1849,ls),
(690,1849,o),
(662,1821,o),
(662,1769,cs)
);
}
);
width = 2092;
}
);
unicode = 256;
},
{
glyphname = Aring;
lastChange = "2024-09-30 00:10:33 +0000";
layers = (
{
layerId = m01;
shapes = (
{
ref = A;
},
{
closed = 1;
nodes = (
(1265,1724,o),
(1408,1839,o),
(1408,2044,cs),
(1408,2241,o),
(1277,2364,o),
(1056,2364,cs),
(847,2364,o),
(704,2249,o),
(704,2044,cs),
(704,1847,o),
(835,1724,o),
(1056,1724,cs)
);
},
{
closed = 1;
nodes = (
(922,1852,o),
(864,1916,o),
(864,2044,cs),
(864,2101,o),
(873,2142,o),
(892,2166,cs),
(928,2212,o),
(983,2236,o),
(1056,2236,cs),
(1190,2236,o),
(1248,2172,o),
(1248,2044,cs),
(1248,1987,o),
(1239,1946,o),
(1220,1922,cs),
(1184,1876,o),
(1129,1852,o),
(1056,1852,cs)
);
}
);
width = 2092;
}
);
unicode = 197;
},
{
glyphname = AE;
lastChange = "2024-09-30 00:05:29 +0000";
layers = (
{
anchors = (
{
name = ogonek;
pos = (3640,21);
}
);
layerId = m01;
shapes = (
{
closed = 1;
nodes = (
(1966,0,ls),
(2018,0,o),
(2046,28,o),
(2046,80,cs),
(2046,132,o),
(2018,160,o),
(1966,160,cs),
(1238,160,l),
(1238,704,l),
(1883,704,ls),
(1935,704,o),
(1963,732,o),
(1963,784,cs),
(1963,836,o),
(1935,864,o),
(1883,864,cs),
(1238,864,l),
(1238,1376,l),
(1938,1376,ls),
(1990,1376,o),
(2018,1404,o),
(2018,1456,cs),
(2018,1508,o),
(1990,1536,o),
(1938,1536,cs),
(1142,1536,l),
(981,1536,ls),
(937,1536,o),
(908,1519,o),
(886,1481,cs),
(78,96,ls),
(46,40,o),
(69,0,o),
(133,0,cs),
(182,0,ls),
(226,0,o),
(256,17,o),
(277,56,cs),
(438,352,l),
(1046,352,l),
(1046,0,l),
(1142,0,l)
);
},
{
closed = 1;
nodes = (
(1046,1408,l),
(1046,512,l),
(534,512,l)
);
},
{
closed = 1;
nodes = (
(1142,1536,l),
(1142,0,l)
);
}
);
width = 2110;
}
);
unicode = 198;
},
{
glyphname = B;
lastChange = "2024-09-29 22:31:34 +0000";
layers = (
{
anchors = (
{
name = bottom;
pos = (1056,0);
},
{
name = top;
pos = (1086,1536);
}
);
layerId = m01;
shapes = (
{
closed = 1;
nodes = (
(192,80,ls),
(192,28,o),
(220,0,o),
(272,0,cs),
(1331,0,ls),
(1836,0,o),
(1984,82,o),
(1984,448,cs),
(1984,658,o),
(1891,809,o),
(1664,832,c),
(1837,844,o),
(1920,973,o),
(1920,1155,cs),
(1920,1456,o),
(1764,1536,o),
(1416,1536,cs),
(272,1536,ls),
(220,1536,o),
(192,1508,o),
(192,1456,cs)
);
},
{
closed = 1;
nodes = (
(384,896,l),
(384,1376,l),
(1416,1376,ls),
(1654,1376,o),
(1728,1357,o),
(1728,1155,cs),
(1728,897,o),
(1588,896,o),
(1279,896,cs)
);
},
{
closed = 1;
nodes = (
(384,160,l),
(384,736,l),
(1279,736,ls),
(1564,736,o),
(1792,730,o),
(1792,448,cs),
(1792,174,o),
(1696,160,o),
(1331,160,cs)
);
}
);
width = 2112;
}
);
note = B;
unicode = 66;
},
{
glyphname = C;
lastChange = "2024-09-29 22:31:50 +0000";
layers = (
{
anchors = (
{
name = bottom;
pos = (1042,0);
},
{
name = top;
pos = (1063,1536);
}
);
layerId = m01;
shapes = (
{
closed = 1;
nodes = (
(128,748,ls),
(128,89,o),
(271,-32,o),
(871,-32,cs),
(1274,-32,ls),
(1790,-32,o),
(1990,22,o),
(2012,436,cs),
(2015,490,o),
(1985,519,o),
(1933,519,cs),
(1901,519,ls),
(1850,519,o),
(1823,491,o),
(1820,438,cs),
(1802,134,o),
(1670,134,o),
(1274,134,cs),
(871,134,ls),
(394,134,o),
(320,182,o),
(320,748,cs),
(320,788,ls),
(320,1374,o),
(394,1402,o),
(871,1402,cs),
(1274,1402,ls),
(1670,1402,o),
(1802,1394,o),
(1820,1088,cs),
(1823,1035,o),
(1850,1007,o),
(1901,1007,cs),
(1933,1007,ls),
(1985,1007,o),
(2015,1036,o),
(2012,1090,cs),
(1990,1505,o),
(1790,1568,o),
(1274,1568,cs),
(871,1568,ls),
(271,1568,o),
(128,1467,o),
(128,788,cs)
);
}
);
width = 2145;
}
);
note = C;
unicode = 67;
},
{
glyphname = D;
lastChange = "2024-09-29 22:31:58 +0000";
layers = (
{
anchors = (
{
name = bottom;
pos = (1104,0);
},
{
name = top;
pos = (1116,1536);
}
);
layerId = m01;
shapes = (
{
closed = 1;
nodes = (
(196,80,ls),
(196,28,o),
(224,0,o),
(276,0,cs),
(1336,0,ls),
(1936,0,o),
(2079,121,o),
(2079,748,cs),
(2079,788,ls),
(2079,1435,o),
(1936,1536,o),
(1336,1536,cs),
(276,1536,ls),
(224,1536,o),
(196,1508,o),
(196,1456,cs)
);
},
{
closed = 1;
nodes = (
(388,166,l),
(388,1370,l),
(1336,1370,ls),
(1813,1370,o),
(1887,1342,o),
(1887,788,cs),
(1887,748,ls),
(1887,214,o),
(1813,166,o),
(1336,166,cs)
);
}
);
width = 2207;
}
);
note = D;
unicode = 68;
},
{
glyphname = Eth;
lastChange = "2024-09-29 23:33:12 +0000";
layers = (
{
background = {
shapes = (
{
closed = 1;
nodes = (
(0,864,l),
(128,864,l),
(128,1536,l),
(1279,1536,ls),
(1506,1536,o),
(1671,1508,o),
(1774,1453,cs),
(1826,1425,o),
(1868,1390,o),
(1896,1348,cs),
(1981,1222,o),
(1984,1031,o),
(1984,820,cs),
(1984,768,ls),
(1984,681,o),
(1982,602,o),
(1980,530,cs),
(1973,313,o),
(1920,161,o),
(1774,83,cs),
(1671,28,o),
(1506,0,o),
(1279,0,cs),
(128,0,l),
(128,704,l),
(0,704,l)
);
},
{
closed = 1;
nodes = (
(1279,160,ls),
(1456,160,o),
(1576,172,o),
(1639,196,cs),
(1722,227,o),
(1754,279,o),
(1775,378,cs),
(1786,431,o),
(1792,561,o),
(1792,768,cs),
(1792,975,o),
(1785,1109,o),
(1772,1170,cs),
(1751,1270,o),
(1714,1313,o),
(1620,1348,cs),
(1570,1367,o),
(1456,1376,o),
(1279,1376,cs),
(320,1376,l),
(320,864,l),
(768,864,l),
(768,704,l),
(320,704,l),
(320,160,l)
);
}
);
};
layerId = m01;
shapes = (
{
closed = 1;
nodes = (
(1279,0,ls),
(1506,0,o),
(1671,28,o),
(1774,83,cs),
(1920,161,o),
(1973,313,o),
(1980,530,cs),
(1982,602,o),
(1984,681,o),
(1984,768,cs),
(1984,820,ls),
(1984,1031,o),
(1981,1222,o),
(1896,1348,cs),
(1868,1390,o),
(1826,1425,o),
(1774,1453,cs),
(1671,1508,o),
(1506,1536,o),
(1279,1536,cs),
(208,1536,ls),
(156,1536,o),
(128,1508,o),
(128,1456,cs),
(128,864,l),
(80,864,ls),
(28,864,o),
(0,836,o),
(0,784,cs),
(0,732,o),
(28,704,o),
(80,704,cs),
(128,704,l),
(128,80,ls),
(128,28,o),
(156,0,o),
(208,0,cs)
);
},
{
closed = 1;
nodes = (
(320,704,l),
(688,704,ls),
(740,704,o),
(768,732,o),
(768,784,cs),
(768,836,o),
(740,864,o),
(688,864,cs),
(320,864,l),
(320,1376,l),
(1279,1376,ls),
(1456,1376,o),
(1570,1367,o),
(1620,1348,cs),
(1714,1313,o),
(1751,1270,o),
(1772,1170,cs),
(1785,1109,o),
(1792,975,o),
(1792,768,cs),
(1792,561,o),
(1786,431,o),
(1775,378,cs),
(1754,279,o),
(1722,227,o),
(1639,196,cs),
(1576,172,o),
(1456,160,o),
(1279,160,cs),
(320,160,l)
);
}
);
width = 2112;
}
);
unicode = 208;
},
{
glyphname = E;
lastChange = "2024-09-29 22:32:18 +0000";
layers = (
{
anchors = (
{
name = bottom;
pos = (896,0);
},
{
name = ogonek;
pos = (1714,21);
},
{
name = top;
pos = (956,1536);
}
);
layerId = m01;
shapes = (
{
closed = 1;
nodes = (
(192,80,ls),
(192,28,o),
(220,0,o),
(272,0,cs),
(1648,0,ls),
(1700,0,o),
(1728,28,o),
(1728,80,cs),
(1728,80,ls),
(1728,132,o),
(1700,160,o),
(1648,160,cs),
(384,160,l),
(384,704,l),
(1565,704,ls),
(1617,704,o),
(1645,732,o),
(1645,784,cs),
(1645,784,ls),
(1645,836,o),
(1617,864,o),
(1565,864,cs),
(384,864,l),
(384,1376,l),
(1620,1376,ls),
(1672,1376,o),
(1700,1404,o),
(1700,1456,cs),
(1700,1456,ls),
(1700,1508,o),
(1672,1536,o),
(1620,1536,cs),
(272,1536,ls),
(220,1536,o),
(192,1508,o),
(192,1456,cs)
);
}
);
width = 1792;
}
);
note = E;
unicode = 69;
},
{
glyphname = F;
lastChange = "2024-09-29 22:32:27 +0000";
layers = (
{
anchors = (
{
name = bottom;
pos = (864,0);
},
{
name = top;
pos = (864,1536);
}
);
layerId = m01;
shapes = (
{
closed = 1;
nodes = (
(192,80,ls),
(192,28,o),
(220,0,o),
(272,0,cs),
(384,0,l),
(384,704,l),
(1503,704,ls),
(1555,704,o),
(1583,732,o),
(1583,784,cs),
(1583,784,ls),
(1583,836,o),
(1555,864,o),
(1503,864,cs),
(384,864,l),
(384,1376,l),
(1560,1376,ls),
(1612,1376,o),
(1640,1404,o),
(1640,1456,cs),
(1640,1456,ls),
(1640,1508,o),
(1612,1536,o),
(1560,1536,cs),
(272,1536,ls),
(220,1536,o),
(192,1508,o),
(192,1456,cs)
);
}
);
width = 1728;
}
);
note = F;
unicode = 70;
},
{
glyphname = G;
lastChange = "2024-09-29 22:32:45 +0000";
layers = (
{
anchors = (
{
name = bottom;
pos = (1089,0);
},
{
name = top;
pos = (1089,1536);
}
);
layerId = m01;
shapes = (
{
closed = 1;
nodes = (
(128,748,ls),
(128,89,o),
(271,-32,o),
(871,-32,cs),
(1314,-32,ls),
(1862,-32,o),
(2014,69,o),
(2014,589,cs),
(2014,728,ls),
(2014,780,o),
(1986,808,o),
(1934,808,cs),
(1167,808,ls),
(1115,808,o),
(1087,780,o),
(1087,728,cs),
(1087,728,ls),
(1087,676,o),
(1115,648,o),
(1167,648,cs),
(1822,648,l),
(1822,589,ls),
(1822,173,o),
(1755,134,o),
(1314,134,cs),
(871,134,ls),
(394,134,o),
(320,182,o),
(320,748,cs),
(320,788,ls),
(320,1374,o),
(394,1402,o),
(871,1402,cs),
(1247,1402,ls),
(1681,1402,o),
(1787,1396,o),
(1803,1157,cs),
(1806,1105,o),
(1833,1077,o),
(1884,1077,cs),
(1916,1077,ls),
(1968,1077,o),
(1998,1106,o),
(1995,1159,cs),
(1978,1508,o),
(1832,1568,o),
(1247,1568,cs),
(871,1568,ls),
(271,1568,o),
(128,1467,o),
(128,788,cs)
);
}
);
width = 2177;
}
);
note = G;
unicode = 71;
},
{
glyphname = H;
lastChange = "2024-09-29 22:32:55 +0000";
layers = (
{
anchors = (
{
name = bottom;
pos = (1092,0);
},
{
name = top;
pos = (1092,1536);
}
);
layerId = m01;
shapes = (
{
closed = 1;
nodes = (
(196,80,ls),
(196,28,o),
(224,0,o),
(276,0,cs),
(308,0,ls),
(360,0,o),
(388,28,o),
(388,80,cs),
(388,704,l),
(1796,704,l),
(1796,80,ls),
(1796,28,o),
(1824,0,o),
(1876,0,cs),
(1908,0,ls),
(1960,0,o),
(1988,28,o),
(1988,80,cs),
(1988,1456,ls),
(1988,1508,o),
(1960,1536,o),
(1908,1536,cs),
(1876,1536,ls),
(1824,1536,o),
(1796,1508,o),
(1796,1456,cs),
(1796,864,l),
(388,864,l),
(388,1456,ls),
(388,1508,o),
(360,1536,o),
(308,1536,cs),
(276,1536,ls),
(224,1536,o),
(196,1508,o),
(196,1456,cs)
);
}
);
width = 2184;
}
);
note = H;
unicode = 72;
},
{
glyphname = Hbar;
lastChange = "2024-09-30 05:16:33 +0000";
layers = (
{
layerId = m01;
shapes = (
{
ref = H;
},
{
closed = 1;
nodes = (
(124,1178,o),
(152,1150,o),
(204,1150,cs),
(1990,1150,ls),
(2042,1150,o),
(2070,1178,o),
(2070,1230,cs),
(2070,1282,o),
(2042,1310,o),
(1990,1310,cs),
(204,1310,ls),
(152,1310,o),
(124,1282,o),
(124,1230,cs)
);
}
);
width = 2184;
}
);
unicode = 294;
},
{
glyphname = I;
lastChange = "2024-09-29 22:36:03 +0000";
layers = (
{
anchors = (
{
name = bottom;
pos = (288,0);
},
{
name = ogonek;
pos = (377,20);
},
{
name = top;
pos = (288,1536);
}
);
layerId = m01;
shapes = (
{
closed = 1;
nodes = (
(192,80,ls),
(192,28,o),
(220,0,o),
(272,0,cs),
(304,0,ls),
(356,0,o),
(384,28,o),
(384,80,cs),
(384,1456,ls),
(384,1508,o),
(356,1536,o),
(304,1536,cs),
(272,1536,ls),
(220,1536,o),
(192,1508,o),
(192,1456,cs)
);
}
);
width = 576;
}
);
note = I;
unicode = 73;
},
{
glyphname = J;
lastChange = "2024-09-29 22:36:14 +0000";
layers = (
{
anchors = (
{
name = bottom;
pos = (858,0);
},
{
name = top;
pos = (1441,1536);
}
);
layerId = m01;
shapes = (
{
closed = 1;
nodes = (
(1024,0,ls),
(1214,0,o),
(1347,35,o),
(1424,104,cs),
(1499,171,o),
(1536,286,o),
(1536,448,cs),
(1536,1456,ls),
(1536,1508,o),
(1508,1536,o),
(1456,1536,cs),
(1424,1536,ls),
(1372,1536,o),
(1344,1508,o),
(1344,1456,cs),
(1344,448,ls),
(1344,223,o),
(1255,156,o),
(1024,156,cs),
(576,156,ls),
(483,156,o),
(417,163,o),
(376,214,cs),
(339,260,o),
(320,359,o),
(320,512,cs),
(320,553,o),
(292,576,o),
(240,576,cs),
(208,576,ls),
(156,576,o),
(128,553,o),
(128,512,cs),
(128,416,o),
(133,335,o),
(144,270,cs),
(179,56,o),
(321,0,o),
(576,0,cs)
);
}
);
width = 1715;
}
);
note = J;
unicode = 74;
},
{
glyphname = K;
lastChange = "2024-09-29 22:36:55 +0000";
layers = (
{
anchors = (
{
name = bottom;
pos = (1008,0);
},
{
name = top;
pos = (1008,1536);
}
);
layerId = m01;
shapes = (
{
closed = 1;
nodes = (
(192,80,ls),
(192,28,o),
(220,0,o),
(272,0,cs),
(304,0,ls),
(356,0,o),
(384,28,o),
(384,80,cs),
(384,704,l),
(640,704,l),
(1619,31,ls),
(1651,9,o),
(1679,0,o),
(1718,0,cs),
(1808,0,ls),
(1873,0,o),
(1876,53,o),
(1812,98,cs),
(832,784,l),
(1779,1438,ls),
(1842,1482,o),
(1825,1536,o),
(1748,1536,cs),
(1686,1536,ls),
(1647,1536,o),
(1619,1528,o),
(1587,1506,cs),
(639,864,l),
(384,864,l),
(384,1456,ls),
(384,1508,o),
(356,1536,o),
(304,1536,cs),
(272,1536,ls),
(220,1536,o),
(192,1508,o),
(192,1456,cs)
);
}
);
width = 1922;
}
);
note = K;
unicode = 75;
},
{
glyphname = L;
lastChange = "2024-09-29 22:37:34 +0000";
layers = (
{
anchors = (
{
name = bottom;
pos = (832,0);
},
{
name = top;
pos = (832,1536);
},
{
name = "topright@ascender";
pos = (748,1638);
}
);
layerId = m01;
shapes = (
{
closed = 1;
nodes = (
(192,80,ls),
(192,28,o),
(220,0,o),
(272,0,cs),
(1520,0,ls),
(1572,0,o),
(1600,28,o),
(1600,80,cs),
(1600,80,ls),
(1600,132,o),
(1572,160,o),
(1520,160,cs),
(384,160,l),
(384,1456,ls),
(384,1508,o),
(356,1536,o),
(304,1536,cs),
(272,1536,ls),
(220,1536,o),
(192,1508,o),
(192,1456,cs)
);
}
);
width = 1664;
}
);
note = L;
unicode = 76;
},
{
glyphname = Lslash;
lastChange = "2024-09-29 23:35:53 +0000";
layers = (
{
background = {
shapes = (
{
closed = 1;
nodes = (
(64,928,l),
(768,1088,l),
(768,928,l),
(64,768,l)
);
},
{
closed = 1;
nodes = (
(192,0,l),
(192,1536,l),
(384,1536,l),
(384,160,l),
(1600,160,l),
(1600,0,l)
);
}
);
};
layerId = m01;
shapes = (
{
closed = 1;
nodes = (
(1520,0,ls),
(1572,0,o),
(1600,28,o),
(1600,80,cs),
(1600,132,o),
(1572,160,o),
(1520,160,cs),
(384,160,l),
(384,1456,ls),
(384,1508,o),
(356,1536,o),
(304,1536,cs),
(272,1536,ls),
(220,1536,o),
(192,1508,o),
(192,1456,cs),
(192,80,ls),
(192,28,o),
(220,0,o),
(272,0,cs)
);
},
{
closed = 1;
nodes = (
(698,912,ls),
(745,923,o),
(768,952,o),
(768,1000,cs),
(768,1008,ls),
(768,1058,o),
(735,1081,o),
(680,1068,cs),
(134,944,ls),
(87,933,o),
(64,904,o),
(64,856,cs),
(64,848,ls),
(64,798,o),
(97,776,o),
(152,788,cs)
);
}
);
width = 1664;
}
);
unicode = 321;
},
{
glyphname = M;
lastChange = "2024-09-29 22:38:14 +0000";
layers = (
{
anchors = (
{
name = bottom;
pos = (1404,0);
},
{
name = top;
pos = (1404,1536);
}
);
layerId = m01;
shapes = (
{
closed = 1;
nodes = (
(196,80,ls),
(196,28,o),
(224,0,o),
(276,0,cs),
(308,0,ls),
(360,0,o),
(388,28,o),
(388,80,cs),
(388,1362,l),
(1293,150,ls),
(1318,116,o),
(1348,101,o),
(1390,101,cs),
(1442,101,ls),
(1484,101,o),
(1514,116,o),
(1539,150,cs),
(2420,1362,l),
(2420,80,ls),
(2420,28,o),
(2448,0,o),
(2500,0,cs),
(2532,0,ls),
(2584,0,o),
(2612,28,o),
(2612,80,cs),
(2612,1456,ls),
(2612,1508,o),
(2584,1536,o),
(2532,1536,cs),
(2387,1536,ls),
(2345,1536,o),
(2315,1521,o),
(2290,1487,cs),
(1411,283,l),
(518,1487,ls),
(493,1521,o),
(463,1536,o),
(421,1536,cs),
(276,1536,ls),
(224,1536,o),
(196,1508,o),
(196,1456,cs)
);
}
);
width = 2808;
}
);
note = M;
unicode = 77;
},
{
glyphname = N;
lastChange = "2024-09-29 22:38:26 +0000";
layers = (
{
anchors = (
{
name = bottom;
pos = (1161,0);
},
{
name = top;
pos = (1161,1536);
}
);
layerId = m01;
shapes = (
{
closed = 1;
nodes = (
(192,80,ls),
(192,28,o),
(220,0,o),
(272,0,cs),
(304,0,ls),
(356,0,o),
(384,28,o),
(384,80,cs),
(384,1310,l),
(386,1310,l),
(1886,36,ls),
(1916,10,o),
(1945,0,o),
(1985,0,cs),
(2049,0,ls),
(2101,0,o),
(2129,28,o),
(2129,80,cs),
(2129,1456,ls),
(2129,1508,o),
(2101,1536,o),
(2049,1536,cs),
(2017,1536,ls),
(1965,1536,o),
(1937,1508,o),
(1937,1456,cs),
(1937,237,l),
(1935,237,l),
(435,1500,ls),
(405,1526,o),
(376,1536,o),
(336,1536,cs),
(272,1536,ls),
(220,1536,o),
(192,1508,o),
(192,1456,cs)
);
}
);
width = 2321;
}
);
note = N;
unicode = 78;
},
{
glyphname = O;
layers = (
{
anchors = (
{
name = bottom;
pos = (836,0);
},
{
name = ogonek;
pos = (1204,20);
},
{
name = top;
pos = (1073,1536);
},
{
name = "topright@ascender";
pos = (1888,1536);
}
);
layerId = m01;
shapes = (
{
closed = 1;
nodes = (
(1274,-32,ls),
(1874,-32,o),
(2017,89,o),
(2017,748,cs),
(2017,788,ls),
(2017,1467,o),
(1874,1568,o),
(1274,1568,cs),
(871,1568,ls),
(271,1568,o),
(128,1467,o),
(128,788,cs),
(128,748,ls),
(128,89,o),
(271,-32,o),
(871,-32,cs)
);
},
{
closed = 1;
nodes = (
(871,134,ls),
(394,134,o),
(320,182,o),
(320,748,cs),
(320,788,ls),
(320,1374,o),
(394,1402,o),
(871,1402,cs),
(1274,1402,ls),
(1751,1402,o),
(1825,1374,o),
(1825,788,cs),
(1825,748,ls),
(1825,182,o),
(1751,134,o),
(1274,134,cs)
);
}
);
width = 2145;
}
);
note = O;
unicode = 79;
},
{
glyphname = OE;
lastChange = "2024-09-30 05:04:31 +0000";
layers = (
{
anchors = (
{
name = ogonek;
pos = (3633,21);
},
{
name = "topright@ascender";
pos = (1385,1344);
}
);
layerId = m01;
shapes = (
{
closed = 1;
nodes = (
(1959,0,ls),
(2011,0,o),
(2039,28,o),
(2039,80,cs),
(2039,132,o),
(2011,160,o),
(1959,160,cs),
(1231,160,l),
(1231,704,l),
(1876,704,ls),
(1928,704,o),
(1956,732,o),
(1956,784,cs),
(1956,836,o),
(1928,864,o),
(1876,864,cs),
(1231,864,l),
(1231,1376,l),
(1931,1376,ls),
(1983,1376,o),
(2011,1404,o),
(2011,1456,cs),
(2011,1508,o),
(1983,1536,o),
(1931,1536,cs),
(1039,1536,l),
(1039,0,l)
);
},
{
closed = 1;
nodes = (
(1061,0,o),
(1230,95,o),
(1230,774,cs),
(1230,1453,o),
(1061,1536,o),
(664,1536,cs),
(270,1536,o),
(128,1453,o),
(128,774,cs),
(128,95,o),
(267,0,o),
(664,0,cs)
);
},
{
closed = 1;
nodes = (
(1038,274,o),
(1021,160,o),
(664,160,cs),
(337,160,o),
(320,274,o),
(320,774,cs),
(320,1274,o),
(337,1376,o),
(664,1376,cs),
(1021,1376,o),
(1038,1274,o),
(1038,774,cs)
);
}
);
width = 2167;
}
);
unicode = 338;
},
{
glyphname = P;
lastChange = "2024-09-29 22:38:45 +0000";
layers = (
{
anchors = (
{
name = bottom;
pos = (996,0);
},
{
name = top;
pos = (996,1536);
}
);
layerId = m01;
shapes = (
{
closed = 1;
nodes = (
(196,80,ls),
(196,28,o),
(224,0,o),
(276,0,cs),
(308,0,ls),
(360,0,o),
(388,28,o),
(388,80,cs),
(388,592,l),
(1218,592,ls),
(1818,592,o),
(1916,713,o),
(1916,1044,cs),
(1916,1084,ls),
(1916,1431,o),
(1824,1536,o),
(1224,1536,cs),
(276,1536,ls),
(224,1536,o),
(196,1508,o),
(196,1456,cs)
);
},
{
closed = 1;
nodes = (
(1724,1044,ls),
(1724,806,o),
(1664,758,o),
(1187,758,cs),
(388,758,l),
(388,1370,l),
(1187,1370,ls),
(1664,1370,o),
(1724,1338,o),
(1724,1084,cs)
);
}
);
width = 1991;
}
);
note = P;
unicode = 80;
},
{
glyphname = Thorn;
lastChange = "2024-09-29 22:38:53 +0000";
layers = (
{
anchors = (
{
name = bottom;
pos = (960,0);
},
{
name = top;
pos = (960,1536);
}
);
layerId = m01;
shapes = (
{
closed = 1;
nodes = (
(128,80,ls),
(128,28,o),
(156,0,o),
(208,0,cs),
(240,0,ls),
(292,0,o),
(320,28,o),
(320,80,cs),
(320,416,l),
(1151,416,ls),
(1476,416,o),
(1682,456,o),
(1768,538,cs),
(1820,587,o),
(1847,659,o),
(1852,752,cs),
(1854,796,o),
(1856,843,o),
(1856,894,cs),
(1856,1040,o),
(1854,1157,o),
(1784,1232,cs),
(1761,1257,o),
(1729,1277,o),
(1686,1294,cs),
(1601,1327,o),
(1466,1344,o),
(1282,1344,cs),
(320,1344,l),
(320,1456,ls),
(320,1508,o),
(292,1536,o),
(240,1536,cs),
(208,1536,ls),
(156,1536,o),
(128,1508,o),
(128,1456,cs)
);
},
{
closed = 1;
nodes = (
(320,576,l),
(320,1184,l),
(1151,1184,ls),
(1331,1184,o),
(1446,1179,o),
(1495,1170,cs),
(1636,1144,o),
(1664,1106,o),
(1664,935,cs),
(1664,862,o),
(1664,810,o),
(1662,776,cs),
(1656,664,o),
(1610,618,o),
(1511,597,cs),
(1445,583,o),
(1325,576,o),
(1151,576,cs)
);
}
);
width = 1920;
}
);
note = Thorn;
unicode = 222;
},
{
glyphname = Q;
lastChange = "2024-09-29 22:39:03 +0000";
layers = (
{
anchors = (
{
name = bottom;
pos = (836,0);
},
{
name = ogonek;
pos = (1204,20);
},
{
name = top;
pos = (1073,1536);
},
{
name = "topright@ascender";
pos = (1888,1536);
}
);
layerId = m01;
shapes = (
{
closed = 1;
nodes = (
(1274,-32,ls),
(1480,-32,o),
(1631,-18,o),
(1742,27,c),
(1986,-163,ls),
(2026,-194,o),
(2065,-191,o),
(2097,-153,cs),
(2097,-153,ls),
(2128,-114,o),
(2123,-76,o),
(2081,-43,cs),
(1877,117,l),
(1983,231,o),
(2017,425,o),
(2017,748,cs),
(2017,788,ls),
(2017,1467,o),
(1874,1568,o),
(1274,1568,cs),
(871,1568,ls),
(271,1568,o),
(128,1467,o),
(128,788,cs),
(128,748,ls),
(128,89,o),
(271,-32,o),
(871,-32,cs)
);
},
{
closed = 1;
nodes = (
(871,134,ls),
(394,134,o),
(320,182,o),
(320,748,cs),
(320,788,ls),
(320,1374,o),
(394,1402,o),
(871,1402,cs),
(1274,1402,ls),
(1751,1402,o),
(1825,1374,o),
(1825,788,cs),
(1825,748,ls),
(1825,468,o),
(1807,315,o),
(1731,231,c),
(1266,595,ls),
(1226,627,o),
(1187,623,o),
(1156,585,cs),
(1156,585,ls),
(1125,546,o),
(1129,508,o),
(1171,475,cs),
(1581,154,l),
(1504,138,o),
(1404,134,o),
(1274,134,cs)
);
}
);
width = 2145;
}
);
note = Q;
unicode = 81;
},
{
glyphname = R;
lastChange = "2024-09-29 22:39:14 +0000";
layers = (
{
anchors = (
{
name = bottom;
pos = (1044,0);
},
{
name = top;
pos = (1004,1536);
}
);
layerId = m01;
shapes = (
{
closed = 1;
nodes = (
(276,1536,ls),
(224,1536,o),
(196,1508,o),
(196,1456,cs),
(196,80,ls),
(196,28,o),
(224,0,o),
(276,0,cs),
(308,0,ls),
(360,0,o),
(388,28,o),
(388,80,cs),
(388,621,l),
(1267,621,ls),
(1297,621,o),
(1326,621,o),
(1353,622,c),
(1650,57,ls),
(1671,17,o),
(1701,0,o),
(1745,0,cs),
(1776,0,ls),
(1832,0,o),
(1851,40,o),
(1822,95,cs),
(1538,636,l),
(1855,680,o),
(1916,817,o),
(1916,1058,cs),
(1916,1098,ls),
(1916,1445,o),
(1824,1536,o),
(1224,1536,cs)
);
},
{
closed = 1;
nodes = (
(388,787,l),
(388,1370,l),
(1187,1370,ls),
(1664,1370,o),
(1724,1352,o),
(1724,1098,cs),
(1724,1058,ls),
(1724,835,o),
(1694,787,o),
(1237,787,cs)
);
}
);
width = 2087;
}
);
note = R;
unicode = 82;
},
{
glyphname = S;
lastChange = "2024-09-29 22:40:23 +0000";
layers = (
{
anchors = (
{
name = bottom;
pos = (1071,0);
},
{
name = top;
pos = (1071,1536);
}
);
layerId = m01;
shapes = (
{
closed = 1;
nodes = (
(1827,178,o),
(1788,134,o),
(1311,134,cs),
(853,134,ls),
(458,134,o),
(343,133,o),
(327,428,cs),
(324,481,o),
(297,509,o),
(246,509,cs),
(214,509,ls),
(162,509,o),
(132,480,o),
(135,426,cs),
(155,22,o),
(338,-32,o),
(853,-32,cs),
(1321,-32,ls),
(1921,-32,o),
(2019,85,o),
(2019,444,cs),
(2019,774,o),
(1952,865,o),
(1392,873,cs),
(796,881,ls),
(359,887,o),
(325,916,o),
(325,1132,cs),
(325,1388,o),
(389,1402,o),
(866,1402,cs),
(1284,1402,ls),
(1644,1402,o),
(1775,1428,o),
(1794,1158,cs),
(1798,1105,o),
(1825,1077,o),
(1876,1077,cs),
(1908,1077,ls),
(1960,1077,o),
(1990,1106,o),
(1987,1160,cs),
(1967,1541,o),
(1793,1568,o),
(1284,1568,cs),
(856,1568,ls),
(256,1568,o),
(133,1481,o),
(133,1132,cs),
(133,813,o),
(210,718,o),
(760,710,cs),
(1316,702,ls),
(1793,695,o),
(1827,681,o),
(1827,444,cs)
);
}
);
width = 2142;
}
);
note = S;
unicode = 83;
},
{
glyphname = T;
lastChange = "2024-09-29 22:40:34 +0000";
layers = (
{
anchors = (
{
name = bottom;
pos = (958,0);
},
{
name = top;
pos = (958,1536);
}
);
layerId = m01;
shapes = (
{
closed = 1;
nodes = (
(862,80,ls),
(862,28,o),
(890,0,o),
(942,0,cs),
(974,0,ls),
(1026,0,o),
(1054,28,o),
(1054,80,cs),
(1054,1376,l),
(1742,1376,ls),
(1794,1376,o),
(1822,1404,o),
(1822,1456,cs),
(1822,1456,ls),
(1822,1508,o),
(1794,1536,o),
(1742,1536,cs),
(174,1536,ls),
(122,1536,o),
(94,1508,o),
(94,1456,cs),
(94,1456,ls),
(94,1404,o),
(122,1376,o),
(174,1376,cs),
(862,1376,l)
);
}
);
width = 1916;
}
);
note = T;
unicode = 84;
},
{
glyphname = U;
lastChange = "2024-09-29 22:40:41 +0000";
layers = (
{
anchors = (
{
name = bottom;
pos = (1060,0);
},
{
name = ogonek;
pos = (1121,21);
},
{
name = top;
pos = (1060,1536);
},
{
name = "topright@ascender";
pos = (2100,1536);
}
);
layerId = m01;
shapes = (
{
closed = 1;
nodes = (
(1241,-32,ls),
(1841,-32,o),
(1984,89,o),
(1984,748,cs),
(1984,1456,ls),
(1984,1508,o),
(1956,1536,o),
(1904,1536,cs),
(1872,1536,ls),
(1820,1536,o),
(1792,1508,o),
(1792,1456,cs),
(1792,748,ls),
(1792,181,o),
(1716,134,o),
(1241,134,cs),
(879,134,ls),
(404,134,o),
(328,181,o),
(328,748,cs),
(328,1456,ls),
(328,1508,o),
(300,1536,o),
(248,1536,cs),
(216,1536,ls),
(164,1536,o),
(136,1508,o),
(136,1456,cs),
(136,748,ls),
(136,89,o),
(279,-32,o),
(879,-32,cs)
);
}
);
width = 2120;
}
);
note = U;
unicode = 85;
},
{
glyphname = V;
lastChange = "2024-09-29 22:41:31 +0000";
layers = (
{
anchors = (
{
name = bottom;
pos = (986,0);
},
{
name = top;
pos = (986,1536);
}
);
layerId = m01;
shapes = (
{
closed = 1;
nodes = (
(827,57,ls),
(848,17,o),
(878,0,o),
(922,0,cs),
(1050,0,ls),
(1094,0,o),
(1123,17,o),
(1144,57,cs),
(1888,1441,ls),
(1918,1497,o),
(1894,1536,o),
(1831,1536,cs),
(1787,1536,ls),
(1743,1536,o),
(1713,1519,o),
(1692,1479,cs),
(986,136,l),
(280,1479,ls),
(259,1519,o),
(229,1536,o),
(185,1536,cs),
(138,1536,ls),
(75,1536,o),
(51,1497,o),
(81,1441,cs)
);
}
);
width = 1972;
}
);
note = V;
unicode = 86;
},
{
glyphname = W;
lastChange = "2024-09-29 22:41:51 +0000";
layers = (
{
anchors = (
{
name = bottom;
pos = (1629,0);
},
{
name = top;
pos = (1629,1536);
}
);
layerId = m01;
shapes = (
{
closed = 1;
nodes = (
(768,59,ls),
(788,18,o),
(817,0,o),
(862,0,cs),
(987,0,ls),
(1032,0,o),
(1061,18,o),
(1080,60,cs),
(1661,1343,l),
(2242,60,ls),
(2261,18,o),
(2290,0,o),
(2335,0,cs),
(2459,0,ls),
(2504,0,o),
(2534,19,o),
(2552,60,cs),
(3174,1442,ls),
(3199,1497,o),
(3174,1536,o),
(3113,1536,cs),
(3061,1536,ls),
(3016,1536,o),
(2986,1516,o),
(2968,1475,cs),
(2397,163,l),
(1800,1476,ls),
(1781,1518,o),
(1752,1536,o),
(1707,1536,cs),
(1615,1536,ls),
(1570,1536,o),
(1541,1518,o),
(1522,1476,cs),
(925,163,l),
(291,1477,ls),
(272,1517,o),
(243,1536,o),
(198,1536,cs),
(147,1536,ls),
(85,1536,o),
(61,1497,o),
(88,1441,cs)
);
}
);
width = 3261;
}
);
note = W;
unicode = 87;
},
{
glyphname = X;
lastChange = "2024-09-29 22:42:07 +0000";
layers = (
{
anchors = (
{
name = bottom;
pos = (1012,0);
},
{
name = top;
pos = (1012,1536);
}
);
layerId = m01;
shapes = (
{
closed = 1;
nodes = (
(94,99,ls),
(41,50,o),
(60,0,o),
(133,0,cs),
(203,0,ls),
(243,0,o),
(272,12,o),
(302,39,cs),
(999,686,l),
(1722,38,ls),
(1752,11,o),
(1781,0,o),
(1821,0,cs),
(1900,0,ls),
(1967,0,o),
(1980,49,o),
(1926,98,cs),
(1133,810,l),
(1809,1437,ls),
(1862,1487,o),
(1843,1536,o),
(1770,1536,cs),
(1700,1536,ls),
(1660,1536,o),
(1631,1524,o),
(1601,1497,cs),
(994,934,l),
(366,1498,ls),
(336,1525,o),
(307,1536,o),
(267,1536,cs),
(188,1536,ls),
(121,1536,o),
(108,1487,o),
(162,1438,cs),
(861,810,l)
);
}
);
width = 2024;
}
);
note = X;
unicode = 88;
},
{
glyphname = Y;
lastChange = "2024-09-29 22:42:22 +0000";
layers = (
{
anchors = (
{
name = bottom;
pos = (1022,0);
},
{
name = top;
pos = (1022,1536);
}
);
layerId = m01;
shapes = (
{
closed = 1;
nodes = (
(926,80,ls),
(926,28,o),
(954,0,o),
(1006,0,cs),
(1038,0,ls),
(1090,0,o),
(1118,28,o),
(1118,80,cs),
(1118,640,l),
(1887,1438,ls),
(1936,1489,o),
(1916,1536,o),
(1845,1536,cs),
(1784,1536,ls),
(1743,1536,o),
(1714,1523,o),
(1686,1493,cs),
(1022,784,l),
(358,1493,ls),
(330,1523,o),
(301,1536,o),
(260,1536,cs),
(190,1536,ls),
(124,1536,o),
(108,1489,o),
(157,1438,cs),
(926,640,l)
);
}
);
width = 2042;
}
);
note = Y;
unicode = 89;
},
{
glyphname = Z;
lastChange = "2024-09-29 22:42:34 +0000";
layers = (
{
anchors = (
{
name = bottom;
pos = (1023,0);
},
{
name = top;
pos = (1023,1536);
}
);
layerId = m01;
shapes = (
{
closed = 1;
nodes = (
(128,80,ls),
(128,28,o),
(156,0,o),
(208,0,cs),
(1840,0,ls),
(1892,0,o),
(1920,28,o),
(1920,80,cs),
(1920,80,ls),
(1920,132,o),
(1892,160,o),
(1840,160,cs),
(394,160,l),
(1842,1338,ls),
(1874,1364,o),
(1888,1394,o),
(1888,1436,cs),
(1888,1456,ls),
(1888,1508,o),
(1860,1536,o),
(1808,1536,cs),
(272,1536,ls),
(220,1536,o),
(192,1508,o),
(192,1456,cs),
(192,1456,ls),
(192,1404,o),
(220,1376,o),
(272,1376,cs),
(1614,1376,l),
(174,198,ls),
(142,172,o),
(128,142,o),
(128,100,cs)
);
}
);
width = 2046;
}
);
note = Z;
unicode = 90;
},
{
glyphname = a;
lastChange = "2024-09-29 22:42:57 +0000";
layers = (
{
anchors = (
{
name = bottom;
pos = (780,0);
},
{
name = ogonek;
pos = (1413,20);
},
{
name = top;
pos = (804,1152);
}
);
layerId = m01;
shapes = (
{
closed = 1;
nodes = (
(1045,-22,o),
(1176,7,o),
(1244,79,c),
(1244,79,ls),
(1244,28,o),
(1272,0,o),
(1324,0,cs),
(1356,0,ls),
(1408,0,o),
(1436,28,o),
(1436,80,cs),
(1436,554,ls),
(1436,1062,o),
(1352,1174,o),
(813,1174,cs),
(364,1174,o),
(209,1139,o),
(182,924,cs),
(175,871,o),
(206,842,o),
(259,842,cs),
(292,842,ls),
(342,842,o),
(363,868,o),
(374,916,cs),
(393,996,o),
(473,1014,o),
(813,1014,cs),
(1185,1014,o),
(1238,986,o),
(1244,633,c),
(1119,659,o),
(970,669,o),
(736,669,cs),
(302,669,o),
(129,634,o),
(129,321,cs),
(129,13,o),
(321,-22,o),
(736,-22,cs)
);
},
{
closed = 1;
nodes = (
(375,134,o),
(321,147,o),
(321,321,cs),
(321,500,o),
(375,517,o),
(736,513,cs),
(1244,507,l),
(1244,330,ls),
(1244,139,o),
(1193,134,o),
(736,134,cs)
);
}
);
width = 1560;
}
);
note = a;
unicode = 97;
},
{
glyphname = ae;
lastChange = "2024-09-30 00:10:05 +0000";
layers = (
{
anchors = (
{
name = bottom;
pos = (2344,0);
},
{
name = ogonek;
pos = (2623,20);
},
{
name = top;
pos = (2344,1152);
}
);
layerId = m01;
shapes = (
{
closed = 1;
nodes = (
(2355,-22,o),
(2556,-5,o),
(2588,259,cs),
(2595,312,o),
(2564,342,o),
(2511,342,cs),
(2491,342,ls),
(2441,342,o),
(2418,316,o),
(2408,267,cs),
(2386,152,o),
(2287,138,o),
(1944,138,cs),
(1493,138,o),
(1437,181,o),
(1435,523,c),
(2513,523,ls),
(2565,523,o),
(2593,551,o),
(2593,603,cs),
(2593,770,ls),
(2593,1105,o),
(2381,1174,o),
(1939,1174,cs),
(1423,1174,o),
(1242,1105,o),
(1242,582,cs),
(1242,43,o),
(1428,-22,o),
(1944,-22,cs)
);
},
{
closed = 1;
nodes = (
(1026,-22,o),
(1179,0,o),
(1293,67,c),
(1333,100,o),
(1439,182,o),
(1437,371,cs),
(1436,554,ls),
(1433,1062,o),
(1352,1174,o),
(813,1174,cs),
(364,1174,o),
(209,1139,o),
(182,924,cs),
(175,871,o),
(206,842,o),
(259,842,cs),
(292,842,ls),
(342,842,o),
(363,868,o),
(374,916,cs),
(393,996,o),
(473,1014,o),
(813,1014,cs),
(1185,1014,o),
(1238,986,o),
(1244,633,c),
(1119,659,o),
(970,669,o),
(736,669,cs),
(302,669,o),
(129,634,o),
(129,321,cs),
(129,13,o),
(321,-22,o),
(736,-22,cs)
);
},
{
closed = 1;
nodes = (
(375,134,o),
(321,147,o),
(321,321,cs),
(321,500,o),
(375,517,o),
(736,513,cs),
(1244,507,l),
(1244,330,ls),
(1244,139,o),
(1193,134,o),
(736,134,cs)
);
},
{
closed = 1;
nodes = (
(1438,971,o),
(1505,1014,o),
(1939,1014,cs),
(2349,1014,o),
(2409,963,o),
(2409,770,cs),
(2409,674,l),
(1435,674,l)
);
}
);
width = 3127;
}
);
unicode = 230;
},
{
glyphname = b;
kernLeft = b;
lastChange = "2024-09-29 22:43:53 +0000";
layers = (
{
anchors = (
{
name = bottom;
pos = (819,0);
},
{
name = top;
pos = (834,1407);
}
);
layerId = m01;
shapes = (
{
closed = 1;
nodes = (
(1353,-22,o),
(1542,43,o),
(1542,582,cs),
(1542,1105,o),
(1353,1174,o),
(837,1174,cs),
(590,1174,o),
(421,1150,o),
(324,1021,c),
(324,1456,ls),
(324,1508,o),
(296,1536,o),
(244,1536,cs),
(212,1536,ls),
(160,1536,o),
(132,1508,o),
(132,1456,cs),
(132,80,ls),
(132,28,o),
(160,0,o),
(212,0,cs),
(244,0,ls),
(296,0,o),
(324,28,o),
(324,80,cs),
(324,132,l),
(421,1,o),
(590,-22,o),
(837,-22,cs)
);
},
{
closed = 1;
nodes = (
(1350,186,o),
(1313,138,o),
(837,138,cs),
(403,138,o),
(324,186,o),
(324,582,cs),
(324,962,o),
(403,1014,o),
(837,1014,cs),
(1313,1014,o),
(1350,962,o),
(1350,582,cs)
);
}
);
width = 1638;
}
);
note = b;
unicode = 98;
},
{
glyphname = c;
lastChange = "2024-09-29 22:44:00 +0000";
layers = (
{
anchors = (
{
name = bottom;
pos = (786,0);
},
{
name = top;
pos = (786,1152);
}
);
layerId = m01;
shapes = (
{
closed = 1;
nodes = (
(1239,-22,o),
(1448,20,o),
(1473,320,cs),
(1476,361,o),
(1446,384,o),
(1393,384,cs),
(1368,384,ls),
(1318,384,o),
(1294,358,o),
(1286,308,cs),
(1262,161,o),
(1150,138,o),
(801,138,cs),
(325,138,o),
(288,186,o),
(288,582,cs),
(288,962,o),
(325,1014,o),
(801,1014,cs),
(1139,1014,o),
(1257,991,o),
(1284,864,cs),
(1295,815,o),
(1317,789,o),
(1367,789,cs),
(1393,789,ls),
(1446,789,o),
(1477,819,o),
(1470,872,cs),
(1435,1132,o),
(1222,1174,o),
(801,1174,cs),
(285,1174,o),
(96,1105,o),
(96,582,cs),
(96,43,o),
(285,-22,o),
(801,-22,cs)
);
}
);
width = 1571;
}
);
note = c;
unicode = 99;
},
{
glyphname = d;
lastChange = "2024-09-29 22:44:09 +0000";
layers = (
{
anchors = (
{
name = bottom;
pos = (819,0);
},
{
name = top;
pos = (768,1340);
},
{
name = "topright@ascender";
pos = (1667,1606);
}
);
layerId = m01;
shapes = (
{
closed = 1;
nodes = (
(1048,-22,o),
(1217,1,o),
(1314,132,c),
(1314,80,ls),
(1314,28,o),
(1342,0,o),
(1394,0,cs),
(1426,0,ls),
(1478,0,o),
(1506,28,o),
(1506,80,cs),
(1506,1456,ls),
(1506,1508,o),
(1478,1536,o),
(1426,1536,cs),
(1394,1536,ls),
(1342,1536,o),
(1314,1508,o),
(1314,1456,cs),
(1314,1021,l),
(1217,1150,o),
(1048,1174,o),
(801,1174,cs),
(285,1174,o),
(96,1105,o),
(96,582,cs),
(96,43,o),
(285,-22,o),
(801,-22,cs)
);
},
{
closed = 1;
nodes = (
(1314,186,o),
(1235,138,o),
(801,138,cs),
(325,138,o),
(288,186,o),
(288,582,cs),
(288,962,o),
(325,1014,o),
(801,1014,cs),
(1235,1014,o),
(1314,962,o),
(1314,582,cs)
);
}
);
width = 1638;
}
);
note = d;
unicode = 100;
},
{
glyphname = eth;
lastChange = "2024-09-29 23:33:27 +0000";
layers = (
{
anchors = (
{
name = bottom;
pos = (992,0);
},
{
name = top;
pos = (992,1638);
}
);
background = {
shapes = (
{
closed = 1;
nodes = (
(1856,677,o),
(1854,595,o),
(1852,520,cs),
(1845,297,o),
(1793,134,o),
(1648,54,cs),
(1544,-4,o),
(1378,-32,o),
(1152,-32,cs),
(831,-32,ls),
(556,-32,o),
(367,8,o),
(264,88,cs),
(165,165,o),
(128,278,o),
(128,448,cs),
(128,528,o),
(138,598,o),
(157,658,cs),
(227,876,o),
(495,928,o),
(794,928,cs),
(913,928,o),
(1010,928,o),
(1083,926,cs),
(1380,919,o),
(1574,888,o),
(1664,832,c),
(1664,957,o),
(1653,1059,o),
(1631,1136,c),
(1324,1026,l),
(1281,1146,l),
(1579,1253,l),
(1526,1331,o),
(1463,1363,o),
(1351,1388,cs),
(1292,1401,o),
(1183,1408,o),
(1024,1408,cs),
(820,1408,o),
(668,1395,o),
(566,1369,cs),
(516,1356,o),
(477,1341,o),
(448,1324,cs),
(380,1283,o),
(352,1238,o),
(352,1120,c),
(193,1120,l),
(193,1224,o),
(213,1306,o),
(252,1364,cs),
(375,1547,o),
(693,1568,o),
(1006,1568,cs),
(1112,1568,o),
(1203,1563,o),
(1278,1553,cs),
(1497,1524,o),
(1650,1443,o),
(1739,1311,c),
(2004,1406,l),
(2047,1286,l),
(1796,1196,l),
(1836,1090,o),
(1856,947,o),
(1856,768,cs)
);
},
{
closed = 1;
nodes = (
(422,723,o),
(381,696,o),
(346,632,cs),
(328,600,o),
(320,538,o),
(320,448,cs),
(320,244,o),
(364,188,o),
(524,148,cs),
(578,135,o),
(680,128,o),
(831,128,cs),
(1152,128,ls),
(1328,128,o),
(1474,132,o),
(1566,200,cs),
(1648,261,o),
(1664,364,o),
(1664,514,cs),
(1664,595,o),
(1647,651,o),
(1613,682,cs),
(1561,730,o),
(1478,744,o),
(1376,754,cs),
(1233,768,o),
(1045,768,o),
(876,768,cs),
(868,768,ls),
(821,768,ls),
(686,768,o),
(601,767,o),
(500,742,cs)
);
}
);
};
layerId = m01;
shapes = (
{
closed = 1;
nodes = (
(1152,-32,ls),
(1378,-32,o),
(1544,-4,o),
(1648,54,cs),
(1793,134,o),
(1845,297,o),
(1852,520,cs),
(1854,595,o),
(1856,677,o),
(1856,768,cs),
(1856,947,o),
(1836,1090,o),
(1796,1196,c),
(1972,1259,ls),
(2020,1276,o),
(2040,1307,o),
(2026,1346,cs),
(2012,1385,o),
(1978,1396,o),
(1929,1379,cs),
(1739,1311,l),
(1650,1443,o),
(1497,1524,o),
(1278,1553,cs),
(1203,1563,o),
(1112,1568,o),
(1006,1568,cs),
(693,1568,o),
(375,1547,o),
(252,1364,cs),
(224,1322,o),
(206,1269,o),
(198,1203,cs),
(191,1150,o),
(223,1120,o),
(275,1120,cs),
(325,1120,o),
(349,1147,o),
(358,1199,cs),
(369,1261,o),
(398,1294,o),
(448,1324,cs),
(477,1341,o),
(516,1356,o),
(566,1369,cs),
(668,1395,o),
(820,1408,o),
(1024,1408,cs),
(1183,1408,o),
(1292,1401,o),
(1351,1388,cs),
(1463,1363,o),
(1526,1331,o),
(1579,1253,c),
(1357,1173,ls),
(1308,1156,o),
(1289,1125,o),
(1303,1086,cs),
(1317,1047,o),
(1350,1036,o),
(1399,1053,cs),
(1631,1136,l),
(1653,1059,o),
(1664,957,o),
(1664,832,c),
(1574,888,o),
(1380,919,o),
(1083,926,cs),
(1010,928,o),
(913,928,o),
(794,928,cs),
(495,928,o),
(227,876,o),
(157,658,cs),
(138,598,o),
(128,528,o),
(128,448,cs),
(128,278,o),
(165,165,o),
(264,88,cs),
(367,8,o),
(556,-32,o),
(831,-32,cs)
);
},
{
closed = 1;
nodes = (
(680,128,o),
(578,135,o),
(524,148,cs),
(364,188,o),
(320,244,o),
(320,448,cs),
(320,538,o),
(328,600,o),
(346,632,cs),
(381,696,o),
(422,723,o),
(500,742,cs),
(601,767,o),
(686,768,o),
(821,768,cs),
(876,768,ls),
(1045,768,o),
(1233,768,o),
(1376,754,cs),
(1478,744,o),
(1561,730,o),
(1613,682,cs),
(1647,651,o),
(1664,595,o),
(1664,514,cs),
(1664,364,o),
(1648,261,o),
(1566,200,cs),
(1474,132,o),
(1328,128,o),
(1152,128,cs),
(831,128,ls)
);
}
);
width = 1967;
}
);
unicode = 240;
},
{
glyphname = e;
lastChange = "2024-09-29 22:44:36 +0000";
layers = (
{
anchors = (
{
name = bottom;
pos = (784,0);
},
{
name = ogonek;
pos = (1063,20);
},
{
name = top;
pos = (784,1152);
}
);
layerId = m01;
shapes = (
{
closed = 1;
nodes = (
(1345,342,ls),
(1295,342,o),
(1272,316,o),
(1262,267,cs),
(1240,152,o),
(1141,138,o),
(798,138,cs),
(347,138,o),
(291,181,o),
(289,523,c),
(1367,523,ls),
(1419,523,o),
(1447,551,o),
(1447,603,cs),
(1447,770,ls),
(1447,1105,o),
(1235,1174,o),
(793,1174,cs),
(277,1174,o),
(96,1105,o),
(96,582,cs),
(96,43,o),
(282,-22,o),
(798,-22,cs),
(1209,-22,o),
(1410,-5,o),
(1442,259,cs),
(1449,312,o),
(1418,342,o),
(1365,342,cs)
);
},
{
closed = 1;
nodes = (
(1203,1014,o),
(1263,963,o),
(1263,770,cs),
(1263,674,l),
(289,674,l),
(292,971,o),
(359,1014,o),
(793,1014,cs)
);
}
);
width = 1567;
}
);
note = e;
unicode = 101;
},
{
glyphname = f;
lastChange = "2024-09-29 22:44:47 +0000";
layers = (
{
anchors = (
{
name = bottom;
pos = (528,0);
},
{
name = top;
pos = (713,1468);
}
);
layerId = m01;
shapes = (
{
closed = 1;
nodes = (
(320,0,l),
(512,0,l),
(512,1006,l),
(976,1006,ls),
(1028,1006,o),
(1056,1032,o),
(1056,1079,cs),
(1056,1079,ls),
(1056,1126,o),
(1028,1152,o),
(976,1152,cs),
(512,1152,l),
(512,1202,ls),
(512,1415,o),
(546,1452,o),
(832,1452,cs),
(976,1452,ls),
(1028,1452,o),
(1056,1480,o),
(1056,1530,cs),
(1056,1530,ls),
(1056,1580,o),
(1028,1608,o),
(976,1608,cs),
(833,1608,ls),
(474,1608,o),
(320,1530,o),
(320,1202,cs),
(320,1152,l),
(208,1152,ls),
(156,1152,o),
(128,1126,o),
(128,1079,cs),
(128,1079,ls),
(128,1032,o),
(156,1006,o),
(208,1006,cs),
(320,1006,l)
);
}
);
width = 1056;
}
);
note = f;
unicode = 102;
},
{
glyphname = g;
lastChange = "2024-09-29 22:44:57 +0000";
layers = (
{
anchors = (
{
name = bottom;
pos = (806,-410);
},
{
name = top;
pos = (806,1152);
}
);
layerId = m01;
shapes = (
{
closed = 1;
nodes = (
(1243,-439,o),
(1469,-384,o),
(1480,122,c),
(1480,1072,ls),
(1480,1124,o),
(1452,1152,o),
(1400,1152,cs),
(1368,1152,ls),
(1316,1152,o),
(1288,1124,o),
(1288,1072,cs),
(1288,1030,l),
(1195,1151,o),
(1033,1174,o),
(792,1174,cs),
(293,1174,o),
(100,1107,o),
(100,584,cs),
(100,93,o),
(292,9,o),
(792,9,cs),
(1033,9,o),
(1195,37,o),
(1288,157,c),
(1288,130,ls),
(1288,-279,o),
(1157,-279,o),
(835,-279,cs),
(568,-279,o),
(411,-278,o),
(362,-202,cs),
(337,-161,o),
(322,-137,o),
(275,-137,cs),
(238,-137,ls),
(184,-137,o),
(149,-168,o),
(162,-220,cs),
(214,-426,o),
(471,-439,o),
(835,-439,cs)
);
},
{
closed = 1;
nodes = (
(1288,236,o),
(1226,169,o),
(792,169,cs),
(332,169,o),
(292,236,o),
(292,584,cs),
(292,964,o),
(333,1014,o),
(792,1014,cs),
(1226,1014,o),
(1288,964,o),
(1288,584,cs)
);
}
);
width = 1612;
}
);
note = g;
unicode = 103;
},
{
glyphname = h;
kernLeft = b;
lastChange = "2024-09-29 22:45:07 +0000";
layers = (
{
anchors = (
{
name = bottom;
pos = (802,0);
},
{
name = top;
pos = (802,1489);
}
);
layerId = m01;
shapes = (
{
closed = 1;
nodes = (
(132,80,ls),
(132,28,o),
(160,0,o),
(212,0,cs),
(244,0,ls),
(296,0,o),
(324,28,o),
(324,80,cs),
(324,694,ls),
(324,920,o),
(446,1014,o),
(846,1014,cs),
(1195,1014,o),
(1284,968,o),
(1284,653,cs),
(1284,80,ls),
(1284,28,o),
(1312,0,o),
(1364,0,cs),
(1397,0,ls),
(1449,0,o),
(1477,28,o),
(1477,80,cs),
(1477,653,ls),
(1477,1067,o),
(1332,1174,o),
(880,1174,cs),
(534,1174,o),
(411,1115,o),
(324,999,c),
(324,1456,ls),
(324,1508,o),
(296,1536,o),
(244,1536,cs),
(212,1536,ls),
(160,1536,o),
(132,1508,o),
(132,1456,cs)
);
}
);
width = 1603;
}
);
note = h;
unicode = 104;
},
{
glyphname = i;
lastChange = "2024-09-29 22:46:39 +0000";
layers = (
{
anchors = (
{
name = bottom;
pos = (291,0);
},
{
name = ogonek;
pos = (320,0);
},
{
name = top;
pos = (224,1442);
}
);
layerId = m01;
shapes = (
{
closed = 1;
nodes = (
(128,1424,ls),
(128,1372,o),
(156,1344,o),
(208,1344,cs),
(240,1344,ls),
(292,1344,o),
(320,1372,o),
(320,1424,cs),
(320,1456,ls),
(320,1508,o),
(292,1536,o),
(240,1536,cs),
(208,1536,ls),
(156,1536,o),
(128,1508,o),
(128,1456,cs)
);
},
{
closed = 1;
nodes = (
(128,80,ls),
(128,28,o),
(156,0,o),
(208,0,cs),
(240,0,ls),
(292,0,o),
(320,28,o),
(320,80,cs),
(320,1072,ls),
(320,1124,o),
(292,1152,o),
(240,1152,cs),
(208,1152,ls),
(156,1152,o),
(128,1124,o),
(128,1072,cs)
);
}
);
width = 448;
}
);
note = i;
unicode = 105;
},
{
glyphname = j;
lastChange = "2024-09-29 22:45:45 +0000";
layers = (
{
layerId = m01;
shapes = (
{
closed = 1;
nodes = (
(288,1424,ls),
(288,1372,o),
(316,1344,o),
(368,1344,cs),
(400,1344,ls),
(452,1344,o),
(480,1372,o),
(480,1424,cs),
(480,1456,ls),
(480,1508,o),
(452,1536,o),
(400,1536,cs),
(368,1536,ls),
(316,1536,o),
(288,1508,o),
(288,1456,cs)
);
},
{
closed = 1;
nodes = (
(-37,-304,ls),
(-37,-356,o),
(-9,-384,o),
(43,-384,cs),
(108,-384,ls),
(382,-384,o),
(480,-266,o),
(480,-24,cs),
(480,1072,ls),
(480,1124,o),
(452,1152,o),
(400,1152,cs),
(368,1152,ls),
(316,1152,o),
(288,1124,o),
(288,1072,cs),
(288,-24,ls),
(288,-193,o),
(237,-224,o),
(108,-224,cs),
(43,-224,ls),
(-9,-224,o),
(-37,-252,o),
(-37,-304,cs)
);
}
);
width = 672;
}
);
note = j;
unicode = 106;
},
{
glyphname = k;
kernLeft = b;
lastChange = "2024-09-29 22:47:01 +0000";
layers = (
{
anchors = (
{
name = bottom;
pos = (723,0);
},
{
name = top;
pos = (230,1536);
}
);
layerId = m01;
shapes = (
{
closed = 1;
nodes = (
(134,80,ls),
(134,28,o),
(162,0,o),
(214,0,cs),
(246,0,ls),
(298,0,o),
(326,28,o),
(326,80,cs),
(326,591,l),
(1084,33,ls),
(1116,9,o),
(1144,0,o),
(1183,0,cs),
(1271,0,ls),
(1336,0,o),
(1341,53,o),
(1279,98,cs),
(569,611,l),
(1236,1055,ls),
(1301,1098,o),
(1284,1152,o),
(1206,1152,cs),
(1145,1152,ls),
(1106,1152,o),
(1079,1144,o),
(1046,1122,cs),
(326,649,l),
(326,1456,ls),
(326,1508,o),
(298,1536,o),
(246,1536,cs),
(214,1536,ls),
(162,1536,o),
(134,1508,o),
(134,1456,cs)
);
}
);
width = 1323;
}
);
note = k;
unicode = 107;
},
{
glyphname = l;
kernLeft = b;
lastChange = "2024-09-29 22:47:35 +0000";
layers = (
{
anchors = (
{
name = bottom;
pos = (288,0);
},
{
name = top;
pos = (444,1465);
},
{
name = "topright@ascender";
pos = (483,1606);
}
);
layerId = m01;
shapes = (
{
closed = 1;
nodes = (
(192,80,ls),
(192,28,o),
(220,0,o),
(272,0,cs),
(304,0,ls),
(356,0,o),
(384,28,o),
(384,80,cs),
(384,1456,ls),
(384,1508,o),
(356,1536,o),
(304,1536,cs),
(272,1536,ls),
(220,1536,o),
(192,1508,o),
(192,1456,cs)
);
}
);
width = 576;
}
);
note = l;
unicode = 108;
},
{
glyphname = lslash;
kernLeft = l;
lastChange = "2024-09-29 23:35:34 +0000";
layers = (
{
background = {
shapes = (
{
closed = 1;
nodes = (
(0,928,l),
(576,1088,l),
(576,928,l),
(0,768,l)
);
},
{
closed = 1;
nodes = (
(128,1536,l),
(320,1536,l),
(320,0,l),
(128,0,l)
);
}
);
};
layerId = m01;
shapes = (
{
closed = 1;
nodes = (
(240,0,ls),
(292,0,o),
(320,28,o),
(320,80,cs),
(320,1456,ls),
(320,1508,o),
(292,1536,o),
(240,1536,cs),
(208,1536,ls),
(156,1536,o),
(128,1508,o),
(128,1456,cs),
(128,80,ls),
(128,28,o),
(156,0,o),
(208,0,cs)
);
},
{
closed = 1;
nodes = (
(458,889,ls),
(503,902,o),
(526,931,o),
(526,978,cs),
(526,988,ls),
(526,1037,o),
(491,1058,o),
(436,1043,cs),
(18,927,ls),
(-27,914,o),
(-50,885,o),
(-50,838,cs),
(-50,828,ls),
(-50,779,o),
(-15,758,o),
(40,773,cs)
);
}
);
width = 512;
}
);
unicode = 322;
},
{
glyphname = m;
lastChange = "2024-09-29 22:47:47 +0000";
layers = (
{
anchors = (
{
name = bottom;
pos = (1237,0);
},
{
name = top;
pos = (1237,1152);
}
);
layerId = m01;
shapes = (
{
closed = 1;
nodes = (
(132,80,ls),
(132,28,o),
(160,0,o),
(212,0,cs),
(244,0,ls),
(296,0,o),
(324,28,o),
(324,80,cs),
(324,704,ls),
(324,930,o),
(456,1024,o),
(796,1024,cs),
(1056,1024,o),
(1145,955,o),
(1145,640,cs),
(1145,80,ls),
(1145,28,o),
(1173,0,o),
(1225,0,cs),
(1257,0,ls),
(1309,0,o),
(1337,28,o),
(1337,80,cs),
(1337,640,ls),
(1337,662,o),
(1337,684,o),
(1336,705,cs),
(1336,704,ls),
(1336,930,o),
(1468,1024,o),
(1808,1024,cs),
(2068,1024,o),
(2157,955,o),
(2157,640,cs),
(2157,80,ls),
(2157,28,o),
(2185,0,o),
(2237,0,cs),
(2269,0,ls),
(2321,0,o),
(2349,28,o),
(2349,80,cs),
(2349,640,ls),
(2349,1054,o),
(2195,1184,o),
(1832,1184,cs),
(1526,1184,o),
(1380,1119,o),
(1283,966,c),
(1211,1126,o),
(1062,1184,o),
(820,1184,cs),
(529,1184,o),
(410,1125,o),
(324,1009,c),
(324,1072,ls),
(324,1124,o),
(296,1152,o),
(244,1152,cs),
(212,1152,ls),
(160,1152,o),
(132,1124,o),
(132,1072,cs)
);
}
);
width = 2474;
}
);
note = m;
unicode = 109;
},
{
glyphname = n;
lastChange = "2024-09-29 22:47:56 +0000";
layers = (
{
anchors = (
{
name = bottom;
pos = (801,0);
},
{
name = top;
pos = (801,1152);
}
);
layerId = m01;
shapes = (
{
closed = 1;
nodes = (
(132,80,ls),
(132,28,o),
(160,0,o),
(212,0,cs),
(244,0,ls),
(296,0,o),
(324,28,o),
(324,80,cs),
(324,694,ls),
(324,920,o),
(446,1014,o),
(846,1014,cs),
(1195,1014,o),
(1284,968,o),
(1284,653,cs),
(1284,80,ls),
(1284,28,o),
(1312,0,o),
(1364,0,cs),
(1397,0,ls),
(1449,0,o),
(1477,28,o),
(1477,80,cs),
(1477,653,ls),
(1477,1067,o),
(1332,1174,o),
(880,1174,cs),
(534,1174,o),
(411,1115,o),
(324,999,c),
(324,1072,ls),
(324,1124,o),
(296,1152,o),
(244,1152,cs),
(212,1152,ls),
(160,1152,o),
(132,1124,o),
(132,1072,cs)
);
}
);
width = 1601;
}
);
note = n;
unicode = 110;
},
{
glyphname = o;
layers = (
{
anchors = (
{
name = bottom;
pos = (801,0);
},
{
name = ogonek;
pos = (896,20);
},
{
name = top;
pos = (801,1152);
},
{
name = "topright@ascender";
pos = (1582,1152);
}
);
layerId = m01;
shapes = (
{
closed = 1;
nodes = (
(1317,-22,o),
(1506,43,o),
(1506,582,cs),
(1506,1105,o),
(1317,1174,o),
(801,1174,cs),
(285,1174,o),
(96,1105,o),
(96,582,cs),
(96,43,o),
(285,-22,o),
(801,-22,cs)
);
},
{
closed = 1;
nodes = (
(1314,186,o),
(1277,138,o),
(801,138,cs),
(325,138,o),
(288,186,o),
(288,582,cs),
(288,962,o),
(325,1014,o),
(801,1014,cs),
(1277,1014,o),
(1314,962,o),
(1314,582,cs)
);
}
);
width = 1602;
}
);
note = o;
unicode = 111;
},
{
glyphname = oslash;
lastChange = "2024-09-30 05:07:46 +0000";
layers = (
{
layerId = m01;
shapes = (
{
ref = o;
},
{
closed = 1;
nodes = (
(396,-98,ls),
(371,-153,o),
(395,-192,o),
(456,-192,cs),
(479,-192,ls),
(524,-192,o),
(553,-174,o),
(572,-132,cs),
(1206,1250,ls),
(1231,1305,o),
(1207,1344,o),
(1146,1344,cs),
(1123,1344,ls),
(1078,1344,o),
(1049,1326,o),
(1030,1284,cs)
);
}
);
width = 2292;
}
);
unicode = 248;
},
{
glyphname = oe;
lastChange = "2024-09-30 05:05:25 +0000";
layers = (
{
anchors = (
{
name = bottom;
pos = (419,0);
},
{
name = ogonek;
pos = (514,20);
},
{
name = top;
pos = (419,1152);
},
{
name = "topright@ascender";
pos = (1200,1152);
}
);
layerId = m01;
shapes = (
{
closed = 1;
nodes = (
(1317,-22,o),
(1506,43,o),
(1506,582,cs),
(1506,1105,o),
(1317,1174,o),
(801,1174,cs),
(285,1174,o),
(96,1105,o),
(96,582,cs),
(96,43,o),
(285,-22,o),
(801,-22,cs)
);
},
{
closed = 1;
nodes = (
(1314,186,o),
(1277,138,o),
(801,138,cs),
(325,138,o),
(288,186,o),
(288,582,cs),
(288,962,o),
(325,1014,o),
(801,1014,cs),
(1277,1014,o),
(1314,962,o),
(1314,582,cs)
);
},
{
pos = (1220,0);
ref = e;
}
);
width = 2763;
}
);
unicode = 339;
},
{
glyphname = p;
lastChange = "2024-09-29 22:48:06 +0000";
layers = (
{
anchors = (
{
name = bottom;
pos = (819,0);
},
{
name = top;
pos = (819,1152);
}
);
layerId = m01;
shapes = (
{
closed = 1;
nodes = (
(1350,186,o),
(1313,138,o),
(837,138,cs),
(403,138,o),
(324,186,o),
(324,582,cs),
(324,962,o),
(403,1014,o),
(837,1014,cs),
(1313,1014,o),
(1350,962,o),
(1350,582,cs)
);
},
{
closed = 1;
nodes = (
(132,-304,ls),
(132,-356,o),
(160,-384,o),
(212,-384,cs),
(244,-384,ls),
(296,-384,o),
(324,-356,o),
(324,-304,cs),
(324,132,l),
(421,1,o),
(590,-22,o),
(837,-22,cs),
(1353,-22,o),
(1542,43,o),
(1542,582,cs),
(1542,1105,o),
(1353,1174,o),
(837,1174,cs),
(590,1174,o),
(421,1150,o),
(324,1021,c),
(324,1072,ls),
(324,1124,o),
(296,1152,o),
(244,1152,cs),
(212,1152,ls),
(160,1152,o),
(132,1124,o),
(132,1072,cs)
);
}
);
width = 1638;
}
);
note = p;
unicode = 112;
},
{
glyphname = thorn;
kernLeft = b;
lastChange = "2024-09-29 22:48:14 +0000";
layers = (
{
anchors = (
{
name = bottom;
pos = (800,0);
},
{
name = top;
pos = (800,1152);
}
);
layerId = m01;
shapes = (
{
closed = 1;
nodes = (
(128,-304,ls),
(128,-356,o),
(156,-384,o),
(208,-384,cs),
(240,-384,ls),
(292,-384,o),
(320,-356,o),
(320,-304,cs),
(320,128,l),
(365,47,o),
(486,-4,o),
(682,-25,cs),
(726,-30,o),
(794,-32,o),
(886,-32,cs),
(1074,-32,o),
(1269,4,o),
(1376,88,cs),
(1493,180,o),
(1536,329,o),
(1536,544,cs),
(1536,870,o),
(1428,1039,o),
(1158,1093,cs),
(1069,1111,o),
(978,1120,o),
(886,1120,cs),
(643,1120,o),
(395,1093,o),
(320,961,c),
(320,1456,ls),
(320,1508,o),
(292,1536,o),
(240,1536,cs),
(208,1536,ls),
(156,1536,o),
(128,1508,o),
(128,1456,cs)
);
},
{
closed = 1;
nodes = (
(786,128,ls),
(590,128,o),
(437,137,o),
(368,266,cs),
(336,326,o),
(320,420,o),
(320,547,cs),
(320,673,o),
(336,766,o),
(368,824,cs),
(412,904,o),
(510,948,o),
(661,956,cs),
(711,959,o),
(771,960,o),
(840,960,cs),
(1053,960,o),
(1250,955,o),
(1312,808,cs),
(1334,756,o),
(1344,669,o),
(1344,544,cs),
(1344,419,o),
(1335,336,o),
(1318,295,cs),
(1285,216,o),
(1246,183,o),
(1164,158,cs),
(1097,138,o),
(1009,128,o),
(900,128,cs)
);
}
);
width = 1600;
}
);
note = thorn;
unicode = 254;
},
{
glyphname = q;
lastChange = "2024-09-29 22:48:21 +0000";
layers = (
{
anchors = (
{
name = bottom;
pos = (819,0);
},
{
name = top;
pos = (819,1152);
}
);
layerId = m01;
shapes = (
{
closed = 1;
nodes = (
(1314,186,o),
(1235,138,o),
(801,138,cs),
(325,138,o),
(288,186,o),
(288,582,cs),
(288,962,o),
(325,1014,o),
(801,1014,cs),
(1235,1014,o),
(1314,962,o),
(1314,582,cs)
);
},
{
closed = 1;
nodes = (
(96,43,o),
(285,-22,o),
(801,-22,cs),
(1048,-22,o),
(1217,1,o),
(1314,132,c),
(1314,-304,ls),
(1314,-356,o),
(1342,-384,o),
(1394,-384,cs),
(1426,-384,ls),
(1478,-384,o),
(1506,-356,o),
(1506,-304,cs),
(1506,1072,ls),
(1506,1124,o),
(1478,1152,o),
(1426,1152,cs),
(1394,1152,ls),
(1342,1152,o),
(1314,1124,o),
(1314,1072,cs),
(1314,1021,l),
(1217,1150,o),
(1048,1174,o),
(801,1174,cs),
(285,1174,o),
(96,1105,o),
(96,582,cs)
);
}
);
width = 1638;
}
);
note = q;
unicode = 113;
},
{
glyphname = r;
lastChange = "2024-09-29 22:48:33 +0000";
layers = (
{
anchors = (
{
name = bottom;
pos = (244,0);
},
{
name = top;
pos = (507,1152);
}
);
layerId = m01;
shapes = (
{
closed = 1;
nodes = (
(148,80,ls),
(148,28,o),
(176,0,o),
(228,0,cs),
(260,0,ls),
(312,0,o),
(340,28,o),
(340,80,cs),
(340,704,ls),
(340,932,o),
(342,1000,o),
(783,1007,cs),
(839,1008,o),
(869,1037,o),
(869,1088,cs),
(869,1089,ls),
(869,1141,o),
(839,1169,o),
(783,1168,cs),
(468,1161,o),
(418,1118,o),
(340,993,c),
(340,1072,ls),
(340,1124,o),
(312,1152,o),
(260,1152,cs),
(228,1152,ls),
(176,1152,o),
(148,1124,o),
(148,1072,cs)
);
}
);
width = 986;
}
);
note = r;
unicode = 114;
},
{
glyphname = s;
lastChange = "2024-09-29 22:48:56 +0000";
layers = (
{
anchors = (
{
name = bottom;
pos = (795,0);
},
{
name = top;
pos = (795,1152);
}
);
layerId = m01;
shapes = (
{
closed = 1;
nodes = (
(1280,-22,o),
(1461,3,o),
(1461,336,cs),
(1461,614,o),
(1386,675,o),
(1031,679,cs),
(636,683,ls),
(332,686,o),
(326,700,o),
(326,854,cs),
(326,1007,o),
(335,1014,o),
(820,1014,cs),
(1172,1014,o),
(1238,1006,o),
(1251,906,cs),
(1257,856,o),
(1281,829,o),
(1332,829,cs),
(1357,829,ls),
(1409,829,o),
(1439,858,o),
(1436,910,cs),
(1421,1133,o),
(1321,1174,o),
(810,1174,cs),
(327,1174,o),
(138,1176,o),
(138,854,cs),
(138,594,o),
(215,529,o),
(569,525,cs),
(1027,520,ls),
(1254,518,o),
(1273,491,o),
(1273,336,cs),
(1273,166,o),
(1267,138,o),
(784,138,cs),
(409,138,o),
(338,158,o),
(325,258,cs),
(318,307,o),
(295,334,o),
(244,334,cs),
(219,334,ls),
(167,334,o),
(137,305,o),
(141,253,cs),
(159,25,o),
(274,-22,o),
(779,-22,cs)
);
}
);
width = 1589;
}
);
note = s;
unicode = 115;
},
{
glyphname = germandbls;
lastChange = "2024-09-30 04:04:22 +0000";
layers = (
{
anchors = (
{
name = bottom;
pos = (336,0);
}
);
layerId = m01;
shapes = (
{
closed = 1;
nodes = (
(138,0,l),
(330,0,l),
(330,1202,ls),
(330,1415,o),
(364,1452,o),
(650,1452,cs),
(1387,1452,l),
(1387,1536,o),
(1367,1608,o),
(1292,1608,cs),
(651,1608,ls),
(292,1608,o),
(138,1530,o),
(138,1202,cs)
);
},
{
closed = 1;
nodes = (
(686,-22,o),
(783,-22,o),
(645,-22,cs),
(521,-22,o),
(521,140,o),
(645,140,cs),
(762,140,o),
(697,140,o),
(884,140,cs),
(1127,140,o),
(1179,219,o),
(1179,457,cs),
(1179,677,o),
(1140,703,o),
(625,703,cs),
(577,703,o),
(546,734,o),
(546,782,cs),
(546,784,ls),
(546,832,o),
(557,857,o),
(593,889,cs),
(1228,1453,l),
(1385,1453,l),
(1385,1365,o),
(1362,1307,o),
(1316,1264,cs),
(1269,1220,o),
(843,861,o),
(853,861,cs),
(1303,862,o),
(1355,755,o),
(1362,439,cs),
(1371,19,o),
(1140,-22,o),
(882,-22,cs)
);
}
);
width = 1827;
}
);
unicode = 223;
},
{
glyphname = t;
kernLeft = b;
lastChange = "2024-09-29 22:49:09 +0000";
layers = (
{
anchors = (
{
name = bottom;
pos = (649,0);
},
{
name = top;
pos = (659,1427);
},
{
name = "topright@ascender";
pos = (571,1767);
}
);
layerId = m01;
shapes = (
{
closed = 1;
nodes = (
(1028,0,o),
(1130,51,o),
(1143,410,cs),
(1146,470,o),
(1116,502,o),
(1064,502,cs),
(1055,502,ls),
(1004,502,o),
(975,473,o),
(974,419,cs),
(970,163,o),
(930,160,o),
(661,160,cs),
(410,160,o),
(370,191,o),
(370,416,cs),
(370,994,l),
(999,994,ls),
(1051,994,o),
(1079,1022,o),
(1079,1073,cs),
(1079,1073,ls),
(1079,1124,o),
(1051,1152,o),
(999,1152,cs),
(370,1152,l),
(370,1387,ls),
(370,1439,o),
(342,1467,o),
(290,1467,cs),
(258,1467,ls),
(206,1467,o),
(178,1439,o),
(178,1387,cs),
(178,416,ls),
(178,88,o),
(309,0,o),
(661,0,cs)
);
}
);
width = 1295;
}
);
note = t;
unicode = 116;
},
{
glyphname = u;
lastChange = "2024-09-29 22:49:18 +0000";
layers = (
{
anchors = (
{
name = bottom;
pos = (801,0);
},
{
name = ogonek;
pos = (1411,20);
},
{
name = top;
pos = (801,1152);
},
{
name = "topright@ascender";
pos = (1581,1152);
}
);
layerId = m01;
shapes = (
{
closed = 1;
nodes = (
(1066,-22,o),
(1192,37,o),
(1277,153,c),
(1277,80,ls),
(1277,28,o),
(1305,0,o),
(1357,0,cs),
(1389,0,ls),
(1441,0,o),
(1469,28,o),
(1469,80,cs),
(1469,1072,ls),
(1469,1124,o),
(1441,1152,o),
(1389,1152,cs),
(1357,1152,ls),
(1305,1152,o),
(1277,1124,o),
(1277,1072,cs),
(1277,458,ls),
(1277,232,o),
(1154,138,o),
(754,138,cs),
(395,138,o),
(317,207,o),
(317,512,cs),
(317,1072,ls),
(317,1124,o),
(289,1152,o),
(237,1152,cs),
(204,1152,ls),
(152,1152,o),
(124,1124,o),
(124,1072,cs),
(124,512,ls),
(124,108,o),
(268,-22,o),
(720,-22,cs)
);
}
);
width = 1601;
}
);
note = u;
unicode = 117;
},
{
glyphname = v;
lastChange = "2024-09-29 22:49:37 +0000";
layers = (
{
anchors = (
{
name = bottom;
pos = (756,0);
},
{
name = top;
pos = (756,1152);
}
);
layerId = m01;
shapes = (
{
closed = 1;
nodes = (
(598,57,ls),
(618,18,o),
(649,0,o),
(693,0,cs),
(819,0,ls),
(863,0,o),
(894,18,o),
(914,57,cs),
(1436,1057,ls),
(1465,1112,o),
(1441,1152,o),
(1379,1152,cs),
(1337,1152,ls),
(1293,1152,o),
(1263,1134,o),
(1243,1094,cs),
(758,144,l),
(756,144,l),
(281,1094,ls),
(261,1135,o),
(231,1152,o),
(187,1152,cs),
(133,1152,ls),
(71,1152,o),
(47,1112,o),
(76,1057,cs)
);
}
);
width = 1512;
}
);
note = v;
unicode = 118;
},
{
glyphname = w;
lastChange = "2024-09-29 22:49:53 +0000";
layers = (
{
anchors = (
{
name = bottom;
pos = (1092,0);
},
{
name = top;
pos = (1092,1152);
}
);
layerId = m01;
shapes = (
{
closed = 1;
nodes = (
(460,63,ls),
(476,20,o),
(506,0,o),
(552,0,cs),
(672,0,ls),
(718,0,o),
(748,19,o),
(764,63,cs),
(1091,933,l),
(1093,933,l),
(1420,63,ls),
(1436,19,o),
(1466,0,o),
(1512,0,cs),
(1632,0,ls),
(1678,0,o),
(1708,20,o),
(1724,63,cs),
(2107,1060,ls),
(2128,1116,o),
(2102,1152,o),
(2043,1152,cs),
(1992,1152,ls),
(1946,1152,o),
(1916,1131,o),
(1901,1088,cs),
(1569,155,l),
(1567,155,l),
(1212,1089,ls),
(1196,1132,o),
(1166,1152,o),
(1120,1152,cs),
(1064,1152,ls),
(1018,1152,o),
(988,1132,o),
(972,1089,cs),
(613,155,l),
(611,155,l),
(283,1087,ls),
(268,1131,o),
(238,1152,o),
(192,1152,cs),
(141,1152,ls),
(82,1152,o),
(56,1116,o),
(77,1060,cs)
);
}
);
width = 2184;
}
);
note = w;
unicode = 119;
},
{
glyphname = x;
lastChange = "2024-09-29 22:50:09 +0000";
layers = (
{
anchors = (
{
name = bottom;
pos = (743,0);
},
{
name = top;
pos = (743,1152);
}
);
layerId = m01;
shapes = (
{
closed = 1;
nodes = (
(124,98,ls),
(73,48,o),
(94,0,o),
(165,0,cs),
(223,0,ls),
(264,0,o),
(293,12,o),
(321,42,cs),
(743,482,l),
(1165,42,ls),
(1193,12,o),
(1222,0,o),
(1263,0,cs),
(1333,0,ls),
(1398,0,o),
(1413,48,o),
(1362,98,cs),
(871,587,l),
(1335,1054,ls),
(1385,1105,o),
(1365,1152,o),
(1294,1152,cs),
(1235,1152,ls),
(1194,1152,o),
(1165,1139,o),
(1137,1110,cs),
(748,707,l),
(350,1111,ls),
(321,1141,o),
(292,1152,o),
(251,1152,cs),
(181,1152,ls),
(115,1152,o),
(101,1105,o),
(151,1054,cs),
(615,586,l)
);
}
);
width = 1489;
}
);
note = x;
unicode = 120;
},
{
glyphname = y;
lastChange = "2024-09-29 22:50:47 +0000";
layers = (
{
anchors = (
{
name = bottom;
pos = (744,0);
},
{
name = top;
pos = (744,1152);
}
);
layerId = m01;
shapes = (
{
closed = 1;
nodes = (
(268,-355,o),
(298,-385,o),
(352,-382,cs),
(703,-369,o),
(779,-265,o),
(876,-64,cs),
(1415,1058,ls),
(1442,1113,o),
(1416,1152,o),
(1355,1152,cs),
(1301,1152,ls),
(1256,1152,o),
(1227,1134,o),
(1208,1092,cs),
(774,143,l),
(257,1096,ls),
(236,1135,o),
(206,1152,o),
(162,1152,cs),
(115,1152,ls),
(52,1152,o),
(28,1112,o),
(59,1056,cs),
(615,56,ls),
(636,18,o),
(666,0,o),
(710,0,c),
(614,-195,o),
(556,-220,o),
(350,-224,cs),
(297,-224,o),
(268,-252,o),
(268,-304,cs)
);
}
);
width = 1494;
}
);
note = y;
unicode = 121;
},
{
glyphname = z;
lastChange = "2024-09-29 22:51:04 +0000";
layers = (
{
anchors = (
{
name = bottom;
pos = (736,0);
},
{
name = top;
pos = (736,1152);
}
);
layerId = m01;
shapes = (
{
closed = 1;
nodes = (
(128,80,ls),
(128,28,o),
(156,0,o),
(208,0,cs),
(1264,0,ls),
(1316,0,o),
(1344,27,o),
(1344,75,cs),
(1344,123,o),
(1316,150,o),
(1264,150,cs),
(385,150,l),
(1300,953,ls),
(1331,981,o),
(1344,1010,o),
(1344,1051,cs),
(1344,1072,ls),
(1344,1124,o),
(1316,1152,o),
(1264,1152,cs),
(272,1152,ls),
(220,1152,o),
(192,1126,o),
(192,1078,cs),
(192,1030,o),
(220,1004,o),
(272,1004,cs),
(1101,1004,l),
(173,199,ls),
(141,171,o),
(128,142,o),
(128,101,cs)
);
}
);
width = 1472;
}
);
note = z;
unicode = 122;
},
{
glyphname = fi;
lastChange = "2024-09-29 22:54:52 +0000";
layers = (
{
anchors = (
{
name = bottom_1;
pos = (528,0);
},
{
name = bottom_2;
pos = (1347,0);
},
{
name = caret_1;
pos = (752,0);
},
{
name = top_1;
pos = (713,1468);
},
{
name = top_2;
pos = (1280,1442);
}
);
layerId = m01;
shapes = (
{
closed = 1;
nodes = (
(320,80,ls),
(320,28,o),
(348,0,o),
(400,0,cs),
(432,0,ls),
(484,0,o),
(512,28,o),
(512,80,cs),
(512,1006,l),
(1184,1006,l),
(1184,1152,l),
(512,1152,l),
(512,1202,ls),
(512,1415,o),
(546,1452,o),
(832,1452,cs),
(976,1452,ls),
(1028,1452,o),
(1056,1480,o),
(1056,1530,cs),
(1056,1580,o),
(1028,1608,o),
(976,1608,cs),
(833,1608,ls),
(474,1608,o),
(320,1530,o),
(320,1202,cs),
(320,1152,l),
(208,1152,ls),
(156,1152,o),
(128,1126,o),
(128,1079,cs),
(128,1032,o),
(156,1006,o),
(208,1006,cs),
(320,1006,l)
);
},
{
closed = 1;
nodes = (
(1184,1424,ls),
(1184,1372,o),
(1212,1344,o),
(1264,1344,cs),
(1296,1344,ls),
(1348,1344,o),
(1376,1372,o),
(1376,1424,cs),
(1376,1456,ls),
(1376,1508,o),
(1348,1536,o),
(1296,1536,cs),
(1264,1536,ls),
(1212,1536,o),
(1184,1508,o),
(1184,1456,cs)
);
},
{
closed = 1;
nodes = (
(1184,80,ls),
(1184,28,o),
(1212,0,o),
(1264,0,cs),
(1296,0,ls),
(1348,0,o),
(1376,28,o),
(1376,80,cs),
(1376,1072,ls),
(1376,1124,o),
(1348,1152,o),
(1296,1152,cs),
(1184,1152,l)
);
}
);
width = 1504;
}
);
note = fi;
unicode = 64257;
},
{
glyphname = fl;
lastChange = "2024-09-29 22:55:54 +0000";
layers = (
{
anchors = (
{
name = bottom_1;
pos = (528,0);
},
{
name = bottom_2;
pos = (1344,0);
},
{
name = caret_1;
pos = (816,0);
},
{
name = top_1;
pos = (713,1468);
},
{
name = top_2;
pos = (1500,1465);
}
);
layerId = m01;
shapes = (
{
closed = 1;
nodes = (
(320,80,ls),
(320,28,o),
(348,0,o),
(400,0,cs),
(432,0,ls),
(484,0,o),
(512,28,o),
(512,80,cs),
(512,1006,l),
(976,1006,ls),
(1028,1006,o),
(1056,1032,o),
(1056,1079,cs),
(1056,1126,o),
(1028,1152,o),
(976,1152,cs),
(512,1152,l),
(512,1202,ls),
(512,1415,o),
(546,1452,o),
(832,1452,cs),
(1248,1452,l),
(1248,1608,l),
(833,1608,ls),
(474,1608,o),
(320,1530,o),
(320,1202,cs),
(320,1152,l),
(208,1152,ls),
(156,1152,o),
(128,1126,o),
(128,1079,cs),
(128,1032,o),
(156,1006,o),
(208,1006,cs),
(320,1006,l)
);
},
{
closed = 1;
nodes = (
(1248,80,ls),
(1248,28,o),
(1276,0,o),
(1328,0,cs),
(1360,0,ls),
(1412,0,o),
(1440,28,o),
(1440,80,cs),
(1440,1528,ls),
(1440,1580,o),
(1412,1608,o),
(1360,1608,cs),
(1248,1608,l)
);
}
);
width = 1632;
}
);
note = fl;
unicode = 64258;
},
{
glyphname = ordfeminine;
lastChange = "2024-09-30 05:39:45 +0000";
layers = (
{
anchors = (
{
name = bottom;
pos = (512,0);
},
{
name = ogonek;
pos = (1018,16);
},
{
name = top;
pos = (531,922);
}
);
layerId = m01;
shapes = (
{
closed = 1;
nodes = (
(682,768,o),
(766,787,o),
(809,833,c),
(809,833,ls),
(809,800,o),
(828,782,o),
(860,782,cs),
(881,782,ls),
(914,782,o),
(932,800,o),
(932,833,cs),
(932,1137,ls),
(932,1462,o),
(879,1533,o),
(533,1533,cs),
(246,1533,o),
(147,1511,o),
(130,1373,cs),
(125,1340,o),
(145,1321,o),
(179,1321,cs),
(200,1321,ls),
(232,1321,o),
(245,1337,o),
(252,1369,cs),
(264,1420,o),
(316,1431,o),
(533,1431,cs),
(772,1431,o),
(805,1413,o),
(809,1187,c),
(729,1204,o),
(634,1210,o),
(484,1210,cs),
(207,1210,o),
(96,1188,o),
(96,988,cs),
(96,790,o),
(219,768,o),
(484,768,cs)
);
},
{
closed = 1;
nodes = (
(253,868,o),
(219,877,o),
(219,988,cs),
(219,1102,o),
(253,1113,o),
(484,1110,cs),
(809,1107,l),
(809,993,ls),
(809,871,o),
(776,868,o),
(484,868,cs)
);
}
);
width = 1028;
}
);
unicode = 170;
},
{
glyphname = zero;
layers = (
{
layerId = m01;
shapes = (
{
closed = 1;
nodes = (
(1628,748,ls),
(1628,182,o),
(1554,134,o),
(1077,134,cs),
(871,134,ls),
(394,134,o),
(320,182,o),
(320,748,cs),
(320,788,ls),
(320,1374,o),
(394,1402,o),
(871,1402,cs),
(1077,1402,ls),
(1554,1402,o),
(1628,1374,o),
(1628,788,cs)
);
},
{
closed = 1;
nodes = (
(128,748,ls),
(128,89,o),
(271,-32,o),
(871,-32,cs),
(1077,-32,ls),
(1677,-32,o),
(1820,89,o),
(1820,748,cs),
(1820,788,ls),
(1820,1467,o),
(1677,1568,o),
(1077,1568,cs),
(871,1568,ls),
(271,1568,o),
(128,1467,o),
(128,788,cs)
);
}
);
width = 1948;
}
);
note = zero;
unicode = 48;
},
{
glyphname = one;
lastChange = "2024-09-29 22:56:30 +0000";
layers = (
{
layerId = m01;
shapes = (
{
closed = 1;
nodes = (
(396,80,ls),
(396,28,o),
(424,0,o),
(476,0,cs),
(1658,0,ls),
(1710,0,o),
(1738,28,o),
(1738,80,cs),
(1738,80,ls),
(1738,132,o),
(1710,160,o),
(1658,160,cs),
(1202,160,l),
(1202,1456,ls),
(1202,1508,o),
(1174,1536,o),
(1122,1536,cs),
(1046,1536,ls),
(1010,1536,o),
(983,1531,o),
(948,1520,cs),
(455,1357,ls),
(405,1340,o),
(388,1303,o),
(408,1254,cs),
(408,1254,ls),
(427,1207,o),
(462,1191,o),
(510,1207,cs),
(1010,1374,l),
(1010,160,l),
(476,160,ls),
(424,160,o),
(396,132,o),
(396,80,cs)
);
}
);
width = 1956;
}
);
note = one;
unicode = 49;
},
{
glyphname = two;
lastChange = "2024-09-29 22:56:50 +0000";
layers = (
{
layerId = m01;
shapes = (
{
closed = 1;
nodes = (
(166,80,ls),
(166,28,o),
(194,0,o),
(246,0,cs),
(1688,0,ls),
(1740,0,o),
(1768,28,o),
(1768,80,cs),
(1768,80,ls),
(1768,132,o),
(1740,160,o),
(1688,160,cs),
(358,160,l),
(358,371,ls),
(358,637,o),
(397,686,o),
(874,686,cs),
(1314,686,ls),
(1719,686,o),
(1829,795,o),
(1829,1132,cs),
(1829,1481,o),
(1706,1568,o),
(1127,1568,cs),
(889,1568,ls),
(339,1568,o),
(190,1495,o),
(169,1213,cs),
(165,1161,o),
(195,1132,o),
(247,1132,cs),
(280,1132,ls),
(331,1132,o),
(356,1159,o),
(361,1210,cs),
(378,1391,o),
(476,1402,o),
(899,1402,cs),
(1117,1402,ls),
(1573,1402,o),
(1637,1388,o),
(1637,1132,cs),
(1637,886,o),
(1623,847,o),
(1207,847,cs),
(849,847,ls),
(262,845,o),
(166,727,o),
(166,371,cs)
);
}
);
width = 1948;
}
);
note = two;
unicode = 50;
},
{
glyphname = three;
lastChange = "2024-09-29 22:57:07 +0000";
layers = (
{
layerId = m01;
shapes = (
{
closed = 1;
nodes = (
(1118,-32,ls),
(1718,-32,o),
(1816,85,o),
(1816,444,cs),
(1816,659,o),
(1731,770,o),
(1607,796,c),
(1730,819,o),
(1816,925,o),
(1816,1132,cs),
(1816,1481,o),
(1693,1568,o),
(1093,1568,cs),
(855,1568,ls),
(305,1568,o),
(156,1495,o),
(135,1213,cs),
(131,1161,o),
(161,1132,o),
(213,1132,cs),
(246,1132,ls),
(297,1132,o),
(322,1159,o),
(327,1210,cs),
(344,1391,o),
(442,1402,o),
(865,1402,cs),
(1083,1402,ls),
(1560,1402,o),
(1624,1388,o),
(1624,1132,cs),
(1624,916,o),
(1590,877,o),
(1153,877,cs),
(895,877,ls),
(843,877,o),
(815,849,o),
(815,797,cs),
(815,796,ls),
(815,744,o),
(843,716,o),
(895,716,cs),
(1113,716,ls),
(1590,716,o),
(1624,681,o),
(1624,444,cs),
(1624,178,o),
(1585,134,o),
(1108,134,cs),
(840,134,ls),
(415,134,o),
(338,169,o),
(326,365,cs),
(323,416,o),
(296,444,o),
(245,444,cs),
(213,444,ls),
(161,444,o),
(131,415,o),
(134,363,cs),
(151,67,o),
(278,-32,o),
(830,-32,cs)
);
}
);
width = 1948;
}
);
note = three;
unicode = 51;
},
{
glyphname = four;
lastChange = "2024-09-29 23:01:03 +0000";
layers = (
{
layerId = m01;
shapes = (
{
closed = 1;
nodes = (
(1472,80,ls),
(1472,28,o),
(1500,0,o),
(1552,0,cs),
(1584,0,ls),
(1636,0,o),
(1664,28,o),
(1664,80,cs),
(1664,320,l),
(1840,320,ls),
(1892,320,o),
(1920,348,o),
(1920,400,cs),
(1920,400,ls),
(1920,452,o),
(1892,480,o),
(1840,480,cs),
(1664,480,l),
(1664,1456,ls),
(1664,1508,o),
(1636,1536,o),
(1584,1536,cs),
(1464,1536,ls),
(1424,1536,o),
(1395,1526,o),
(1364,1501,cs),
(175,550,ls),
(142,523,o),
(128,494,o),
(128,452,cs),
(128,400,ls),
(128,348,o),
(156,320,o),
(208,320,cs),
(1472,320,l)
);
},
{
closed = 1;
nodes = (
(340,480,l),
(1472,1392,l),
(1472,480,l)
);
}
);
width = 2048;
}
);
note = four;
unicode = 52;
},
{
glyphname = five;
lastChange = "2024-09-29 23:01:54 +0000";
layers = (
{
layerId = m01;
shapes = (
{
closed = 1;
nodes = (
(201,815,ls),
(201,763,o),
(229,735,o),
(281,735,cs),
(371,735,ls),
(411,735,o),
(436,751,o),
(471,770,cs),
(540,807,o),
(667,816,o),
(903,816,cs),
(1115,816,ls),
(1592,816,o),
(1626,781,o),
(1626,544,cs),
(1626,444,ls),
(1626,176,o),
(1587,134,o),
(1110,134,cs),
(883,134,ls),
(458,134,o),
(381,169,o),
(369,365,cs),
(366,416,o),
(339,444,o),
(288,444,cs),
(256,444,ls),
(204,444,o),
(174,415,o),
(177,363,cs),
(194,67,o),
(321,-32,o),
(873,-32,cs),
(1120,-32,ls),
(1720,-32,o),
(1818,83,o),
(1818,444,cs),
(1818,544,ls),
(1818,858,o),
(1742,977,o),
(1185,977,cs),
(723,977,ls),
(618,977,o),
(537,964,o),
(476,935,cs),
(421,908,o),
(393,917,o),
(393,979,cs),
(393,1376,l),
(1670,1376,ls),
(1722,1376,o),
(1750,1404,o),
(1750,1456,cs),
(1750,1508,o),
(1722,1536,o),
(1670,1536,cs),
(281,1536,ls),
(229,1536,o),
(201,1508,o),
(201,1456,cs)
);
}
);
width = 1946;
}
);
note = five;
unicode = 53;
},
{
glyphname = six;
lastChange = "2024-09-29 23:01:42 +0000";
layers = (
{
layerId = m01;
shapes = (
{
closed = 1;
nodes = (
(1141,-32,ls),
(1741,-32,o),
(1839,85,o),
(1839,444,cs),
(1839,758,o),
(1763,877,o),
(1206,877,cs),
(678,877,ls),
(515,877,o),
(410,845,o),
(347,772,c),
(347,1122,ls),
(347,1378,o),
(411,1402,o),
(888,1402,cs),
(1106,1402,ls),
(1519,1402,o),
(1598,1391,o),
(1611,1211,cs),
(1614,1159,o),
(1641,1132,o),
(1692,1132,cs),
(1724,1132,ls),
(1776,1132,o),
(1806,1161,o),
(1803,1213,cs),
(1785,1495,o),
(1657,1568,o),
(1116,1568,cs),
(878,1568,ls),
(278,1568,o),
(155,1471,o),
(155,1122,cs),
(155,444,ls),
(155,85,o),
(253,-32,o),
(853,-32,cs)
);
},
{
closed = 1;
nodes = (
(1647,178,o),
(1608,134,o),
(1131,134,cs),
(863,134,ls),
(386,134,o),
(347,178,o),
(347,444,cs),
(347,681,o),
(381,716,o),
(858,716,cs),
(1136,716,ls),
(1613,716,o),
(1647,681,o),
(1647,444,cs)
);
}
);
width = 1948;
}
);
note = six;
unicode = 54;
},
{
glyphname = seven;
lastChange = "2024-09-29 23:02:14 +0000";
layers = (
{
layerId = m01;
shapes = (
{
closed = 1;
nodes = (
(532,98,ls),
(487,46,o),
(509,0,o),
(578,0,cs),
(645,0,ls),
(687,0,o),
(716,13,o),
(743,45,cs),
(1819,1301,ls),
(1845,1331,o),
(1856,1360,o),
(1856,1400,cs),
(1856,1456,ls),
(1856,1508,o),
(1828,1536,o),
(1776,1536,cs),
(208,1536,ls),
(156,1536,o),
(128,1508,o),
(128,1456,cs),
(128,1456,ls),
(128,1404,o),
(156,1376,o),
(208,1376,cs),
(1632,1376,l)
);
}
);
width = 1984;
}
);
note = seven;
unicode = 55;
},
{
glyphname = eight;
layers = (
{
layerId = m01;
shapes = (
{
closed = 1;
nodes = (
(1624,916,o),
(1590,877,o),
(1153,877,cs),
(795,877,ls),
(358,877,o),
(324,916,o),
(324,1132,cs),
(324,1388,o),
(388,1402,o),
(865,1402,cs),
(1083,1402,ls),
(1560,1402,o),
(1624,1388,o),
(1624,1132,cs)
);
},
{
closed = 1;
nodes = (
(132,85,o),
(230,-32,o),
(830,-32,cs),
(1118,-32,ls),
(1718,-32,o),
(1816,85,o),
(1816,444,cs),
(1816,659,o),
(1731,770,o),
(1607,796,c),
(1730,819,o),
(1816,925,o),
(1816,1132,cs),
(1816,1481,o),
(1693,1568,o),
(1093,1568,cs),
(855,1568,ls),
(255,1568,o),
(132,1481,o),
(132,1132,cs),
(132,925,o),
(218,819,o),
(341,796,c),
(217,770,o),
(132,659,o),
(132,444,cs)
);
},
{
closed = 1;
nodes = (
(1624,178,o),
(1585,134,o),
(1108,134,cs),
(840,134,ls),
(363,134,o),
(324,178,o),
(324,444,cs),
(324,681,o),
(358,716,o),
(835,716,cs),
(1113,716,ls),
(1590,716,o),
(1624,681,o),
(1624,444,cs)
);
}
);
width = 1948;
}
);
note = eight;
unicode = 56;
},
{
glyphname = nine;
lastChange = "2024-09-29 23:02:23 +0000";
layers = (
{
layerId = m01;
shapes = (
{
closed = 1;
nodes = (
(1093,-32,ls),
(1693,-32,o),
(1816,75,o),
(1816,424,cs),
(1816,1092,ls),
(1816,1451,o),
(1718,1568,o),
(1118,1568,cs),
(830,1568,ls),
(230,1568,o),
(132,1451,o),
(132,1092,cs),
(132,778,o),
(208,659,o),
(765,659,cs),
(1293,659,ls),
(1456,659,o),
(1561,691,o),
(1624,764,c),
(1624,424,ls),
(1624,168,o),
(1560,134,o),
(1083,134,cs),
(865,134,ls),
(443,134,o),
(364,145,o),
(351,325,cs),
(348,377,o),
(321,404,o),
(270,404,cs),
(238,404,ls),
(186,404,o),
(156,375,o),
(159,323,cs),
(177,41,o),
(305,-32,o),
(855,-32,cs)
);
},
{
closed = 1;
nodes = (
(1624,855,o),
(1590,820,o),
(1113,820,cs),
(835,820,ls),
(358,820,o),
(324,855,o),
(324,1092,cs),
(324,1358,o),
(363,1402,o),
(840,1402,cs),
(1108,1402,ls),
(1585,1402,o),
(1624,1358,o),
(1624,1092,cs)
);
}
);
width = 1984;
}
);
note = nine;
unicode = 57;
},
{
glyphname = one.dnom;
lastChange = "2024-09-29 23:02:43 +0000";
layers = (
{
layerId = m01;
shapes = (
{
closed = 1;
nodes = (
(550,80,ls),
(550,28,o),
(578,0,o),
(630,0,cs),
(662,0,ls),
(714,0,o),
(742,28,o),
(742,80,cs),
(742,1008,ls),
(742,1060,o),
(714,1088,o),
(662,1088,cs),
(543,1088,ls),
(503,1088,o),
(474,1076,o),
(444,1049,cs),
(94,724,ls),
(58,690,o),
(54,651,o),
(84,611,cs),
(86,608,ls),
(116,567,o),
(157,565,o),
(196,601,cs),
(550,928,l)
);
}
);
width = 912;
}
);
note = one.dnom;
},
{
glyphname = two.dnom;
lastChange = "2024-09-29 23:03:41 +0000";
layers = (
{
layerId = m01;
shapes = (
{
closed = 1;
nodes = (
(128,80,ls),
(128,28,o),
(156,0,o),
(208,0,cs),
(1106,0,ls),
(1158,0,o),
(1186,28,o),
(1186,80,cs),
(1186,132,o),
(1158,160,o),
(1106,160,cs),
(320,160,l),
(320,285,o),
(332,307,o),
(416,334,cs),
(446,344,o),
(520,361,o),
(640,385,cs),
(898,436,ls),
(1105,477,o),
(1216,561,o),
(1216,772,cs),
(1216,938,o),
(1186,1025,o),
(1082,1074,cs),
(989,1118,o),
(838,1120,o),
(697,1120,cs),
(565,1121,ls),
(312,1121,o),
(163,1090,o),
(133,884,cs),
(126,830,o),
(158,800,o),
(211,800,cs),
(243,800,ls),
(293,800,o),
(315,828,o),
(325,880,cs),
(334,925,o),
(359,938,o),
(420,948,cs),
(467,956,o),
(537,960,o),
(632,960,cs),
(727,960,o),
(797,958,o),
(842,956,cs),
(964,950,o),
(1024,921,o),
(1024,794,cs),
(1024,642,o),
(971,613,o),
(834,587,cs),
(448,514,ls),
(252,477,o),
(128,433,o),
(128,224,cs)
);
}
);
width = 1344;
}
);
note = two.dnom;
},
{
glyphname = three.dnom;
lastChange = "2024-09-29 23:04:00 +0000";
layers = (
{
layerId = m01;
shapes = (
{
closed = 1;
nodes = (
(723,1,ls),
(1015,1,o),
(1275,1,o),
(1275,291,cs),
(1275,467,o),
(1246,508,o),
(1115,561,c),
(1223,595,o),
(1275,655,o),
(1275,789,cs),
(1275,947,o),
(1244,1040,o),
(1136,1084,cs),
(1042,1123,o),
(871,1121,o),
(771,1121,cs),
(516,1122,ls),
(375,1122,o),
(246,1110,o),
(174,1041,cs),
(138,1007,o),
(115,955,o),
(105,887,cs),
(98,833,o),
(130,803,o),
(183,803,cs),
(216,803,ls),
(266,803,o),
(286,830,o),
(299,881,cs),
(314,937,o),
(351,948,o),
(427,955,cs),
(475,959,o),
(558,961,o),
(637,961,cs),
(903,962,ls),
(1027,962,o),
(1082,934,o),
(1082,811,cs),
(1082,676,o),
(1032,641,o),
(891,641,cs),
(580,641,ls),
(528,641,o),
(500,613,o),
(500,561,cs),
(500,509,o),
(528,481,o),
(580,481,cs),
(891,481,ls),
(1021,481,o),
(1082,451,o),
(1082,331,cs),
(1082,242,o),
(1068,200,o),
(1006,179,cs),
(945,157,o),
(788,161,o),
(603,161,cs),
(565,161,o),
(497,162,o),
(427,167,cs),
(360,172,o),
(321,176,o),
(303,215,cs),
(283,262,o),
(268,288,o),
(219,288,cs),
(183,288,ls),
(130,288,o),
(97,257,o),
(107,204,cs),
(118,147,o),
(140,104,o),
(174,75,cs),
(231,26,o),
(352,0,o),
(537,0,cs)
);
}
);
width = 1403;
}
);
note = three.dnom;
},
{
glyphname = four.dnom;
lastChange = "2024-09-29 23:42:13 +0000";
layers = (
{
layerId = m01;
shapes = (
{
closed = 1;
nodes = (
(912,80,ls),
(912,28,o),
(940,0,o),
(992,0,cs),
(1024,0,ls),
(1076,0,o),
(1104,28,o),
(1104,80,cs),
(1104,242,l),
(1266,242,ls),
(1318,242,o),
(1346,270,o),
(1346,322,cs),
(1346,374,o),
(1318,402,o),
(1266,402,cs),
(1104,402,l),
(1104,1041,ls),
(1104,1093,o),
(1076,1121,o),
(1024,1121,cs),
(905,1121,ls),
(865,1121,o),
(836,1110,o),
(806,1083,cs),
(124,473,ls),
(93,445,o),
(80,416,o),
(80,375,cs),
(80,322,ls),
(80,270,o),
(108,242,o),
(160,242,cs),
(912,242,l)
);
},
{
closed = 1;
nodes = (
(272,402,l),
(912,973,l),
(912,402,l)
);
}
);
width = 1424;
}
);
note = four.dnom;
},
{
glyphname = one.numr;
lastChange = "2024-09-29 23:03:15 +0000";
layers = (
{
layerId = m01;
shapes = (
{
closed = 1;
nodes = (
(550,527,ls),
(550,475,o),
(578,447,o),
(630,447,cs),
(662,447,ls),
(714,447,o),
(742,475,o),
(742,527,cs),
(742,1455,ls),
(742,1507,o),
(714,1535,o),
(662,1535,cs),
(543,1535,ls),
(503,1535,o),
(474,1523,o),
(444,1496,cs),
(94,1171,ls),
(58,1137,o),
(54,1098,o),
(84,1058,cs),
(86,1055,ls),
(116,1014,o),
(157,1012,o),
(196,1048,cs),
(550,1375,l)
);
}
);
width = 912;
}
);
note = one.numr;
},
{
glyphname = two.numr;
layers = (
{
layerId = m01;
shapes = (
{
closed = 1;
nodes = (
(128,450,l),
(1186,450,l),
(1186,610,l),
(320,610,l),
(320,735,o),
(332,757,o),
(416,784,cs),
(446,794,o),
(520,811,o),
(640,835,cs),
(898,886,ls),
(1105,927,o),
(1216,1011,o),
(1216,1222,cs),
(1216,1388,o),
(1186,1475,o),
(1082,1524,cs),
(989,1568,o),
(838,1570,o),
(697,1570,cs),
(652,1570,o),
(608,1571,o),
(565,1571,cs),
(281,1571,o),
(128,1532,o),
(128,1250,c),
(320,1250,l),
(320,1363,o),
(332,1384,o),
(420,1398,cs),
(467,1406,o),
(537,1410,o),
(632,1410,cs),
(727,1410,o),
(797,1408,o),
(842,1406,cs),
(964,1400,o),
(1024,1371,o),
(1024,1244,cs),
(1024,1092,o),
(971,1063,o),
(834,1037,cs),
(448,964,ls),
(252,927,o),
(128,883,o),
(128,674,cs)
);
}
);
width = 1344;
}
);
note = two.numr;
},
{
glyphname = three.numr;
layers = (
{
layerId = m01;
shapes = (
{
closed = 1;
nodes = (
(603,447,o),
(633,448,o),
(723,448,cs),
(1015,448,o),
(1275,448,o),
(1275,738,cs),
(1275,914,o),
(1246,955,o),
(1115,1008,c),
(1223,1042,o),
(1275,1102,o),
(1275,1236,cs),
(1275,1394,o),
(1244,1487,o),
(1136,1531,cs),
(1042,1570,o),
(871,1568,o),
(771,1568,cs),
(634,1568,o),
(600,1569,o),
(516,1569,cs),
(375,1569,o),
(246,1557,o),
(174,1488,cs),
(125,1441,o),
(100,1362,o),
(100,1250,c),
(292,1250,l),
(292,1376,o),
(325,1393,o),
(427,1402,cs),
(475,1406,o),
(558,1408,o),
(637,1408,cs),
(766,1408,o),
(841,1409,o),
(903,1409,cs),
(1027,1409,o),
(1082,1381,o),
(1082,1258,cs),
(1082,1123,o),
(1032,1088,o),
(891,1088,cs),
(500,1088,l),
(500,928,l),
(891,928,ls),
(1021,928,o),
(1082,898,o),
(1082,778,cs),
(1082,689,o),
(1068,647,o),
(1006,626,cs),
(945,604,o),
(788,608,o),
(603,608,cs),
(565,608,o),
(497,609,o),
(427,614,cs),
(330,621,o),
(292,627,o),
(292,735,c),
(100,735,l),
(100,635,o),
(125,564,o),
(174,522,cs),
(231,473,o),
(352,447,o),
(537,447,cs)
);
}
);
width = 1403;
}
);
note = three.numr;
},
{
glyphname = four.numr;
lastChange = "2024-09-29 23:04:30 +0000";
layers = (
{
layerId = m01;
shapes = (
{
closed = 1;
nodes = (
(912,530,ls),
(912,478,o),
(940,450,o),
(992,450,cs),
(1024,450,ls),
(1076,450,o),
(1104,478,o),
(1104,530,cs),
(1104,692,l),
(1266,692,ls),
(1318,692,o),
(1346,720,o),
(1346,772,cs),
(1346,772,ls),
(1346,824,o),
(1318,852,o),
(1266,852,cs),
(1104,852,l),
(1104,1491,ls),
(1104,1543,o),
(1076,1571,o),
(1024,1571,cs),
(905,1571,ls),
(865,1571,o),
(836,1560,o),
(806,1533,cs),
(124,923,ls),
(93,895,o),
(80,866,o),
(80,825,cs),
(80,772,ls),
(80,720,o),
(108,692,o),
(160,692,cs),
(912,692,l)
);
},
{
closed = 1;
nodes = (
(272,852,l),
(912,1423,l),
(912,852,l)
);
}
);
width = 1424;
}
);
note = four.numr;
},
{
glyphname = fraction;
lastChange = "2024-09-29 23:04:48 +0000";
layers = (
{
layerId = m01;
shapes = (
{
closed = 1;
nodes = (
(-60,94,ls),
(-85,39,o),
(-61,0,o),
(0,0,cs),
(23,0,ls),
(68,0,o),
(97,18,o),
(116,60,cs),
(750,1442,ls),
(775,1497,o),
(751,1536,o),
(690,1536,cs),
(667,1536,ls),
(622,1536,o),
(593,1518,o),
(574,1476,cs)
);
}
);
width = 690;
}
);
note = fraction;
unicode = 8260;
},
{
glyphname = onequarter;
lastChange = "2024-09-29 23:43:51 +0000";
layers = (
{
layerId = m01;
shapes = (
{
ref = one.numr;
},
{
pos = (912,0);
ref = fraction;
},
{
closed = 1;
nodes = (
(2354,80,ls),
(2354,28,o),
(2382,0,o),
(2434,0,cs),
(2466,0,ls),
(2518,0,o),
(2546,28,o),
(2546,80,cs),
(2546,242,l),
(2708,242,ls),
(2760,242,o),
(2788,270,o),
(2788,322,cs),
(2788,374,o),
(2760,402,o),
(2708,402,cs),
(2546,402,l),
(2546,1041,ls),
(2546,1093,o),
(2518,1121,o),
(2466,1121,cs),
(2347,1121,ls),
(2307,1121,o),
(2278,1110,o),
(2248,1083,cs),
(1566,473,ls),
(1535,445,o),
(1522,416,o),
(1522,375,cs),
(1522,322,ls),
(1522,270,o),
(1550,242,o),
(1602,242,cs),
(2354,242,l)
);
},
{
closed = 1;
nodes = (
(1714,402,l),
(2354,973,l),
(2354,402,l)
);
}
);
width = 2866;
}
);
metricLeft = one.numr;
unicode = 188;
},
{
glyphname = threequarters;
lastChange = "2024-09-29 23:43:46 +0000";
layers = (
{
layerId = m01;
shapes = (
{
ref = three.numr;
},
{
pos = (1403,0);
ref = fraction;
},
{
closed = 1;
nodes = (
(2845,80,ls),
(2845,28,o),
(2873,0,o),
(2925,0,cs),
(2957,0,ls),
(3009,0,o),
(3037,28,o),
(3037,80,cs),
(3037,242,l),
(3199,242,ls),
(3251,242,o),
(3279,270,o),
(3279,322,cs),
(3279,374,o),
(3251,402,o),
(3199,402,cs),
(3037,402,l),
(3037,1041,ls),
(3037,1093,o),
(3009,1121,o),
(2957,1121,cs),
(2838,1121,ls),
(2798,1121,o),
(2769,1110,o),
(2739,1083,cs),
(2057,473,ls),
(2026,445,o),
(2013,416,o),
(2013,375,cs),
(2013,322,ls),
(2013,270,o),
(2041,242,o),
(2093,242,cs),
(2845,242,l)
);
},
{
closed = 1;
nodes = (
(2205,402,l),
(2845,973,l),
(2845,402,l)
);
}
);
width = 3357;
}
);
metricLeft = three.numr;
unicode = 190;
},
{
glyphname = period;
lastChange = "2024-09-29 23:05:20 +0000";
layers = (
{
layerId = m01;
shapes = (
{
closed = 1;
nodes = (
(128,80,ls),
(128,28,o),
(156,0,o),
(208,0,cs),
(240,0,ls),
(292,0,o),
(320,28,o),
(320,80,cs),
(320,112,ls),
(320,164,o),
(292,192,o),
(240,192,cs),
(208,192,ls),
(156,192,o),
(128,164,o),
(128,112,cs)
);
}
);
width = 448;
}
);
note = period;
unicode = 46;
},
{
glyphname = comma;
lastChange = "2024-09-29 23:05:30 +0000";
layers = (
{
layerId = m01;
shapes = (
{
closed = 1;
nodes = (
(78,-170,ls),
(69,-225,o),
(88,-256,o),
(128,-256,cs),
(128,-256,ls),
(171,-256,o),
(199,-236,o),
(214,-191,cs),
(290,37,ls),
(308,92,o),
(282,128,o),
(224,128,cs),
(202,128,ls),
(153,128,o),
(124,103,o),
(116,55,cs)
);
}
);
width = 448;
}
);
note = comma;
unicode = 44;
},
{
glyphname = colon;
lastChange = "2024-09-29 23:05:35 +0000";
layers = (
{
layerId = m01;
shapes = (
{
closed = 1;
nodes = (
(128,848,ls),
(128,796,o),
(156,768,o),
(208,768,cs),
(240,768,ls),
(292,768,o),
(320,796,o),
(320,848,cs),
(320,880,ls),
(320,932,o),
(292,960,o),
(240,960,cs),
(208,960,ls),
(156,960,o),
(128,932,o),
(128,880,cs)
);
},
{
closed = 1;
nodes = (
(128,272,ls),
(128,220,o),
(156,192,o),
(208,192,cs),
(240,192,ls),
(292,192,o),
(320,220,o),
(320,272,cs),
(320,304,ls),
(320,356,o),
(292,384,o),
(240,384,cs),
(208,384,ls),
(156,384,o),
(128,356,o),
(128,304,cs)
);
}
);
width = 448;
}
);
note = colon;
unicode = 58;
},
{
glyphname = semicolon;
lastChange = "2024-09-29 23:05:41 +0000";
layers = (
{
layerId = m01;
shapes = (
{
closed = 1;
nodes = (
(128,848,ls),
(128,796,o),
(156,768,o),
(208,768,cs),
(240,768,ls),
(292,768,o),
(320,796,o),
(320,848,cs),
(320,880,ls),
(320,932,o),
(292,960,o),
(240,960,cs),
(208,960,ls),
(156,960,o),
(128,932,o),
(128,880,cs)
);
},
{
closed = 1;
nodes = (
(78,214,ls),
(69,159,o),
(88,128,o),
(128,128,cs),
(128,128,ls),
(171,128,o),
(199,148,o),
(214,193,cs),
(290,421,ls),
(308,476,o),
(282,512,o),
(224,512,cs),
(202,512,ls),
(153,512,o),
(124,487,o),
(116,439,cs)
);
}
);
width = 448;
}
);
note = semicolon;
unicode = 59;
},
{
glyphname = ellipsis;
lastChange = "2024-09-29 23:05:47 +0000";
layers = (
{
layerId = m01;
shapes = (
{
closed = 1;
nodes = (
(1024,80,ls),
(1024,28,o),
(1052,0,o),
(1104,0,cs),
(1136,0,ls),
(1188,0,o),
(1216,28,o),
(1216,80,cs),
(1216,112,ls),
(1216,164,o),
(1188,192,o),
(1136,192,cs),
(1104,192,ls),
(1052,192,o),
(1024,164,o),
(1024,112,cs)
);
},
{
closed = 1;
nodes = (
(576,80,ls),
(576,28,o),
(604,0,o),
(656,0,cs),
(688,0,ls),
(740,0,o),
(768,28,o),
(768,80,cs),
(768,112,ls),
(768,164,o),
(740,192,o),
(688,192,cs),
(656,192,ls),
(604,192,o),
(576,164,o),
(576,112,cs)
);
},
{
closed = 1;
nodes = (
(128,80,ls),
(128,28,o),
(156,0,o),
(208,0,cs),
(240,0,ls),
(292,0,o),
(320,28,o),
(320,80,cs),
(320,112,ls),
(320,164,o),
(292,192,o),
(240,192,cs),
(208,192,ls),
(156,192,o),
(128,164,o),
(128,112,cs)
);
}
);
width = 1344;
}
);
note = ellipsis;
unicode = 8230;
},
{
glyphname = exclam;
lastChange = "2024-09-29 23:06:48 +0000";
layers = (
{
layerId = m01;
shapes = (
{
closed = 1;
nodes = (
(205,527,ls),
(206,476,o),
(234,448,o),
(284,448,cs),
(334,448,o),
(362,476,o),
(363,527,cs),
(379,1455,ls),
(380,1508,o),
(351,1536,o),
(299,1536,cs),
(269,1536,ls),
(217,1536,o),
(188,1508,o),
(189,1455,cs)
);
},
{
closed = 1;
nodes = (
(188,80,ls),
(188,28,o),
(216,0,o),
(268,0,cs),
(300,0,ls),
(352,0,o),
(380,28,o),
(380,80,cs),
(380,112,ls),
(380,164,o),
(352,192,o),
(300,192,cs),
(268,192,ls),
(216,192,o),
(188,164,o),
(188,112,cs)
);
}
);
width = 568;
}
);
note = exclam;
unicode = 33;
},
{
glyphname = exclamdown;
lastChange = "2024-09-29 23:06:44 +0000";
layers = (
{
layerId = m01;
shapes = (
{
closed = 1;
nodes = (
(268,1249,ls),
(216,1249,o),
(188,1221,o),
(188,1169,cs),
(188,1137,ls),
(188,1085,o),
(216,1057,o),
(268,1057,cs),
(300,1057,ls),
(352,1057,o),
(380,1085,o),
(380,1137,cs),
(380,1169,ls),
(380,1221,o),
(352,1249,o),
(300,1249,cs)
);
},
{
closed = 1;
nodes = (
(234,801,o),
(206,773,o),
(205,722,cs),
(189,-206,ls),
(188,-259,o),
(217,-287,o),
(269,-287,cs),
(299,-287,ls),
(351,-287,o),
(380,-259,o),
(379,-206,cs),
(363,722,ls),
(362,773,o),
(334,801,o),
(284,801,cs)
);
}
);
width = 568;
}
);
note = exclamdown;
unicode = 161;
},
{
glyphname = question;
lastChange = "2024-09-29 23:07:03 +0000";
layers = (
{
layerId = m01;
shapes = (
{
closed = 1;
nodes = (
(681,401,ls),
(681,349,o),
(709,321,o),
(761,321,cs),
(793,321,ls),
(845,321,o),
(873,349,o),
(873,401,cs),
(873,474,ls),
(874,719,o),
(879,736,o),
(1060,736,cs),
(1211,736,ls),
(1606,736,o),
(1654,890,o),
(1654,1153,cs),
(1654,1543,o),
(1397,1568,o),
(985,1568,cs),
(480,1568,o),
(247,1561,o),
(218,1205,cs),
(214,1151,o),
(245,1122,o),
(297,1122,cs),
(328,1122,ls),
(379,1122,o),
(405,1149,o),
(409,1200,cs),
(423,1387,o),
(513,1408,o),
(985,1408,cs),
(1357,1408,o),
(1462,1393,o),
(1462,1153,cs),
(1462,943,o),
(1420,895,o),
(1211,895,cs),
(1060,895,ls),
(724,895,o),
(681,836,o),
(681,474,cs)
);
},
{
closed = 1;
nodes = (
(681,80,ls),
(681,28,o),
(709,0,o),
(761,0,cs),
(793,0,ls),
(845,0,o),
(873,28,o),
(873,80,cs),
(873,112,ls),
(873,164,o),
(845,192,o),
(793,192,cs),
(761,192,ls),
(709,192,o),
(681,164,o),
(681,112,cs)
);
}
);
width = 1853;
}
);
note = question;
unicode = 63;
},
{
glyphname = questiondown;
lastChange = "2024-09-29 23:07:18 +0000";
layers = (
{
layerId = m01;
shapes = (
{
closed = 1;
nodes = (
(1191,1131,ls),
(1191,1183,o),
(1163,1211,o),
(1111,1211,cs),
(1079,1211,ls),
(1027,1211,o),
(999,1183,o),
(999,1131,cs),
(999,1099,ls),
(999,1047,o),
(1027,1019,o),
(1079,1019,cs),
(1111,1019,ls),
(1163,1019,o),
(1191,1047,o),
(1191,1099,cs)
);
},
{
closed = 1;
nodes = (
(1191,810,ls),
(1191,862,o),
(1163,890,o),
(1111,890,cs),
(1079,890,ls),
(1027,890,o),
(999,862,o),
(999,810,cs),
(999,737,ls),
(998,492,o),
(993,475,o),
(812,475,cs),
(661,475,ls),
(266,475,o),
(218,321,o),
(218,58,cs),
(218,-332,o),
(475,-357,o),
(887,-357,cs),
(1392,-357,o),
(1625,-350,o),
(1654,6,cs),
(1658,60,o),
(1627,89,o),
(1575,89,cs),
(1544,89,ls),
(1493,89,o),
(1467,62,o),
(1463,11,cs),
(1449,-176,o),
(1359,-197,o),
(887,-197,cs),
(515,-197,o),
(410,-182,o),
(410,58,cs),
(410,268,o),
(452,316,o),
(661,316,cs),
(812,316,ls),
(1148,316,o),
(1191,375,o),
(1191,737,cs)
);
}
);
width = 1853;
}
);
note = questiondown;
unicode = 191;
},
{
glyphname = periodcentered;
lastChange = "2024-09-29 23:07:25 +0000";
layers = (
{
layerId = m01;
shapes = (
{
closed = 1;
nodes = (
(128,784,ls),
(128,732,o),
(156,704,o),
(208,704,cs),
(240,704,ls),
(292,704,o),
(320,732,o),
(320,784,cs),
(320,816,ls),
(320,868,o),
(292,896,o),
(240,896,cs),
(208,896,ls),
(156,896,o),
(128,868,o),
(128,816,cs)
);
}
);
width = 448;
}
);
note = periodcentered;
unicode = 183;
},
{
glyphname = bullet;
layers = (
{
layerId = m01;
shapes = (
{
closed = 1;
nodes = (
(805,256,o),
(896,342,o),
(896,512,cs),
(896,683,o),
(810,768,o),
(640,768,cs),
(469,768,o),
(384,683,o),
(384,512,cs),
(384,340,o),
(470,256,o),
(640,256,cs)
);
}
);
width = 1280;
}
);
note = bullet;
unicode = 8226;
},
{
glyphname = asterisk;
lastChange = "2024-09-29 23:10:00 +0000";
layers = (
{
layerId = m01;
shapes = (
{
closed = 1;
nodes = (
(323,432,ls),
(366,402,o),
(406,409,o),
(434,453,cs),
(678,834,l),
(922,453,ls),
(950,409,o),
(990,402,o),
(1033,432,cs),
(1053,446,ls),
(1098,478,o),
(1101,518,o),
(1065,558,cs),
(758,896,l),
(1174,1043,ls),
(1227,1062,o),
(1241,1100,o),
(1214,1149,cs),
(1197,1179,ls),
(1171,1224,o),
(1132,1235,o),
(1087,1208,cs),
(726,992,l),
(767,1453,ls),
(772,1507,o),
(743,1536,o),
(690,1536,cs),
(666,1536,ls),
(613,1536,o),
(584,1507,o),
(589,1453,cs),
(630,992,l),
(268,1208,ls),
(223,1235,o),
(184,1224,o),
(158,1179,cs),
(141,1149,ls),
(114,1100,o),
(128,1062,o),
(181,1043,cs),
(598,896,l),
(291,558,ls),
(255,518,o),
(258,478,o),
(303,446,cs)
);
}
);
width = 1355;
}
);
note = asterisk;
unicode = 42;
},
{
glyphname = numbersign;
lastChange = "2024-09-29 23:10:19 +0000";
layers = (
{
layerId = m01;
shapes = (
{
closed = 1;
nodes = (
(233,-16,ls),
(220,-71,o),
(247,-104,o),
(303,-104,cs),
(306,-104,ls),
(354,-104,o),
(384,-80,o),
(395,-34,cs),
(509,448,l),
(962,448,l),
(853,-16,ls),
(840,-71,o),
(867,-104,o),
(923,-104,cs),
(926,-104,ls),
(974,-104,o),
(1004,-80,o),
(1015,-34,cs),
(1129,448,l),
(1341,448,ls),
(1393,448,o),
(1421,473,o),
(1421,518,cs),
(1421,563,o),
(1393,588,o),
(1341,588,cs),
(1162,588,l),
(1263,1012,l),
(1445,1012,ls),
(1497,1012,o),
(1525,1037,o),
(1525,1082,cs),
(1525,1127,o),
(1497,1152,o),
(1445,1152,cs),
(1296,1152,l),
(1366,1448,ls),
(1379,1503,o),
(1352,1536,o),
(1296,1536,cs),
(1289,1536,ls),
(1241,1536,o),
(1212,1513,o),
(1201,1466,cs),
(1127,1152,l),
(676,1152,l),
(746,1448,ls),
(759,1503,o),
(732,1536,o),
(676,1536,cs),
(669,1536,ls),
(621,1536,o),
(592,1513,o),
(581,1466,cs),
(507,1152,l),
(289,1152,ls),
(237,1152,o),
(209,1127,o),
(209,1082,cs),
(209,1037,o),
(237,1012,o),
(289,1012,cs),
(474,1012,l),
(374,588,l),
(185,588,ls),
(133,588,o),
(105,563,o),
(105,518,cs),
(105,473,o),
(133,448,o),
(185,448,cs),
(342,448,l)
);
},
{
closed = 1;
nodes = (
(542,588,l),
(643,1012,l),
(1094,1012,l),
(994,588,l)
);
}
);
width = 1536;
}
);
note = numbersign;
unicode = 35;
},
{
glyphname = slash;
lastChange = "2024-09-29 23:10:32 +0000";
layers = (
{
layerId = m01;
shapes = (
{
closed = 1;
nodes = (
(74,94,ls),
(49,39,o),
(73,0,o),
(134,0,cs),
(157,0,ls),
(202,0,o),
(231,18,o),
(250,60,cs),
(884,1442,ls),
(909,1497,o),
(885,1536,o),
(824,1536,cs),
(801,1536,ls),
(756,1536,o),
(727,1518,o),
(708,1476,cs)
);
}
);
width = 957;
}
);
note = slash;
unicode = 47;
},
{
glyphname = backslash;
lastChange = "2024-09-29 23:10:49 +0000";
layers = (
{
layerId = m01;
shapes = (
{
closed = 1;
nodes = (
(708,60,ls),
(727,18,o),
(756,0,o),
(801,0,cs),
(831,0,ls),
(888,0,o),
(909,39,o),
(884,94,cs),
(250,1476,ls),
(231,1518,o),
(202,1536,o),
(157,1536,cs),
(127,1536,ls),
(70,1536,o),
(49,1497,o),
(74,1442,cs)
);
}
);
width = 957;
}
);
note = backslash;
unicode = 92;
},
{
glyphname = hyphen;
lastChange = "2024-09-29 23:23:28 +0000";
layers = (
{
layerId = m01;
shapes = (
{
closed = 1;
nodes = (
(128,540,o),
(156,512,o),
(208,512,cs),
(816,512,ls),
(868,512,o),
(896,540,o),
(896,592,cs),
(896,644,o),
(868,672,o),
(816,672,cs),
(208,672,ls),
(156,672,o),
(128,644,o),
(128,592,cs)
);
}
);
width = 1024;
}
);
note = hyphen;
unicode = 45;
},
{
glyphname = endash;
lastChange = "2024-09-29 23:23:21 +0000";
layers = (
{
layerId = m01;
shapes = (
{
closed = 1;
nodes = (
(128,540,o),
(156,512,o),
(208,512,cs),
(880,512,ls),
(932,512,o),
(960,540,o),
(960,592,cs),
(960,644,o),
(932,672,o),
(880,672,cs),
(208,672,ls),
(156,672,o),
(128,644,o),
(128,592,cs)
);
}
);
width = 1088;
}
);
note = endash;
unicode = 8211;
},
{
glyphname = emdash;
lastChange = "2024-09-29 23:14:37 +0000";
layers = (
{
layerId = m01;
shapes = (
{
closed = 1;
nodes = (
(0,540,o),
(28,512,o),
(80,512,cs),
(1076,512,ls),
(1128,512,o),
(1156,540,o),
(1156,592,cs),
(1156,644,o),
(1128,672,o),
(1076,672,cs),
(80,672,ls),
(28,672,o),
(0,644,o),
(0,592,cs)
);
}
);
width = 1156;
}
);
note = emdash;
unicode = 8212;
},
{
glyphname = underscore;
lastChange = "2024-09-29 23:23:35 +0000";
layers = (
{
layerId = m01;
shapes = (
{
closed = 1;
nodes = (
(0,-132,o),
(28,-160,o),
(80,-160,cs),
(1008,-160,ls),
(1060,-160,o),
(1088,-132,o),
(1088,-80,cs),
(1088,-28,o),
(1060,0,o),
(1008,0,cs),
(80,0,ls),
(28,0,o),
(0,-28,o),
(0,-80,cs)
);
}
);
width = 1088;
}
);
note = underscore;
unicode = 95;
},
{
glyphname = parenleft;
lastChange = "2024-09-29 23:15:00 +0000";
layers = (
{
layerId = m01;
shapes = (
{
closed = 1;
nodes = (
(640,-149,ls),
(640,-99,o),
(613,-74,o),
(562,-67,cs),
(401,-42,o),
(350,65,o),
(330,240,cs),
(323,298,o),
(320,418,o),
(320,680,cs),
(320,755,o),
(321,904,o),
(322,966,cs),
(325,1166,o),
(356,1297,o),
(414,1358,cs),
(448,1394,o),
(497,1417,o),
(562,1427,cs),
(613,1434,o),
(640,1459,o),
(640,1509,cs),
(640,1512,ls),
(640,1563,o),
(610,1593,o),
(557,1588,cs),
(439,1575,o),
(347,1533,o),
(280,1462,cs),
(202,1379,o),
(166,1272,o),
(144,1130,cs),
(133,1057,o),
(128,854,o),
(128,680,cs),
(128,616,o),
(128,471,o),
(130,405,cs),
(134,259,o),
(155,138,o),
(192,40,cs),
(252,-118,o),
(374,-208,o),
(557,-228,cs),
(610,-233,o),
(640,-203,o),
(640,-152,cs)
);
}
);
width = 768;
}
);
note = parenleft;
unicode = 40;
},
{
glyphname = parenright;
lastChange = "2024-09-29 23:15:08 +0000";
layers = (
{
layerId = m01;
shapes = (
{
closed = 1;
nodes = (
(128,-150,ls),
(128,-203,o),
(158,-233,o),
(211,-228,cs),
(394,-208,o),
(516,-118,o),
(576,40,cs),
(613,138,o),
(634,259,o),
(638,405,cs),
(640,471,o),
(640,616,o),
(640,680,cs),
(640,854,o),
(635,1057,o),
(624,1130,cs),
(602,1272,o),
(566,1379,o),
(488,1462,cs),
(421,1533,o),
(329,1575,o),
(211,1588,cs),
(158,1593,o),
(128,1563,o),
(128,1510,cs),
(128,1509,ls),
(128,1459,o),
(155,1434,o),
(206,1427,cs),
(271,1417,o),
(320,1394,o),
(354,1358,cs),
(412,1297,o),
(443,1166,o),
(446,966,cs),
(447,904,o),
(448,755,o),
(448,680,cs),
(448,418,o),
(445,298,o),
(438,240,cs),
(418,65,o),
(367,-42,o),
(206,-67,cs),
(155,-74,o),
(128,-99,o),
(128,-149,cs)
);
}
);
width = 768;
}
);
note = parenright;
unicode = 41;
},
{
glyphname = braceleft;
lastChange = "2024-09-29 23:15:19 +0000";
layers = (
{
layerId = m01;
shapes = (
{
closed = 1;
nodes = (
(832,-152,ls),
(832,-100,o),
(802,-72,o),
(747,-72,cs),
(524,-70,o),
(510,-49,o),
(510,143,cs),
(510,508,ls),
(510,603,o),
(493,680,o),
(384,680,c),
(493,680,o),
(510,757,o),
(510,852,cs),
(510,1217,ls),
(510,1409,o),
(524,1430,o),
(747,1432,cs),
(802,1432,o),
(832,1460,o),
(832,1512,cs),
(832,1512,ls),
(832,1564,o),
(803,1592,o),
(749,1591,cs),
(419,1585,o),
(320,1531,o),
(320,1237,cs),
(320,855,ls),
(320,777,o),
(312,763,o),
(214,761,cs),
(158,759,o),
(128,731,o),
(128,680,cs),
(128,680,ls),
(128,629,o),
(158,601,o),
(214,599,cs),
(312,597,o),
(320,583,o),
(320,505,cs),
(320,123,ls),
(320,-171,o),
(419,-225,o),
(749,-231,cs),
(803,-232,o),
(832,-204,o),
(832,-152,cs)
);
}
);
width = 960;
}
);
note = braceleft;
unicode = 123;
},
{
glyphname = braceright;
lastChange = "2024-09-29 23:15:27 +0000";
layers = (
{
layerId = m01;
shapes = (
{
closed = 1;
nodes = (
(128,-152,ls),
(128,-204,o),
(157,-232,o),
(211,-231,cs),
(541,-225,o),
(640,-171,o),
(640,123,cs),
(640,505,ls),
(640,583,o),
(648,597,o),
(746,599,cs),
(802,601,o),
(832,629,o),
(832,680,cs),
(832,680,ls),
(832,731,o),
(802,759,o),
(746,761,cs),
(648,763,o),
(640,777,o),
(640,855,cs),
(640,1237,ls),
(640,1531,o),
(541,1585,o),
(211,1591,cs),
(157,1592,o),
(128,1564,o),
(128,1512,cs),
(128,1512,ls),
(128,1460,o),
(158,1432,o),
(213,1432,cs),
(436,1430,o),
(450,1409,o),
(450,1217,cs),
(450,852,ls),
(450,757,o),
(467,680,o),
(576,680,c),
(467,680,o),
(450,603,o),
(450,508,cs),
(450,143,ls),
(450,-49,o),
(436,-70,o),
(213,-72,cs),
(158,-72,o),
(128,-100,o),
(128,-152,cs)
);
}
);
width = 960;
}
);
note = braceright;
unicode = 125;
},
{
glyphname = bracketleft;
lastChange = "2024-09-29 23:15:55 +0000";
layers = (
{
layerId = m01;
shapes = (
{
closed = 1;
nodes = (
(128,-122,ls),
(128,-174,o),
(156,-202,o),
(208,-202,cs),
(624,-202,ls),
(676,-202,o),
(704,-174,o),
(704,-122,cs),
(704,-70,o),
(676,-42,o),
(624,-42,cs),
(320,-42,l),
(320,1432,l),
(624,1432,ls),
(676,1432,o),
(704,1460,o),
(704,1512,cs),
(704,1564,o),
(676,1592,o),
(624,1592,cs),
(208,1592,ls),
(156,1592,o),
(128,1564,o),
(128,1512,cs)
);
}
);
width = 832;
}
);
note = bracketleft;
unicode = 91;
},
{
glyphname = bracketright;
lastChange = "2024-09-29 23:15:49 +0000";
layers = (
{
layerId = m01;
shapes = (
{
closed = 1;
nodes = (
(624,-202,ls),
(676,-202,o),
(704,-174,o),
(704,-122,cs),
(704,1512,ls),
(704,1564,o),
(676,1592,o),
(624,1592,cs),
(208,1592,ls),
(156,1592,o),
(128,1564,o),
(128,1512,cs),
(128,1460,o),
(156,1432,o),
(208,1432,cs),
(512,1432,l),
(512,-42,l),
(208,-42,ls),
(156,-42,o),
(128,-70,o),
(128,-122,cs),
(128,-174,o),
(156,-202,o),
(208,-202,cs)
);
}
);
width = 832;
}
);
note = bracketright;
unicode = 93;
},
{
glyphname = quotesinglbase;
lastChange = "2024-09-29 23:16:37 +0000";
layers = (
{
layerId = m01;
shapes = (
{
closed = 1;
nodes = (
(66,-170,ls),
(57,-225,o),
(76,-256,o),
(116,-256,cs),
(116,-256,ls),
(159,-256,o),
(187,-236,o),
(202,-191,cs),
(278,37,ls),
(296,92,o),
(270,128,o),
(212,128,cs),
(190,128,ls),
(141,128,o),
(112,103,o),
(104,55,cs)
);
}
);
width = 412;
}
);
note = quotesinglbase;
unicode = 8218;
},
{
glyphname = quotedblbase;
lastChange = "2024-09-29 23:16:29 +0000";
layers = (
{
layerId = m01;
shapes = (
{
closed = 1;
nodes = (
(450,-106,ls),
(441,-161,o),
(460,-192,o),
(500,-192,cs),
(500,-192,ls),
(543,-192,o),
(571,-172,o),
(586,-127,cs),
(662,101,ls),
(680,156,o),
(654,192,o),
(596,192,cs),
(574,192,ls),
(525,192,o),
(496,167,o),
(488,119,cs)
);
},
{
closed = 1;
nodes = (
(130,-106,ls),
(121,-161,o),
(140,-192,o),
(180,-192,cs),
(180,-192,ls),
(223,-192,o),
(251,-172,o),
(266,-127,cs),
(342,101,ls),
(360,156,o),
(334,192,o),
(276,192,cs),
(254,192,ls),
(205,192,o),
(176,167,o),
(168,119,cs)
);
}
);
width = 796;
}
);
note = quotedblbase;
unicode = 8222;
},
{
glyphname = quotedblleft;
lastChange = "2024-09-29 23:17:18 +0000";
layers = (
{
layerId = m01;
shapes = (
{
closed = 1;
nodes = (
(305,1511,o),
(276,1536,o),
(227,1536,cs),
(205,1536,ls),
(147,1536,o),
(121,1500,o),
(139,1445,cs),
(215,1217,ls),
(230,1172,o),
(258,1152,o),
(301,1152,cs),
(341,1152,o),
(360,1183,o),
(351,1238,cs),
(313,1463,ls)
);
},
{
closed = 1;
nodes = (
(561,1511,o),
(532,1536,o),
(483,1536,cs),
(461,1536,ls),
(403,1536,o),
(377,1500,o),
(395,1445,cs),
(471,1217,ls),
(486,1172,o),
(514,1152,o),
(557,1152,cs),
(597,1152,o),
(616,1183,o),
(607,1238,cs),
(569,1463,ls)
);
}
);
width = 732;
}
);
note = quotedblleft;
unicode = 8220;
},
{
glyphname = quotedblright;
lastChange = "2024-09-29 23:17:14 +0000";
layers = (
{
layerId = m01;
shapes = (
{
closed = 1;
nodes = (
(450,1238,ls),
(441,1183,o),
(460,1152,o),
(500,1152,cs),
(543,1152,o),
(571,1172,o),
(586,1217,cs),
(662,1445,ls),
(680,1500,o),
(654,1536,o),
(596,1536,cs),
(574,1536,ls),
(525,1536,o),
(496,1511,o),
(488,1463,cs)
);
},
{
closed = 1;
nodes = (
(130,1238,ls),
(121,1183,o),
(140,1152,o),
(180,1152,cs),
(223,1152,o),
(251,1172,o),
(266,1217,cs),
(342,1445,ls),
(360,1500,o),
(334,1536,o),
(276,1536,cs),
(254,1536,ls),
(205,1536,o),
(176,1511,o),
(168,1463,cs)
);
}
);
width = 796;
}
);
note = quotedblright;
unicode = 8221;
},
{
glyphname = quoteleft;
lastChange = "2024-09-29 23:17:32 +0000";
layers = (
{
layerId = m01;
shapes = (
{
closed = 1;
nodes = (
(300,1511,o),
(271,1536,o),
(222,1536,cs),
(200,1536,ls),
(142,1536,o),
(116,1500,o),
(134,1445,cs),
(210,1217,ls),
(225,1172,o),
(253,1152,o),
(296,1152,cs),
(296,1152,ls),
(336,1152,o),
(355,1183,o),
(346,1238,cs),
(308,1463,ls)
);
}
);
width = 476;
}
);
note = quoteleft;
unicode = 8216;
},
{
glyphname = quoteright;
lastChange = "2024-09-29 23:17:42 +0000";
layers = (
{
layerId = m01;
shapes = (
{
closed = 1;
nodes = (
(130,1238,ls),
(121,1183,o),
(140,1152,o),
(180,1152,cs),
(180,1152,ls),
(223,1152,o),
(251,1172,o),
(266,1217,cs),
(342,1445,ls),
(360,1500,o),
(334,1536,o),
(276,1536,cs),
(254,1536,ls),
(205,1536,o),
(176,1511,o),
(168,1463,cs)
);
}
);
width = 476;
}
);
note = quoteright;
unicode = 8217;
},
{
glyphname = guilsinglleft;
lastChange = "2024-09-29 23:18:20 +0000";
layers = (
{
layerId = m01;
shapes = (
{
closed = 1;
nodes = (
(608,174,ls),
(650,145,o),
(688,149,o),
(719,191,cs),
(720,192,ls),
(751,234,o),
(744,272,o),
(701,302,cs),
(256,608,l),
(701,914,ls),
(744,944,o),
(750,983,o),
(719,1025,cs),
(719,1025,ls),
(688,1067,o),
(650,1071,o),
(608,1042,cs),
(178,739,ls),
(143,714,o),
(128,686,o),
(128,643,cs),
(128,573,ls),
(128,530,o),
(143,502,o),
(178,477,cs)
);
}
);
width = 867;
}
);
note = guilsinglleft;
unicode = 8249;
},
{
glyphname = guilsinglright;
lastChange = "2024-09-29 23:18:31 +0000";
layers = (
{
layerId = m01;
shapes = (
{
closed = 1;
nodes = (
(148,191,ls),
(179,149,o),
(217,145,o),
(259,174,cs),
(689,477,ls),
(724,502,o),
(739,530,o),
(739,573,cs),
(739,643,ls),
(739,686,o),
(724,714,o),
(689,739,cs),
(259,1043,ls),
(217,1072,o),
(179,1067,o),
(148,1025,cs),
(147,1024,ls),
(116,982,o),
(123,944,o),
(166,914,cs),
(611,608,l),
(166,302,ls),
(123,272,o),
(116,234,o),
(147,192,cs)
);
}
);
width = 867;
}
);
note = guilsinglright;
unicode = 8250;
},
{
glyphname = quotedbl;
lastChange = "2024-09-29 23:18:42 +0000";
layers = (
{
layerId = m01;
shapes = (
{
closed = 1;
nodes = (
(467,1229,ls),
(471,1178,o),
(495,1152,o),
(537,1152,cs),
(537,1152,ls),
(579,1152,o),
(603,1178,o),
(607,1229,cs),
(626,1453,ls),
(630,1507,o),
(602,1536,o),
(549,1536,cs),
(525,1536,ls),
(472,1536,o),
(444,1507,o),
(448,1453,cs)
);
},
{
closed = 1;
nodes = (
(147,1229,ls),
(151,1178,o),
(175,1152,o),
(217,1152,cs),
(217,1152,ls),
(259,1152,o),
(283,1178,o),
(287,1229,cs),
(306,1453,ls),
(310,1507,o),
(282,1536,o),
(229,1536,cs),
(205,1536,ls),
(152,1536,o),
(124,1507,o),
(128,1453,cs)
);
}
);
width = 754;
}
);
note = quotedbl;
unicode = 34;
},
{
glyphname = quotesingle;
lastChange = "2024-09-30 05:20:34 +0000";
layers = (
{
layerId = m01;
shapes = (
{
closed = 1;
nodes = (
(154,1229,ls),
(158,1178,o),
(182,1152,o),
(224,1152,cs),
(224,1152,ls),
(266,1152,o),
(290,1178,o),
(294,1229,cs),
(313,1453,ls),
(317,1507,o),
(289,1536,o),
(236,1536,cs),
(212,1536,ls),
(159,1536,o),
(131,1507,o),
(135,1453,cs)
);
}
);
width = 448;
}
);
note = quotesingle;
unicode = 39;
},
{
glyphname = florin;
lastChange = "2024-09-30 04:05:46 +0000";
layers = (
{
layerId = m01;
shapes = (
{
closed = 1;
nodes = (
(128,-208,ls),
(128,-259,o),
(157,-289,o),
(211,-286,cs),
(361,-279,o),
(467,-250,o),
(529,-200,cs),
(604,-140,o),
(641,-31,o),
(641,128,cs),
(641,960,l),
(1009,960,ls),
(1061,960,o),
(1089,983,o),
(1089,1024,cs),
(1089,1024,ls),
(1089,1065,o),
(1061,1088,o),
(1009,1088,cs),
(641,1088,l),
(641,1152,ls),
(641,1216,o),
(646,1265,o),
(657,1300,cs),
(688,1402,o),
(781,1408,o),
(906,1408,cs),
(1009,1408,ls),
(1061,1408,o),
(1089,1436,o),
(1089,1488,cs),
(1089,1488,ls),
(1089,1540,o),
(1061,1568,o),
(1009,1568,cs),
(962,1568,ls),
(768,1568,o),
(634,1539,o),
(561,1480,cs),
(486,1420,o),
(449,1311,o),
(449,1152,cs),
(449,1088,l),
(337,1088,ls),
(285,1088,o),
(257,1065,o),
(257,1024,cs),
(257,1024,ls),
(257,983,o),
(285,960,o),
(337,960,cs),
(449,960,l),
(449,128,ls),
(449,64,o),
(444,15,o),
(433,-20,cs),
(402,-122,o),
(309,-128,o),
(184,-128,cs),
(184,-128,ls),
(148,-128,o),
(128,-156,o),
(128,-208,cs)
);
}
);
width = 1217;
}
);
note = florin;
unicode = 402;
},
{
glyphname = at;
lastChange = "2024-09-30 04:05:06 +0000";
layers = (
{
layerId = m01;
shapes = (
{
closed = 1;
nodes = (
(1711,-224,ls),
(1763,-224,o),
(1791,-196,o),
(1791,-144,cs),
(1791,-144,ls),
(1791,-92,o),
(1762,-64,o),
(1707,-64,cs),
(1216,-64,o),
(928,-61,o),
(846,-56,cs),
(623,-43,o),
(451,4,o),
(380,154,cs),
(340,238,o),
(321,379,o),
(321,576,cs),
(321,784,o),
(341,929,o),
(380,1012,cs),
(453,1167,o),
(621,1202,o),
(846,1211,cs),
(933,1214,o),
(1061,1216,o),
(1232,1216,cs),
(1403,1216,o),
(1537,1206,o),
(1635,1185,cs),
(1857,1138,o),
(1920,1037,o),
(1920,768,cs),
(1920,480,ls),
(1920,338,o),
(1915,288,o),
(1796,288,cs),
(1745,288,o),
(1725,293,o),
(1708,329,cs),
(1700,347,o),
(1696,397,o),
(1696,480,cs),
(1696,912,ls),
(1696,964,o),
(1668,992,o),
(1616,992,cs),
(1584,992,ls),
(1532,992,o),
(1504,964,o),
(1504,912,cs),
(1504,864,l),
(1490,894,o),
(1467,921,o),
(1435,944,cs),
(1360,997,o),
(1254,1024,o),
(1117,1024,cs),
(947,1024,o),
(819,1011,o),
(734,984,cs),
(559,929,o),
(512,815,o),
(512,576,cs),
(512,455,o),
(527,366,o),
(556,307,cs),
(639,141,o),
(865,128,o),
(1120,128,cs),
(1241,128,o),
(1349,147,o),
(1428,188,cs),
(1484,217,o),
(1538,257,o),
(1567,320,c),
(1567,186,o),
(1654,128,o),
(1791,128,cs),
(1921,128,o),
(2009,155,o),
(2053,208,cs),
(2092,255,o),
(2112,346,o),
(2112,480,c),
(2088,865,o),
(2062,1079,o),
(2034,1124,cs),
(2006,1169,o),
(1967,1208,o),
(1920,1240,cs),
(1786,1331,o),
(1530,1376,o),
(1152,1376,cs),
(849,1376,o),
(628,1354,o),
(488,1310,cs),
(343,1265,o),
(245,1184,o),
(194,1068,cs),
(150,968,o),
(128,804,o),
(128,576,cs),
(128,377,o),
(150,227,o),
(194,127,cs),
(247,6,o),
(345,-83,o),
(488,-138,cs),
(638,-196,o),
(860,-224,o),
(1152,-224,cs)
);
},
{
closed = 1;
nodes = (
(1082,288,ls),
(989,288,o),
(911,290,o),
(840,306,cs),
(777,320,o),
(746,343,o),
(722,397,cs),
(710,424,o),
(704,484,o),
(704,576,cs),
(704,747,o),
(717,818,o),
(840,846,cs),
(911,862,o),
(987,864,o),
(1080,864,cs),
(1123,864,ls),
(1190,864,o),
(1249,861,o),
(1298,856,cs),
(1451,840,o),
(1504,762,o),
(1504,573,cs),
(1504,448,o),
(1476,368,o),
(1418,332,cs),
(1349,289,o),
(1242,288,o),
(1123,288,cs)
);
}
);
width = 2240;
}
);
note = at;
unicode = 64;
},
{
glyphname = ampersand;
lastChange = "2024-09-30 04:05:27 +0000";
layers = (
{
layerId = m01;
shapes = (
{
closed = 1;
nodes = (
(1274,-32,ls),
(1635,-32,o),
(1831,12,o),
(1929,190,c),
(2156,77,ls),
(2202,54,o),
(2240,67,o),
(2264,112,cs),
(2265,115,ls),
(2289,162,o),
(2276,199,o),
(2230,222,cs),
(1985,346,l),
(2004,435,o),
(2014,543,o),
(2016,674,cs),
(2017,724,o),
(1993,753,o),
(1946,763,cs),
(1913,770,ls),
(1858,782,o),
(1825,773,o),
(1825,748,cs),
(1825,748,ls),
(1825,618,o),
(1821,516,o),
(1809,435,c),
(684,1004,ls),
(542,1076,o),
(501,1124,o),
(512,1239,cs),
(525,1378,o),
(617,1402,o),
(782,1402,cs),
(1204,1402,ls),
(1615,1402,o),
(1699,1402,o),
(1711,1128,cs),
(1713,1075,o),
(1740,1047,o),
(1791,1047,cs),
(1823,1047,ls),
(1875,1047,o),
(1905,1076,o),
(1902,1129,cs),
(1884,1523,o),
(1718,1568,o),
(1204,1568,cs),
(1066,1568,l),
(1066,1569,l),
(814,1569,ls),
(522,1569,o),
(340,1507,o),
(320,1244,cs),
(308,1090,o),
(376,997,o),
(484,942,c),
(307,922,o),
(128,789,o),
(128,512,cs),
(128,-68,o),
(548,-32,o),
(1028,-32,cs)
);
},
{
closed = 1;
nodes = (
(320,726,o),
(433,833,o),
(640,833,c),
(1761,274,l),
(1692,150,o),
(1551,134,o),
(1274,134,cs),
(1028,134,ls),
(526,134,o),
(320,136,o),
(320,515,cs)
);
}
);
width = 2407;
}
);
note = ampersand;
unicode = 38;
},
{
glyphname = paragraph;
lastChange = "2024-09-30 04:06:02 +0000";
layers = (
{
layerId = m01;
shapes = (
{
closed = 1;
nodes = (
(896,80,ls),
(896,28,o),
(924,0,o),
(976,0,cs),
(1008,0,ls),
(1060,0,o),
(1088,28,o),
(1088,80,cs),
(1088,1376,l),
(1472,1376,l),
(1472,80,ls),
(1472,28,o),
(1500,0,o),
(1552,0,cs),
(1584,0,ls),
(1636,0,o),
(1664,28,o),
(1664,80,cs),
(1664,1376,l),
(1776,1376,ls),
(1828,1376,o),
(1856,1404,o),
(1856,1456,cs),
(1856,1456,ls),
(1856,1508,o),
(1828,1536,o),
(1776,1536,cs),
(833,1536,ls),
(533,1536,o),
(335,1499,o),
(240,1424,cs),
(148,1352,o),
(128,1245,o),
(128,1086,cs),
(128,922,o),
(151,807,o),
(240,730,cs),
(271,703,o),
(313,681,o),
(365,663,cs),
(471,626,o),
(627,608,o),
(833,608,cs),
(896,608,l)
);
}
);
width = 1984;
}
);
note = paragraph;
unicode = 182;
},
{
glyphname = section;
lastChange = "2024-09-30 04:06:13 +0000";
layers = (
{
layerId = m01;
shapes = (
{
closed = 1;
nodes = (
(862,-32,o),
(996,-23,o),
(1073,-6,cs),
(1269,38,o),
(1376,95,o),
(1376,324,cs),
(1376,435,o),
(1352,504,o),
(1286,551,c),
(1345,633,o),
(1374,702,o),
(1374,757,cs),
(1374,892,o),
(1183,960,o),
(800,960,cs),
(586,960,o),
(450,971,o),
(392,994,cs),
(334,1017,o),
(321,1049,o),
(321,1120,cs),
(321,1240,o),
(381,1273,o),
(487,1292,cs),
(561,1306,o),
(655,1312,o),
(767,1312,cs),
(879,1312,o),
(957,1309,o),
(1002,1304,cs),
(1093,1294,o),
(1150,1268,o),
(1172,1195,cs),
(1186,1146,o),
(1207,1120,o),
(1256,1120,cs),
(1290,1120,ls),
(1343,1120,o),
(1375,1150,o),
(1367,1204,cs),
(1353,1289,o),
(1316,1352,o),
(1255,1392,cs),
(1175,1445,o),
(1034,1472,o),
(833,1472,cs),
(643,1472,o),
(509,1463,o),
(432,1446,cs),
(236,1402,o),
(129,1345,o),
(129,1116,cs),
(129,1004,o),
(154,935,o),
(220,887,c),
(159,813,o),
(128,750,o),
(128,699,cs),
(128,604,o),
(167,569,o),
(226,540,cs),
(252,527,o),
(286,516,o),
(329,507,cs),
(418,489,o),
(521,480,o),
(639,480,cs),
(775,480,ls),
(872,480,o),
(936,479,o),
(1028,466,cs),
(1117,453,o),
(1184,434,o),
(1184,337,cs),
(1184,243,o),
(1171,206,o),
(1108,175,cs),
(1086,164,o),
(1056,155,o),
(1018,148,cs),
(944,134,o),
(850,128,o),
(738,128,cs),
(626,128,o),
(548,131,o),
(503,136,cs),
(412,146,o),
(355,172,o),
(333,245,cs),
(319,294,o),
(298,320,o),
(249,320,cs),
(215,320,ls),
(162,320,o),
(130,290,o),
(138,236,cs),
(152,151,o),
(189,88,o),
(250,48,cs),
(330,-5,o),
(471,-32,o),
(672,-32,cs)
);
},
{
closed = 1;
nodes = (
(1059,629,o),
(909,640,o),
(704,640,cs),
(546,640,o),
(448,645,o),
(409,654,cs),
(354,667,o),
(321,678,o),
(321,728,cs),
(321,768,o),
(339,798,o),
(352,832,c),
(445,811,o),
(595,800,o),
(801,800,cs),
(945,800,o),
(1039,795,o),
(1082,786,cs),
(1125,777,o),
(1153,766,o),
(1166,754,cs),
(1179,742,o),
(1186,728,o),
(1186,712,cs),
(1186,686,o),
(1175,651,o),
(1153,607,c)
);
}
);
width = 1504;
}
);
note = section;
unicode = 167;
},
{
glyphname = copyright;
lastChange = "2024-09-30 04:06:21 +0000";
layers = (
{
layerId = m01;
shapes = (
{
closed = 1;
nodes = (
(1297,64,o),
(1523,129,o),
(1640,260,cs),
(1716,345,o),
(1763,464,o),
(1780,616,cs),
(1788,691,o),
(1792,773,o),
(1792,864,cs),
(1792,1060,o),
(1772,1210,o),
(1733,1313,cs),
(1687,1435,o),
(1605,1523,o),
(1488,1578,cs),
(1365,1636,o),
(1190,1664,o),
(960,1664,cs),
(623,1664,o),
(397,1599,o),
(280,1468,cs),
(204,1383,o),
(157,1264,o),
(140,1112,cs),
(132,1037,o),
(128,955,o),
(128,864,cs),
(128,668,o),
(148,518,o),
(187,415,cs),
(233,293,o),
(315,205,o),
(432,150,cs),
(555,92,o),
(730,64,o),
(960,64,cs)
);
},
{
closed = 1;
nodes = (
(776,224,o),
(653,234,o),
(590,254,cs),
(472,292,o),
(414,337,o),
(372,442,cs),
(337,529,o),
(320,670,o),
(320,864,cs),
(320,1058,o),
(337,1199,o),
(372,1286,cs),
(408,1376,o),
(473,1436,o),
(566,1466,cs),
(645,1491,o),
(776,1504,o),
(960,1504,cs),
(1144,1504,o),
(1267,1494,o),
(1330,1474,cs),
(1448,1436,o),
(1506,1391,o),
(1548,1286,cs),
(1583,1199,o),
(1600,1058,o),
(1600,864,cs),
(1600,670,o),
(1583,529,o),
(1548,442,cs),
(1512,352,o),
(1447,292,o),
(1354,262,cs),
(1275,237,o),
(1144,224,o),
(960,224,cs)
);
},
{
closed = 1;
nodes = (
(1133,410,o),
(1274,425,o),
(1368,494,cs),
(1421,533,o),
(1454,593,o),
(1466,675,cs),
(1474,729,o),
(1442,759,o),
(1389,759,cs),
(1389,759,ls),
(1339,759,o),
(1316,732,o),
(1307,680,cs),
(1296,617,o),
(1268,591,o),
(1204,570,cs),
(1151,553,o),
(1083,544,o),
(999,544,cs),
(915,544,o),
(852,546,o),
(812,551,cs),
(621,573,o),
(610,659,o),
(610,893,cs),
(610,999,o),
(614,1067,o),
(622,1097,cs),
(637,1156,o),
(661,1188,o),
(714,1210,cs),
(762,1230,o),
(830,1241,o),
(916,1241,cs),
(959,1241,ls),
(1068,1241,o),
(1128,1240,o),
(1204,1216,cs),
(1267,1196,o),
(1296,1167,o),
(1307,1106,cs),
(1316,1054,o),
(1339,1027,o),
(1389,1027,cs),
(1392,1027,ls),
(1443,1027,o),
(1474,1057,o),
(1466,1111,cs),
(1454,1193,o),
(1421,1253,o),
(1368,1292,cs),
(1291,1348,o),
(1155,1375,o),
(959,1375,cs),
(693,1375,o),
(517,1337,o),
(469,1126,cs),
(455,1064,o),
(448,987,o),
(448,893,cs),
(448,633,o),
(493,479,o),
(702,432,cs),
(768,417,o),
(853,410,o),
(956,410,cs)
);
}
);
width = 1920;
}
);
note = copyright;
unicode = 169;
},
{
glyphname = registered;
lastChange = "2024-09-30 04:07:18 +0000";
layers = (
{
layerId = m01;
shapes = (
{
closed = 1;
nodes = (
(1297,64,o),
(1523,129,o),
(1640,260,cs),
(1716,345,o),
(1763,464,o),
(1780,616,cs),
(1788,691,o),
(1792,773,o),
(1792,864,cs),
(1792,1060,o),
(1772,1210,o),
(1733,1313,cs),
(1687,1435,o),
(1605,1523,o),
(1488,1578,cs),
(1365,1636,o),
(1190,1664,o),
(960,1664,cs),
(623,1664,o),
(397,1599,o),
(280,1468,cs),
(204,1383,o),
(156,1264,o),
(140,1112,cs),
(132,1037,o),
(128,955,o),
(128,864,cs),
(128,668,o),
(148,518,o),
(187,415,cs),
(233,293,o),
(315,205,o),
(432,150,cs),
(555,92,o),
(730,64,o),
(960,64,cs)
);
},
{
closed = 1;
nodes = (
(776,224,o),
(653,234,o),
(590,254,cs),
(472,292,o),
(414,337,o),
(372,442,cs),
(337,529,o),
(320,670,o),
(320,864,cs),
(320,1058,o),
(337,1199,o),
(372,1286,cs),
(408,1376,o),
(473,1436,o),
(566,1466,cs),
(645,1491,o),
(776,1504,o),
(960,1504,cs),
(1144,1504,o),
(1267,1494,o),
(1330,1474,cs),
(1448,1436,o),
(1506,1391,o),
(1548,1286,cs),
(1583,1199,o),
(1600,1058,o),
(1600,864,cs),
(1600,670,o),
(1583,529,o),
(1548,442,cs),
(1512,352,o),
(1447,292,o),
(1354,262,cs),
(1275,237,o),
(1144,224,o),
(960,224,cs)
);
},
{
closed = 1;
nodes = (
(573,464,ls),
(573,412,o),
(601,384,o),
(653,384,cs),
(653,384,ls),
(705,384,o),
(733,412,o),
(733,464,cs),
(733,800,l),
(903,800,ls),
(1056,800,o),
(1244,800,o),
(1244,597,cs),
(1244,464,ls),
(1244,412,o),
(1272,384,o),
(1324,384,cs),
(1325,384,ls),
(1377,384,o),
(1405,412,o),
(1405,464,cs),
(1405,536,ls),
(1405,754,o),
(1351,836,o),
(1160,860,c),
(1303,869,o),
(1404,935,o),
(1404,1078,cs),
(1404,1193,o),
(1374,1256,o),
(1299,1302,cs),
(1218,1351,o),
(1072,1376,o),
(860,1376,cs),
(653,1376,ls),
(601,1376,o),
(573,1348,o),
(573,1296,cs)
);
},
{
closed = 1;
nodes = (
(733,928,l),
(733,1248,l),
(860,1248,ls),
(1015,1248,o),
(1119,1236,o),
(1172,1212,cs),
(1223,1189,o),
(1244,1155,o),
(1244,1087,cs),
(1244,1019,o),
(1223,984,o),
(1172,962,cs),
(1120,939,o),
(1016,928,o),
(860,928,cs)
);
}
);
width = 1920;
}
);
note = registered;
unicode = 174;
},
{
glyphname = trademark;
lastChange = "2024-09-30 04:07:49 +0000";
layers = (
{
layerId = m01;
shapes = (
{
closed = 1;
nodes = (
(1216,784,ls),
(1216,732,o),
(1244,704,o),
(1296,704,cs),
(1328,704,ls),
(1380,704,o),
(1408,732,o),
(1408,784,cs),
(1408,1408,l),
(1791,759,ls),
(1813,721,o),
(1842,704,o),
(1886,704,cs),
(1954,704,ls),
(1997,704,o),
(2027,720,o),
(2050,758,cs),
(2432,1387,l),
(2432,784,ls),
(2432,732,o),
(2460,704,o),
(2512,704,cs),
(2544,704,ls),
(2596,704,o),
(2624,732,o),
(2624,784,cs),
(2624,1456,ls),
(2624,1508,o),
(2596,1536,o),
(2544,1536,cs),
(2381,1536,ls),
(2337,1536,o),
(2308,1520,o),
(2286,1482,cs),
(1920,864,l),
(1568,1481,ls),
(1546,1520,o),
(1516,1536,o),
(1472,1536,cs),
(1296,1536,ls),
(1244,1536,o),
(1216,1508,o),
(1216,1456,cs)
);
},
{
closed = 1;
nodes = (
(512,784,ls),
(512,732,o),
(540,704,o),
(592,704,cs),
(624,704,ls),
(676,704,o),
(704,732,o),
(704,784,cs),
(704,1408,l),
(1008,1408,ls),
(1060,1408,o),
(1088,1431,o),
(1088,1472,cs),
(1088,1472,ls),
(1088,1513,o),
(1060,1536,o),
(1008,1536,cs),
(208,1536,ls),
(156,1536,o),
(128,1513,o),
(128,1472,cs),
(128,1472,ls),
(128,1431,o),
(156,1408,o),
(208,1408,cs),
(512,1408,l)
);
}
);
width = 2752;
}
);
note = trademark;
unicode = 8482;
},
{
glyphname = degree;
layers = (
{
layerId = m01;
shapes = (
{
closed = 1;
nodes = (
(850,96,o),
(988,173,o),
(1054,326,cs),
(1077,378,o),
(1088,440,o),
(1088,512,cs),
(1088,782,o),
(915,928,o),
(640,928,cs),
(430,928,o),
(292,851,o),
(226,698,cs),
(203,646,o),
(192,584,o),
(192,512,cs),
(192,242,o),
(365,96,o),
(640,96,cs)
);
},
{
closed = 1;
nodes = (
(469,256,o),
(384,341,o),
(384,512,cs),
(384,684,o),
(470,768,o),
(640,768,cs),
(805,768,o),
(896,682,o),
(896,512,cs),
(896,341,o),
(810,256,o),
(640,256,cs)
);
}
);
width = 1280;
}
);
note = degree;
unicode = 176;
},
{
glyphname = bar;
lastChange = "2024-09-30 04:07:58 +0000";
layers = (
{
layerId = m01;
shapes = (
{
closed = 1;
nodes = (
(128,-48,ls),
(128,-100,o),
(156,-128,o),
(208,-128,cs),
(240,-128,ls),
(292,-128,o),
(320,-100,o),
(320,-48,cs),
(320,1520,ls),
(320,1572,o),
(292,1600,o),
(240,1600,cs),
(208,1600,ls),
(156,1600,o),
(128,1572,o),
(128,1520,cs)
);
}
);
width = 448;
}
);
note = bar;
unicode = 124;
},
{
glyphname = brokenbar;
lastChange = "2024-09-30 04:08:03 +0000";
layers = (
{
layerId = m01;
shapes = (
{
closed = 1;
nodes = (
(128,976,ls),
(128,924,o),
(156,896,o),
(208,896,cs),
(240,896,ls),
(292,896,o),
(320,924,o),
(320,976,cs),
(320,1520,ls),
(320,1572,o),
(292,1600,o),
(240,1600,cs),
(208,1600,ls),
(156,1600,o),
(128,1572,o),
(128,1520,cs)
);
},
{
closed = 1;
nodes = (
(128,-48,ls),
(128,-100,o),
(156,-128,o),
(208,-128,cs),
(240,-128,ls),
(292,-128,o),
(320,-100,o),
(320,-48,cs),
(320,496,ls),
(320,548,o),
(292,576,o),
(240,576,cs),
(208,576,ls),
(156,576,o),
(128,548,o),
(128,496,cs)
);
}
);
width = 448;
}
);
note = brokenbar;
unicode = 166;
},
{
glyphname = dagger;
lastChange = "2024-09-30 04:08:19 +0000";
layers = (
{
layerId = m01;
shapes = (
{
closed = 1;
nodes = (
(384,-48,ls),
(384,-100,o),
(412,-128,o),
(464,-128,cs),
(496,-128,ls),
(548,-128,o),
(576,-100,o),
(576,-48,cs),
(576,928,l),
(752,928,ls),
(804,928,o),
(832,956,o),
(832,1008,cs),
(832,1008,ls),
(832,1060,o),
(804,1088,o),
(752,1088,cs),
(576,1088,l),
(576,1520,ls),
(576,1572,o),
(548,1600,o),
(496,1600,cs),
(464,1600,ls),
(412,1600,o),
(384,1572,o),
(384,1520,cs),
(384,1088,l),
(208,1088,ls),
(156,1088,o),
(128,1060,o),
(128,1008,cs),
(128,1008,ls),
(128,956,o),
(156,928,o),
(208,928,cs),
(384,928,l)
);
}
);
width = 960;
}
);
note = dagger;
unicode = 8224;
},
{
glyphname = daggerdbl;
lastChange = "2024-09-30 04:08:30 +0000";
layers = (
{
layerId = m01;
shapes = (
{
closed = 1;
nodes = (
(384,-48,ls),
(384,-100,o),
(412,-128,o),
(464,-128,cs),
(496,-128,ls),
(548,-128,o),
(576,-100,o),
(576,-48,cs),
(576,320,l),
(752,320,ls),
(804,320,o),
(832,348,o),
(832,400,cs),
(832,400,ls),
(832,452,o),
(804,480,o),
(752,480,cs),
(576,480,l),
(576,928,l),
(752,928,ls),
(804,928,o),
(832,956,o),
(832,1008,cs),
(832,1008,ls),
(832,1060,o),
(804,1088,o),
(752,1088,cs),
(576,1088,l),
(576,1520,ls),
(576,1572,o),
(548,1600,o),
(496,1600,cs),
(464,1600,ls),
(412,1600,o),
(384,1572,o),
(384,1520,cs),
(384,1088,l),
(208,1088,ls),
(156,1088,o),
(128,1060,o),
(128,1008,cs),
(128,1008,ls),
(128,956,o),
(156,928,o),
(208,928,cs),
(384,928,l),
(384,480,l),
(208,480,ls),
(156,480,o),
(128,452,o),
(128,400,cs),
(128,400,ls),
(128,348,o),
(156,320,o),
(208,320,cs),
(384,320,l)
);
}
);
width = 960;
}
);
note = daggerdbl;
unicode = 8225;
},
{
glyphname = currency;
lastChange = "2024-09-30 04:11:05 +0000";
layers = (
{
layerId = m01;
shapes = (
{
closed = 1;
nodes = (
(181,64,o),
(218,65,o),
(257,99,cs),
(346,176,l),
(420,123,o),
(517,96,o),
(639,96,cs),
(761,96,o),
(858,122,o),
(933,175,c),
(1023,99,ls),
(1062,66,o),
(1099,64,o),
(1126,96,cs),
(1153,127,o),
(1146,162,o),
(1107,196,cs),
(1023,268,l),
(1066,335,o),
(1088,417,o),
(1088,514,cs),
(1088,611,o),
(1066,691,o),
(1023,756,c),
(1107,828,ls),
(1146,862,o),
(1153,897,o),
(1126,929,cs),
(1099,961,o),
(1062,959,o),
(1023,925,cs),
(934,848,l),
(857,901,o),
(759,928,o),
(640,928,cs),
(521,928,o),
(423,901,o),
(346,848,c),
(256,925,ls),
(217,959,o),
(181,960,o),
(154,929,cs),
(127,897,o),
(134,862,o),
(173,828,cs),
(256,756,l),
(213,690,o),
(192,609,o),
(192,512,cs),
(192,415,o),
(213,334,o),
(256,268,c),
(173,196,ls),
(134,162,o),
(127,128,o),
(154,96,cs)
);
},
{
closed = 1;
nodes = (
(469,256,o),
(384,341,o),
(384,512,cs),
(384,684,o),
(470,768,o),
(640,768,cs),
(805,768,o),
(896,682,o),
(896,512,cs),
(896,341,o),
(810,256,o),
(640,256,cs)
);
}
);
width = 1280;
}
);
note = currency;
unicode = 164;
},
{
glyphname = dollar;
lastChange = "2024-09-30 04:12:44 +0000";
layers = (
{
anchors = (
{
name = bottom;
pos = (1071,0);
},
{
name = top;
pos = (1071,1536);
}
);
layerId = m01;
shapes = (
{
ref = S;
},
{
closed = 1;
nodes = (
(988,-140,ls),
(988,-192,o),
(1016,-220,o),
(1068,-220,cs),
(1100,-220,ls),
(1152,-220,o),
(1180,-192,o),
(1180,-140,cs),
(1180,1682,ls),
(1180,1734,o),
(1152,1762,o),
(1100,1762,cs),
(1068,1762,ls),
(1016,1762,o),
(988,1734,o),
(988,1682,cs)
);
}
);
width = 2142;
}
);
note = dollar;
unicode = 36;
},
{
glyphname = sterling;
lastChange = "2024-09-30 04:33:32 +0000";
layers = (
{
layerId = m01;
shapes = (
{
closed = 1;
nodes = (
(256,0,l),
(1392,0,ls),
(1444,0,o),
(1472,28,o),
(1472,80,cs),
(1472,132,o),
(1444,160,o),
(1392,160,cs),
(448,160,l),
(448,640,l),
(1200,640,ls),
(1252,640,o),
(1280,668,o),
(1280,720,cs),
(1280,772,o),
(1252,800,o),
(1200,800,cs),
(448,800,l),
(448,958,ls),
(448,1095,o),
(454,1186,o),
(467,1231,cs),
(501,1351,o),
(599,1385,o),
(744,1400,cs),
(802,1406,o),
(883,1409,o),
(987,1409,cs),
(1091,1409,o),
(1171,1400,o),
(1228,1381,cs),
(1256,1372,o),
(1278,1360,o),
(1294,1346,cs),
(1323,1320,o),
(1336,1297,o),
(1341,1254,cs),
(1347,1201,o),
(1371,1173,o),
(1422,1173,cs),
(1454,1173,ls),
(1507,1173,o),
(1538,1203,o),
(1531,1256,cs),
(1518,1355,o),
(1481,1428,o),
(1419,1474,cs),
(1334,1538,o),
(1181,1569,o),
(960,1569,cs),
(765,1569,o),
(619,1552,o),
(522,1517,cs),
(304,1439,o),
(256,1272,o),
(256,958,cs),
(256,800,l),
(144,800,ls),
(92,800,o),
(64,772,o),
(64,720,cs),
(64,668,o),
(92,640,o),
(144,640,cs),
(256,640,l)
);
}
);
width = 1663;
}
);
note = sterling;
unicode = 163;
},
{
glyphname = yen;
lastChange = "2024-09-30 04:34:18 +0000";
layers = (
{
layerId = m01;
shapes = (
{
closed = 1;
nodes = (
(928,80,ls),
(928,28,o),
(956,0,o),
(1008,0,cs),
(1040,0,ls),
(1092,0,o),
(1120,28,o),
(1120,80,cs),
(1120,256,l),
(1552,256,ls),
(1604,256,o),
(1632,284,o),
(1632,336,cs),
(1632,336,ls),
(1632,388,o),
(1604,416,o),
(1552,416,cs),
(1120,416,l),
(1120,640,l),
(1552,640,ls),
(1604,640,o),
(1632,668,o),
(1632,720,cs),
(1632,720,ls),
(1632,772,o),
(1604,800,o),
(1552,800,cs),
(1274,800,l),
(1889,1438,ls),
(1938,1489,o),
(1918,1536,o),
(1847,1536,cs),
(1787,1536,ls),
(1746,1536,o),
(1716,1523,o),
(1688,1493,cs),
(1024,768,l),
(360,1493,ls),
(332,1523,o),
(302,1536,o),
(261,1536,cs),
(192,1536,ls),
(126,1536,o),
(110,1489,o),
(159,1438,cs),
(773,800,l),
(496,800,ls),
(444,800,o),
(416,772,o),
(416,720,cs),
(416,720,ls),
(416,668,o),
(444,640,o),
(496,640,cs),
(928,640,l),
(928,416,l),
(496,416,ls),
(444,416,o),
(416,388,o),
(416,336,cs),
(416,336,ls),
(416,284,o),
(444,256,o),
(496,256,cs),
(928,256,l)
);
}
);
width = 2048;
}
);
note = yen;
unicode = 165;
},
{
glyphname = plus;
lastChange = "2024-09-30 04:35:27 +0000";
layers = (
{
layerId = m01;
shapes = (
{
closed = 1;
nodes = (
(604,249,ls),
(604,197,o),
(632,169,o),
(684,169,cs),
(716,169,ls),
(768,169,o),
(796,197,o),
(796,249,cs),
(796,633,l),
(1164,633,ls),
(1216,633,o),
(1244,661,o),
(1244,713,cs),
(1244,713,ls),
(1244,765,o),
(1216,793,o),
(1164,793,cs),
(796,793,l),
(796,1177,ls),
(796,1229,o),
(768,1257,o),
(716,1257,cs),
(684,1257,ls),
(632,1257,o),
(604,1229,o),
(604,1177,cs),
(604,793,l),
(236,793,ls),
(184,793,o),
(156,765,o),
(156,713,cs),
(156,713,ls),
(156,661,o),
(184,633,o),
(236,633,cs),
(604,633,l)
);
}
);
width = 1400;
}
);
note = plus;
unicode = 43;
},
{
glyphname = minus;
lastChange = "2024-09-30 04:35:13 +0000";
layers = (
{
layerId = m01;
shapes = (
{
closed = 1;
nodes = (
(187,660,o),
(215,632,o),
(267,632,cs),
(1133,632,ls),
(1185,632,o),
(1213,660,o),
(1213,712,cs),
(1213,764,o),
(1185,792,o),
(1133,792,cs),
(267,792,ls),
(215,792,o),
(187,764,o),
(187,712,cs)
);
}
);
width = 1400;
}
);
note = minus;
unicode = 8722;
},
{
glyphname = multiply;
lastChange = "2024-09-30 04:35:42 +0000";
layers = (
{
layerId = m01;
shapes = (
{
closed = 1;
nodes = (
(326,398,ls),
(362,362,o),
(404,362,o),
(440,398,cs),
(700,658,l),
(960,398,ls),
(996,362,o),
(1038,362,o),
(1074,398,cs),
(1096,420,ls),
(1132,456,o),
(1132,498,o),
(1096,534,cs),
(836,794,l),
(1096,1054,ls),
(1132,1090,o),
(1132,1132,o),
(1096,1168,cs),
(1074,1190,ls),
(1038,1226,o),
(996,1226,o),
(960,1190,cs),
(700,930,l),
(440,1190,ls),
(404,1226,o),
(362,1226,o),
(326,1190,cs),
(304,1168,ls),
(268,1132,o),
(268,1090,o),
(304,1054,cs),
(564,794,l),
(304,534,ls),
(268,498,o),
(268,456,o),
(304,420,cs)
);
}
);
width = 1400;
}
);
note = multiply;
unicode = 215;
},
{
glyphname = divide;
lastChange = "2024-09-30 04:35:48 +0000";
layers = (
{
layerId = m01;
shapes = (
{
closed = 1;
nodes = (
(604,1062,ls),
(604,1010,o),
(632,982,o),
(684,982,cs),
(716,982,ls),
(768,982,o),
(796,1010,o),
(796,1062,cs),
(796,1094,ls),
(796,1146,o),
(768,1174,o),
(716,1174,cs),
(684,1174,ls),
(632,1174,o),
(604,1146,o),
(604,1094,cs)
);
},
{
closed = 1;
nodes = (
(188,713,ls),
(188,661,o),
(216,633,o),
(268,633,cs),
(1132,633,ls),
(1184,633,o),
(1212,661,o),
(1212,713,cs),
(1212,713,ls),
(1212,765,o),
(1184,793,o),
(1132,793,cs),
(268,793,ls),
(216,793,o),
(188,765,o),
(188,713,cs)
);
},
{
closed = 1;
nodes = (
(604,333,ls),
(604,281,o),
(632,253,o),
(684,253,cs),
(716,253,ls),
(768,253,o),
(796,281,o),
(796,333,cs),
(796,365,ls),
(796,417,o),
(768,445,o),
(716,445,cs),
(684,445,ls),
(632,445,o),
(604,417,o),
(604,365,cs)
);
}
);
width = 1400;
}
);
note = divide;
unicode = 247;
},
{
glyphname = equal;
lastChange = "2024-09-30 04:18:47 +0000";
layers = (
{
layerId = m01;
shapes = (
{
closed = 1;
nodes = (
(197,921,o),
(225,893,o),
(277,893,cs),
(1123,893,ls),
(1175,893,o),
(1203,921,o),
(1203,973,cs),
(1203,1025,o),
(1175,1053,o),
(1123,1053,cs),
(277,1053,ls),
(225,1053,o),
(197,1025,o),
(197,973,cs)
);
},
{
closed = 1;
nodes = (
(197,488,o),
(225,460,o),
(277,460,cs),
(1123,460,ls),
(1175,460,o),
(1203,488,o),
(1203,540,cs),
(1203,592,o),
(1175,620,o),
(1123,620,cs),
(277,620,ls),
(225,620,o),
(197,592,o),
(197,540,cs)
);
}
);
width = 1400;
}
);
note = equal;
unicode = 61;
},
{
glyphname = greater;
lastChange = "2024-09-30 04:37:05 +0000";
layers = (
{
layerId = m01;
shapes = (
{
closed = 1;
nodes = (
(252,305,ls),
(252,241,o),
(293,216,o),
(348,250,cs),
(1094,703,ls),
(1131,726,o),
(1148,756,o),
(1148,799,cs),
(1148,865,ls),
(1148,908,o),
(1131,938,o),
(1094,961,cs),
(348,1414,ls),
(293,1448,o),
(252,1423,o),
(252,1359,cs),
(252,1281,ls),
(252,1237,o),
(270,1207,o),
(309,1186,cs),
(984,832,l),
(309,478,ls),
(270,457,o),
(252,427,o),
(252,383,cs)
);
}
);
width = 1400;
}
);
note = greater;
unicode = 62;
},
{
glyphname = less;
lastChange = "2024-09-30 04:37:12 +0000";
layers = (
{
layerId = m01;
shapes = (
{
closed = 1;
nodes = (
(1052,252,ls),
(1107,218,o),
(1148,241,o),
(1148,305,cs),
(1148,383,ls),
(1148,427,o),
(1130,457,o),
(1091,478,cs),
(416,832,l),
(1091,1186,ls),
(1130,1207,o),
(1148,1237,o),
(1148,1281,cs),
(1148,1359,ls),
(1148,1423,o),
(1107,1446,o),
(1052,1412,cs),
(325,961,ls),
(288,938,o),
(272,908,o),
(272,865,cs),
(272,799,ls),
(272,756,o),
(288,726,o),
(325,703,cs)
);
}
);
width = 1400;
}
);
note = less;
unicode = 60;
},
{
glyphname = greaterequal;
lastChange = "2024-09-30 04:37:22 +0000";
layers = (
{
layerId = m01;
shapes = (
{
closed = 1;
nodes = (
(252,305,ls),
(252,241,o),
(293,216,o),
(348,250,cs),
(1094,703,ls),
(1131,726,o),
(1148,756,o),
(1148,799,cs),
(1148,865,ls),
(1148,908,o),
(1131,938,o),
(1094,961,cs),
(348,1414,ls),
(293,1448,o),
(252,1423,o),
(252,1359,cs),
(252,1281,ls),
(252,1237,o),
(270,1208,o),
(310,1187,cs),
(1004,832,l),
(310,477,ls),
(270,456,o),
(252,427,o),
(252,383,cs)
);
},
{
closed = 1;
nodes = (
(252,48,ls),
(252,-4,o),
(280,-32,o),
(332,-32,cs),
(1066,-32,ls),
(1118,-32,o),
(1146,-4,o),
(1146,48,cs),
(1146,48,ls),
(1146,100,o),
(1118,128,o),
(1066,128,cs),
(332,128,ls),
(280,128,o),
(252,100,o),
(252,48,cs)
);
}
);
width = 1400;
}
);
note = greaterequal;
unicode = 8805;
},
{
glyphname = lessequal;
lastChange = "2024-09-30 04:37:32 +0000";
layers = (
{
layerId = m01;
shapes = (
{
closed = 1;
nodes = (
(1052,250,ls),
(1107,216,o),
(1148,241,o),
(1148,305,cs),
(1148,383,ls),
(1148,427,o),
(1130,456,o),
(1090,477,cs),
(396,832,l),
(1090,1187,ls),
(1130,1208,o),
(1148,1237,o),
(1148,1281,cs),
(1148,1359,ls),
(1148,1423,o),
(1107,1448,o),
(1052,1414,cs),
(306,961,ls),
(269,938,o),
(252,908,o),
(252,865,cs),
(252,799,ls),
(252,756,o),
(269,726,o),
(306,703,cs)
);
},
{
closed = 1;
nodes = (
(252,48,ls),
(252,-4,o),
(280,-32,o),
(332,-32,cs),
(1066,-32,ls),
(1118,-32,o),
(1146,-4,o),
(1146,48,cs),
(1146,48,ls),
(1146,100,o),
(1118,128,o),
(1066,128,cs),
(332,128,ls),
(280,128,o),
(252,100,o),
(252,48,cs)
);
}
);
width = 1400;
}
);
note = lessequal;
unicode = 8804;
},
{
glyphname = plusminus;
lastChange = "2024-09-30 04:37:44 +0000";
layers = (
{
layerId = m01;
shapes = (
{
closed = 1;
nodes = (
(604,620,ls),
(604,568,o),
(632,540,o),
(684,540,cs),
(716,540,ls),
(768,540,o),
(796,568,o),
(796,620,cs),
(796,840,l),
(1133,840,ls),
(1185,840,o),
(1213,868,o),
(1213,920,cs),
(1213,920,ls),
(1213,972,o),
(1185,1000,o),
(1133,1000,cs),
(796,1000,l),
(796,1220,ls),
(796,1272,o),
(768,1300,o),
(716,1300,cs),
(684,1300,ls),
(632,1300,o),
(604,1272,o),
(604,1220,cs),
(604,1000,l),
(267,1000,ls),
(215,1000,o),
(187,972,o),
(187,920,cs),
(187,920,ls),
(187,868,o),
(215,840,o),
(267,840,cs),
(604,840,l)
);
},
{
closed = 1;
nodes = (
(187,252,ls),
(187,200,o),
(215,172,o),
(267,172,cs),
(1133,172,ls),
(1185,172,o),
(1213,200,o),
(1213,252,cs),
(1213,252,ls),
(1213,304,o),
(1185,332,o),
(1133,332,cs),
(267,332,ls),
(215,332,o),
(187,304,o),
(187,252,cs)
);
}
);
width = 1400;
}
);
note = plusminus;
unicode = 177;
},
{
glyphname = asciitilde;
lastChange = "2024-09-30 04:38:38 +0000";
layers = (
{
layerId = m01;
shapes = (
{
closed = 1;
nodes = (
(371,832,ls),
(420,832,o),
(430,860,o),
(455,905,cs),
(465,923,o),
(485,928,o),
(522,928,cs),
(575,928,o),
(629,899,o),
(673,880,cs),
(749,848,o),
(822,832,o),
(892,832,cs),
(953,832,o),
(1008,850,o),
(1056,886,cs),
(1096,916,o),
(1123,955,o),
(1137,1003,cs),
(1152,1056,o),
(1117,1088,o),
(1063,1088,cs),
(1029,1088,ls),
(981,1088,o),
(970,1061,o),
(945,1016,cs),
(934,997,o),
(914,992,o),
(878,992,cs),
(825,992,o),
(771,1021,o),
(727,1040,cs),
(651,1072,o),
(578,1088,o),
(508,1088,cs),
(389,1088,o),
(294,1028,o),
(263,917,cs),
(248,864,o),
(283,832,o),
(337,832,cs)
);
}
);
width = 1400;
}
);
note = asciitilde;
unicode = 126;
},
{
glyphname = logicalnot;
lastChange = "2024-09-30 04:39:38 +0000";
layers = (
{
layerId = m01;
shapes = (
{
closed = 1;
nodes = (
(988,720,ls),
(988,668,o),
(1016,640,o),
(1068,640,cs),
(1100,640,ls),
(1152,640,o),
(1180,668,o),
(1180,720,cs),
(1180,1008,ls),
(1180,1060,o),
(1152,1088,o),
(1100,1088,cs),
(300,1088,ls),
(248,1088,o),
(220,1060,o),
(220,1008,cs),
(220,1008,ls),
(220,956,o),
(248,928,o),
(300,928,cs),
(988,928,l)
);
}
);
width = 1400;
}
);
note = logicalnot;
unicode = 172;
},
{
glyphname = asciicircum;
lastChange = "2024-09-30 04:39:54 +0000";
layers = (
{
layerId = m01;
shapes = (
{
closed = 1;
nodes = (
(127,945,ls),
(169,914,o),
(208,920,o),
(238,963,cs),
(544,1408,l),
(850,963,ls),
(880,920,o),
(919,914,o),
(961,945,cs),
(961,945,ls),
(1002,976,o),
(1007,1014,o),
(978,1056,cs),
(675,1486,ls),
(650,1521,o),
(622,1536,o),
(579,1536,cs),
(509,1536,ls),
(466,1536,o),
(438,1521,o),
(413,1486,cs),
(109,1056,ls),
(80,1014,o),
(86,976,o),
(127,945,cs)
);
}
);
width = 1088;
}
);
note = asciicircum;
unicode = 94;
},
{
glyphname = infinity;
layers = (
{
layerId = m01;
shapes = (
{
closed = 1;
nodes = (
(847,-32,o),
(1050,110,o),
(1251,393,c),
(1451,110,o),
(1652,-32,o),
(1854,-32,cs),
(2213,-32,o),
(2368,174,o),
(2368,544,cs),
(2368,913,o),
(2213,1120,o),
(1854,1120,cs),
(1656,1120,o),
(1457,976,o),
(1259,687,c),
(1222,740,o),
(1182,792,o),
(1139,844,cs),
(987,1028,o),
(821,1120,o),
(642,1120,cs),
(283,1120,o),
(128,914,o),
(128,544,cs),
(128,175,o),
(283,-32,o),
(642,-32,cs)
);
},
{
closed = 1;
nodes = (
(390,128,o),
(320,296,o),
(320,568,cs),
(320,672,o),
(336,757,o),
(368,822,cs),
(419,928,o),
(506,960,o),
(661,960,cs),
(700,960,o),
(744,947,o),
(791,922,cs),
(838,897,o),
(890,858,o),
(945,806,cs),
(1000,754,o),
(1071,663,o),
(1156,535,c),
(1071,417,o),
(990,325,o),
(914,259,cs),
(869,220,o),
(824,188,o),
(778,164,cs),
(732,140,o),
(688,128,o),
(646,128,cs)
);
},
{
closed = 1;
nodes = (
(1717,128,o),
(1551,268,o),
(1355,548,c),
(1434,664,o),
(1513,757,o),
(1590,827,cs),
(1633,866,o),
(1677,898,o),
(1722,923,cs),
(1767,948,o),
(1807,960,o),
(1842,960,cs),
(1949,960,o),
(2013,950,o),
(2075,896,cs),
(2142,837,o),
(2176,720,o),
(2176,544,cs),
(2176,285,o),
(2097,128,o),
(1854,128,cs)
);
}
);
width = 2496;
}
);
note = infinity;
unicode = 8734;
},
{
glyphname = integral;
lastChange = "2024-09-30 04:40:05 +0000";
layers = (
{
layerId = m01;
shapes = (
{
closed = 1;
nodes = (
(128,-259,o),
(157,-289,o),
(211,-286,cs),
(361,-279,o),
(467,-250,o),
(529,-200,cs),
(604,-140,o),
(641,-31,o),
(641,128,cs),
(641,1152,ls),
(641,1216,o),
(646,1265,o),
(657,1300,cs),
(688,1402,o),
(781,1408,o),
(906,1408,cs),
(941,1408,o),
(961,1436,o),
(961,1488,cs),
(961,1539,o),
(932,1569,o),
(878,1566,cs),
(729,1559,o),
(623,1530,o),
(561,1480,cs),
(486,1420,o),
(449,1311,o),
(449,1152,cs),
(449,128,ls),
(449,64,o),
(444,15,o),
(433,-20,cs),
(402,-122,o),
(309,-128,o),
(184,-128,cs),
(148,-128,o),
(128,-156,o),
(128,-208,cs)
);
}
);
width = 1089;
}
);
note = integral;
unicode = 8747;
},
{
glyphname = product;
lastChange = "2024-09-30 04:40:28 +0000";
layers = (
{
layerId = m01;
shapes = (
{
closed = 1;
nodes = (
(128,80,ls),
(128,28,o),
(156,0,o),
(208,0,cs),
(240,0,ls),
(292,0,o),
(320,28,o),
(320,80,cs),
(320,1376,l),
(1472,1376,l),
(1472,80,ls),
(1472,28,o),
(1500,0,o),
(1552,0,cs),
(1584,0,ls),
(1636,0,o),
(1664,28,o),
(1664,80,cs),
(1664,1456,ls),
(1664,1508,o),
(1636,1536,o),
(1584,1536,cs),
(208,1536,ls),
(156,1536,o),
(128,1508,o),
(128,1456,cs)
);
}
);
width = 1792;
}
);
note = product;
unicode = 8719;
},
{
glyphname = summation;
lastChange = "2024-09-30 04:40:52 +0000";
layers = (
{
layerId = m01;
shapes = (
{
closed = 1;
nodes = (
(128,80,ls),
(128,28,o),
(156,0,o),
(208,0,cs),
(1456,0,ls),
(1508,0,o),
(1536,28,o),
(1536,80,cs),
(1536,80,ls),
(1536,132,o),
(1508,160,o),
(1456,160,cs),
(320,160,l),
(825,694,ls),
(853,723,o),
(864,750,o),
(864,784,cs),
(864,784,ls),
(864,818,o),
(852,844,o),
(823,873,cs),
(320,1376,l),
(1456,1376,ls),
(1508,1376,o),
(1536,1404,o),
(1536,1456,cs),
(1536,1456,ls),
(1536,1508,o),
(1508,1536,o),
(1456,1536,cs),
(208,1536,ls),
(156,1536,o),
(128,1508,o),
(128,1456,cs),
(128,1418,ls),
(128,1377,o),
(140,1348,o),
(169,1319,cs),
(704,784,l),
(167,218,ls),
(139,189,o),
(128,159,o),
(128,119,cs)
);
}
);
width = 1664;
}
);
note = summation;
unicode = 8721;
},
{
glyphname = radical;
lastChange = "2024-09-30 04:41:02 +0000";
layers = (
{
layerId = m01;
shapes = (
{
closed = 1;
nodes = (
(608,55,ls),
(630,16,o),
(660,0,o),
(704,0,cs),
(829,0,ls),
(875,0,o),
(904,21,o),
(921,63,cs),
(1467,1443,ls),
(1489,1498,o),
(1464,1536,o),
(1404,1536,cs),
(1348,1536,ls),
(1302,1536,o),
(1273,1515,o),
(1257,1472,cs),
(768,128,l),
(383,840,ls),
(362,879,o),
(332,896,o),
(288,896,cs),
(238,896,ls),
(175,896,o),
(152,855,o),
(183,800,cs)
);
}
);
width = 1632;
}
);
note = radical;
unicode = 8730;
},
{
glyphname = partialdiff;
lastChange = "2024-09-30 04:41:09 +0000";
layers = (
{
layerId = m01;
shapes = (
{
closed = 1;
nodes = (
(1152,-32,ls),
(1378,-32,o),
(1544,-4,o),
(1648,54,cs),
(1700,83,o),
(1740,120,o),
(1768,164,cs),
(1853,297,o),
(1856,495,o),
(1856,712,cs),
(1856,768,ls),
(1856,984,o),
(1840,1139,o),
(1808,1231,cs),
(1737,1437,o),
(1569,1515,o),
(1316,1548,cs),
(1218,1561,o),
(1077,1568,o),
(895,1568,cs),
(713,1568,o),
(564,1550,o),
(448,1515,cs),
(338,1481,o),
(276,1439,o),
(227,1348,cs),
(210,1317,o),
(200,1269,o),
(195,1203,cs),
(191,1149,o),
(221,1120,o),
(273,1120,cs),
(273,1120,ls),
(324,1120,o),
(350,1148,o),
(354,1200,cs),
(358,1252,o),
(372,1288,o),
(416,1322,cs),
(489,1379,o),
(670,1408,o),
(960,1408,cs),
(1185,1408,o),
(1341,1396,o),
(1427,1372,cs),
(1526,1345,o),
(1592,1290,o),
(1624,1208,cs),
(1651,1140,o),
(1664,1014,o),
(1664,832,c),
(1558,896,o),
(1387,928,o),
(1152,928,cs),
(831,928,ls),
(556,928,o),
(367,888,o),
(264,808,cs),
(165,731,o),
(128,618,o),
(128,448,cs),
(128,278,o),
(165,165,o),
(264,88,cs),
(367,8,o),
(556,-32,o),
(831,-32,cs)
);
},
{
closed = 1;
nodes = (
(831,128,ls),
(680,128,o),
(570,137,o),
(500,154,cs),
(423,173,o),
(381,200,o),
(346,263,cs),
(329,295,o),
(320,356,o),
(320,448,cs),
(320,538,o),
(332,603,o),
(354,644,cs),
(388,706,o),
(434,726,o),
(524,748,cs),
(578,761,o),
(681,768,o),
(831,768,cs),
(1152,768,ls),
(1257,768,o),
(1342,766,o),
(1409,761,cs),
(1476,756,o),
(1528,745,o),
(1566,728,cs),
(1649,690,o),
(1664,624,o),
(1664,496,cs),
(1664,427,o),
(1657,367,o),
(1643,317,cs),
(1593,137,o),
(1394,128,o),
(1152,128,cs)
);
}
);
width = 1984;
}
);
note = partialdiff;
unicode = 8706;
},
{
glyphname = percent;
lastChange = "2024-09-30 04:42:25 +0000";
layers = (
{
layerId = m01;
shapes = (
{
closed = 1;
nodes = (
(1274,454,o),
(1449,514,o),
(1449,1012,cs),
(1449,1505,o),
(1274,1568,o),
(798,1568,cs),
(321,1568,o),
(146,1505,o),
(146,1012,cs),
(146,514,o),
(321,454,o),
(798,454,cs)
);
},
{
closed = 1;
nodes = (
(358,602,o),
(324,646,o),
(324,1012,cs),
(324,1373,o),
(358,1421,o),
(798,1421,cs),
(1237,1421,o),
(1272,1373,o),
(1272,1012,cs),
(1272,646,o),
(1237,602,o),
(798,602,cs)
);
},
{
closed = 1;
nodes = (
(3548,-32,o),
(3723,28,o),
(3723,526,cs),
(3723,1018,o),
(3548,1082,o),
(3071,1082,cs),
(2595,1082,o),
(2420,1018,o),
(2420,526,cs),
(2420,28,o),
(2595,-32,o),
(3071,-32,cs)
);
},
{
closed = 1;
nodes = (
(2632,115,o),
(2597,160,o),
(2597,526,cs),
(2597,886,o),
(2632,934,o),
(3071,934,cs),
(3511,934,o),
(3545,886,o),
(3545,526,cs),
(3545,160,o),
(3511,115,o),
(3071,115,cs)
);
},
{
pos = (1492,0);
ref = slash;
}
);
width = 3869;
}
);
note = percent;
unicode = 37;
},
{
glyphname = perthousand;
lastChange = "2024-09-30 04:42:42 +0000";
layers = (
{
layerId = m01;
shapes = (
{
closed = 1;
nodes = (
(1274,454,o),
(1449,514,o),
(1449,1012,cs),
(1449,1505,o),
(1274,1568,o),
(798,1568,cs),
(321,1568,o),
(146,1505,o),
(146,1012,cs),
(146,514,o),
(321,454,o),
(798,454,cs)
);
},
{
closed = 1;
nodes = (
(358,602,o),
(324,646,o),
(324,1012,cs),
(324,1373,o),
(358,1421,o),
(798,1421,cs),
(1237,1421,o),
(1272,1373,o),
(1272,1012,cs),
(1272,646,o),
(1237,602,o),
(798,602,cs)
);
},
{
closed = 1;
nodes = (
(5138,-32,o),
(5313,28,o),
(5313,526,cs),
(5313,1018,o),
(5138,1082,o),
(4661,1082,cs),
(4185,1082,o),
(4010,1018,o),
(4010,526,cs),
(4010,28,o),
(4185,-32,o),
(4661,-32,cs)
);
},
{
closed = 1;
nodes = (
(3548,-32,o),
(3723,28,o),
(3723,526,cs),
(3723,1018,o),
(3548,1082,o),
(3071,1082,cs),
(2595,1082,o),
(2420,1018,o),
(2420,526,cs),
(2420,28,o),
(2595,-32,o),
(3071,-32,cs)
);
},
{
closed = 1;
nodes = (
(4222,115,o),
(4187,160,o),
(4187,526,cs),
(4187,886,o),
(4222,934,o),
(4661,934,cs),
(5101,934,o),
(5135,886,o),
(5135,526,cs),
(5135,160,o),
(5101,115,o),
(4661,115,cs)
);
},
{
closed = 1;
nodes = (
(2632,115,o),
(2597,160,o),
(2597,526,cs),
(2597,886,o),
(2632,934,o),
(3071,934,cs),
(3511,934,o),
(3545,886,o),
(3545,526,cs),
(3545,160,o),
(3511,115,o),
(3071,115,cs)
);
},
{
pos = (1490,0);
ref = slash;
}
);
width = 5459;
}
);
note = perthousand;
unicode = 8240;
},
{
glyphname = lozenge;
lastChange = "2024-09-30 04:43:00 +0000";
layers = (
{
layerId = m01;
shapes = (
{
closed = 1;
nodes = (
(544,55,ls),
(566,17,o),
(595,0,o),
(639,0,cs),
(641,0,ls),
(685,0,o),
(714,17,o),
(736,55,cs),
(1120,713,ls),
(1142,752,o),
(1142,784,o),
(1120,823,cs),
(736,1481,ls),
(714,1519,o),
(685,1536,o),
(641,1536,cs),
(639,1536,ls),
(595,1536,o),
(566,1519,o),
(544,1481,cs),
(160,823,ls),
(138,784,o),
(138,752,o),
(160,713,cs)
);
},
{
closed = 1;
nodes = (
(640,256,l),
(352,768,l),
(640,1280,l),
(928,768,l)
);
}
);
width = 1280;
}
);
note = lozenge;
unicode = 9674;
},
{
glyphname = gravecomb;
lastChange = "2024-09-29 23:48:27 +0000";
layers = (
{
anchors = (
{
name = _top;
pos = (390,1092);
}
);
layerId = m01;
shapes = (
{
closed = 1;
nodes = (
(673,1323,ls),
(716,1295,o),
(751,1296,o),
(772,1328,cs),
(772,1328,ls),
(793,1359,o),
(784,1393,o),
(746,1425,cs),
(293,1802,ls),
(251,1837,o),
(210,1831,o),
(180,1787,cs),
(156,1751,ls),
(126,1707,o),
(133,1669,o),
(178,1640,cs)
);
}
);
width = 911;
}
);
note = gravecomb;
unicode = 768;
},
{
glyphname = acutecomb;
lastChange = "2024-09-29 23:48:35 +0000";
layers = (
{
anchors = (
{
name = _top;
pos = (395,1152);
}
);
layerId = m01;
shapes = (
{
closed = 1;
nodes = (
(139,1390,ls),
(160,1358,o),
(195,1357,o),
(238,1385,cs),
(733,1702,ls),
(778,1731,o),
(784,1770,o),
(755,1813,cs),
(731,1849,ls),
(701,1893,o),
(660,1899,o),
(618,1864,cs),
(165,1487,ls),
(127,1455,o),
(118,1421,o),
(139,1390,cs)
);
}
);
width = 911;
}
);
note = acutecomb;
unicode = 769;
},
{
glyphname = tildecomb;
lastChange = "2024-09-29 23:48:42 +0000";
layers = (
{
anchors = (
{
name = _top;
pos = (568,1152);
}
);
layerId = m01;
shapes = (
{
closed = 1;
nodes = (
(239,1342,ls),
(288,1342,o),
(298,1370,o),
(323,1415,cs),
(333,1433,o),
(353,1438,o),
(390,1438,cs),
(443,1438,o),
(497,1409,o),
(541,1390,cs),
(617,1358,o),
(690,1342,o),
(760,1342,cs),
(821,1342,o),
(876,1360,o),
(924,1396,cs),
(964,1426,o),
(991,1465,o),
(1005,1513,cs),
(1020,1566,o),
(985,1598,o),
(931,1598,cs),
(897,1598,ls),
(849,1598,o),
(838,1571,o),
(813,1526,cs),
(802,1507,o),
(782,1502,o),
(746,1502,cs),
(693,1502,o),
(639,1531,o),
(595,1550,cs),
(520,1582,o),
(447,1599,o),
(376,1599,cs),
(257,1599,o),
(163,1538,o),
(131,1427,cs),
(116,1374,o),
(151,1342,o),
(205,1342,cs)
);
}
);
width = 1136;
}
);
note = tildecomb;
unicode = 771;
},
{
glyphname = dieresis;
lastChange = "2024-09-29 23:19:01 +0000";
layers = (
{
layerId = m01;
shapes = (
{
closed = 1;
nodes = (
(802,1424,ls),
(802,1372,o),
(830,1344,o),
(882,1344,cs),
(914,1344,ls),
(966,1344,o),
(994,1372,o),
(994,1424,cs),
(994,1456,ls),
(994,1508,o),
(966,1536,o),
(914,1536,cs),
(882,1536,ls),
(830,1536,o),
(802,1508,o),
(802,1456,cs)
);
},
{
closed = 1;
nodes = (
(94,1424,ls),
(94,1372,o),
(122,1344,o),
(174,1344,cs),
(206,1344,ls),
(258,1344,o),
(286,1372,o),
(286,1424,cs),
(286,1456,ls),
(286,1508,o),
(258,1536,o),
(206,1536,cs),
(174,1536,ls),
(122,1536,o),
(94,1508,o),
(94,1456,cs)
);
}
);
width = 1088;
}
);
note = dieresis;
unicode = 168;
},
{
glyphname = dotaccent;
lastChange = "2024-09-29 23:19:13 +0000";
layers = (
{
layerId = m01;
shapes = (
{
closed = 1;
nodes = (
(128,1424,ls),
(128,1372,o),
(156,1344,o),
(208,1344,cs),
(240,1344,ls),
(292,1344,o),
(320,1372,o),
(320,1424,cs),
(320,1456,ls),
(320,1508,o),
(292,1536,o),
(240,1536,cs),
(208,1536,ls),
(156,1536,o),
(128,1508,o),
(128,1456,cs)
);
}
);
width = 448;
}
);
note = dotaccent;
unicode = 729;
},
{
glyphname = grave;
lastChange = "2024-09-29 23:20:48 +0000";
layers = (
{
layerId = m01;
shapes = (
{
closed = 1;
nodes = (
(673,1323,ls),
(716,1295,o),
(751,1296,o),
(772,1328,cs),
(772,1328,ls),
(793,1359,o),
(784,1393,o),
(746,1425,cs),
(293,1802,ls),
(251,1837,o),
(210,1831,o),
(180,1787,cs),
(156,1751,ls),
(126,1707,o),
(133,1669,o),
(178,1640,cs)
);
}
);
width = 911;
}
);
note = grave;
unicode = 96;
},
{
glyphname = acute;
lastChange = "2024-09-29 23:20:53 +0000";
layers = (
{
layerId = m01;
shapes = (
{
closed = 1;
nodes = (
(139,1390,ls),
(160,1358,o),
(195,1357,o),
(238,1385,cs),
(733,1702,ls),
(778,1731,o),
(784,1770,o),
(755,1813,cs),
(731,1849,ls),
(701,1893,o),
(660,1899,o),
(618,1864,cs),
(165,1487,ls),
(127,1455,o),
(118,1421,o),
(139,1390,cs)
);
}
);
width = 911;
}
);
note = acute;
unicode = 180;
},
{
glyphname = hungarumlaut;
lastChange = "2024-09-29 23:19:51 +0000";
layers = (
{
layerId = m01;
shapes = (
{
closed = 1;
nodes = (
(692,1328,ls),
(713,1296,o),
(747,1293,o),
(791,1320,cs),
(1294,1622,ls),
(1339,1649,o),
(1348,1688,o),
(1319,1732,cs),
(1283,1786,ls),
(1253,1831,o),
(1212,1836,o),
(1171,1802,cs),
(718,1425,ls),
(680,1393,o),
(671,1359,o),
(692,1328,cs)
);
},
{
closed = 1;
nodes = (
(139,1328,ls),
(160,1296,o),
(194,1293,o),
(238,1320,cs),
(741,1622,ls),
(786,1649,o),
(795,1688,o),
(766,1732,cs),
(730,1786,ls),
(700,1831,o),
(659,1836,o),
(618,1802,cs),
(165,1425,ls),
(127,1393,o),
(118,1359,o),
(139,1328,cs)
);
}
);
width = 1464;
}
);
note = hungarumlaut;
unicode = 733;
},
{
glyphname = circumflex;
lastChange = "2024-09-29 23:21:06 +0000";
layers = (
{
layerId = m01;
shapes = (
{
closed = 1;
nodes = (
(164,1359,ls),
(207,1327,o),
(246,1336,o),
(275,1380,cs),
(518,1758,l),
(761,1380,ls),
(790,1336,o),
(829,1327,o),
(872,1359,cs),
(872,1359,ls),
(913,1389,o),
(919,1429,o),
(891,1471,cs),
(648,1834,ls),
(624,1870,o),
(595,1886,o),
(552,1886,cs),
(484,1886,ls),
(441,1886,o),
(412,1870,o),
(388,1834,cs),
(145,1471,ls),
(117,1429,o),
(124,1389,o),
(164,1359,cs)
);
}
);
width = 1036;
}
);
note = circumflex;
unicode = 710;
},
{
glyphname = caron;
lastChange = "2024-09-29 23:21:16 +0000";
layers = (
{
layerId = m01;
shapes = (
{
closed = 1;
nodes = (
(388,1368,ls),
(412,1332,o),
(441,1316,o),
(484,1316,cs),
(552,1316,ls),
(595,1316,o),
(624,1332,o),
(648,1368,cs),
(891,1731,ls),
(919,1773,o),
(912,1813,o),
(872,1843,cs),
(870,1844,ls),
(829,1875,o),
(790,1867,o),
(761,1822,cs),
(518,1444,l),
(275,1822,ls),
(246,1866,o),
(207,1875,o),
(164,1843,cs),
(164,1843,ls),
(124,1813,o),
(117,1773,o),
(145,1731,cs)
);
}
);
width = 1036;
}
);
note = caron;
unicode = 711;
},
{
glyphname = breve;
lastChange = "2024-09-29 23:49:50 +0000";
layers = (
{
layerId = m01;
shapes = (
{
closed = 1;
nodes = (
(851,1307,o),
(986,1372,o),
(1015,1597,cs),
(1023,1661,o),
(991,1697,o),
(939,1697,cs),
(939,1697,ls),
(888,1697,o),
(863,1669,o),
(858,1616,cs),
(850,1537,o),
(830,1489,o),
(797,1469,cs),
(770,1453,o),
(717,1445,o),
(637,1445,cs),
(557,1445,o),
(505,1452,o),
(482,1466,cs),
(447,1488,o),
(425,1536,o),
(417,1616,cs),
(411,1669,o),
(386,1697,o),
(335,1697,cs),
(333,1697,ls),
(282,1697,o),
(251,1667,o),
(257,1613,cs),
(282,1375,o),
(418,1307,o),
(637,1307,cs)
);
}
);
width = 1272;
}
);
note = breve;
unicode = 728;
},
{
glyphname = ring;
layers = (
{
layerId = m01;
shapes = (
{
closed = 1;
nodes = (
(849,1340,o),
(992,1455,o),
(992,1660,cs),
(992,1857,o),
(861,1980,o),
(640,1980,cs),
(431,1980,o),
(288,1865,o),
(288,1660,cs),
(288,1463,o),
(419,1340,o),
(640,1340,cs)
);
},
{
closed = 1;
nodes = (
(506,1468,o),
(448,1532,o),
(448,1660,cs),
(448,1717,o),
(457,1758,o),
(476,1782,cs),
(512,1828,o),
(567,1852,o),
(640,1852,cs),
(774,1852,o),
(832,1788,o),
(832,1660,cs),
(832,1603,o),
(823,1562,o),
(804,1538,cs),
(768,1492,o),
(713,1468,o),
(640,1468,cs)
);
}
);
width = 1280;
}
);
note = ring;
unicode = 730;
},
{
glyphname = tilde;
lastChange = "2024-09-29 23:21:41 +0000";
layers = (
{
layerId = m01;
shapes = (
{
closed = 1;
nodes = (
(239,1342,ls),
(288,1342,o),
(298,1370,o),
(323,1415,cs),
(333,1433,o),
(353,1438,o),
(390,1438,cs),
(443,1438,o),
(497,1409,o),
(541,1390,cs),
(617,1358,o),
(690,1342,o),
(760,1342,cs),
(821,1342,o),
(876,1360,o),
(924,1396,cs),
(964,1426,o),
(991,1465,o),
(1005,1513,cs),
(1020,1566,o),
(985,1598,o),
(931,1598,cs),
(897,1598,ls),
(849,1598,o),
(838,1571,o),
(813,1526,cs),
(802,1507,o),
(782,1502,o),
(746,1502,cs),
(693,1502,o),
(639,1531,o),
(595,1550,cs),
(520,1582,o),
(447,1599,o),
(376,1599,cs),
(257,1599,o),
(163,1538,o),
(131,1427,cs),
(116,1374,o),
(151,1342,o),
(205,1342,cs)
);
}
);
width = 1136;
}
);
note = tilde;
unicode = 732;
},
{
glyphname = macron;
lastChange = "2024-09-29 23:21:48 +0000";
layers = (
{
layerId = m01;
shapes = (
{
closed = 1;
nodes = (
(128,1385,ls),
(128,1333,o),
(156,1305,o),
(208,1305,cs),
(816,1305,ls),
(868,1305,o),
(896,1333,o),
(896,1385,cs),
(896,1385,ls),
(896,1437,o),
(868,1465,o),
(816,1465,cs),
(208,1465,ls),
(156,1465,o),
(128,1437,o),
(128,1385,cs)
);
}
);
width = 1024;
}
);
note = macron;
unicode = 175;
},
{
glyphname = cedilla;
lastChange = "2024-09-29 23:22:25 +0000";
layers = (
{
layerId = m01;
shapes = (
{
closed = 1;
nodes = (
(128,-463,ls),
(128,-515,o),
(157,-545,o),
(211,-541,cs),
(393,-529,o),
(512,-471,o),
(512,-318,cs),
(512,-181,o),
(427,-128,o),
(256,-128,c),
(256,-16,ls),
(256,36,o),
(233,64,o),
(192,64,cs),
(192,64,ls),
(151,64,o),
(128,36,o),
(128,-16,cs),
(128,-146,ls),
(128,-197,o),
(156,-222,o),
(209,-227,cs),
(278,-234,o),
(320,-254,o),
(320,-300,cs),
(320,-354,o),
(269,-374,o),
(207,-381,cs),
(156,-386,o),
(128,-411,o),
(128,-462,cs)
);
}
);
width = 640;
}
);
note = cedilla;
unicode = 184;
},
{
glyphname = ogonek;
lastChange = "2024-09-29 23:22:40 +0000";
layers = (
{
layerId = m01;
shapes = (
{
closed = 1;
nodes = (
(512,-429,ls),
(512,-379,o),
(485,-355,o),
(434,-347,cs),
(364,-336,o),
(320,-303,o),
(320,-224,cs),
(320,-151,o),
(350,-83,o),
(409,-21,cs),
(458,31,o),
(476,64,o),
(437,64,cs),
(399,64,o),
(371,58,o),
(338,37,cs),
(262,-11,o),
(206,-65,o),
(168,-125,cs),
(142,-167,o),
(128,-204,o),
(128,-274,cs),
(128,-310,o),
(139,-344,o),
(161,-377,cs),
(212,-452,o),
(301,-495,o),
(429,-508,cs),
(482,-513,o),
(512,-483,o),
(512,-432,cs)
);
}
);
width = 640;
}
);
note = ogonek;
unicode = 731;
},
{
glyphname = Acaron;
lastChange = "2024-09-30 05:21:49 +0000";
layers = (
{
layerId = m01;
shapes = (
{
ref = A;
},
{
closed = 1;
nodes = (
(926,1752,ls),
(950,1716,o),
(979,1700,o),
(1022,1700,cs),
(1090,1700,ls),
(1133,1700,o),
(1162,1716,o),
(1186,1752,cs),
(1429,2115,ls),
(1457,2157,o),
(1450,2197,o),
(1410,2227,cs),
(1408,2228,ls),
(1367,2259,o),
(1328,2251,o),
(1299,2206,cs),
(1056,1828,l),
(813,2206,ls),
(784,2250,o),
(745,2259,o),
(702,2227,cs),
(702,2227,ls),
(662,2197,o),
(655,2157,o),
(683,2115,cs)
);
}
);
width = 2092;
}
);
unicode = 461;
},
{
glyphname = Adieresismacron;
lastChange = "2024-09-30 05:33:12 +0000";
layers = (
{
layerId = m01;
shapes = (
{
ref = A;
},
{
closed = 1;
nodes = (
(1304,1698,ls),
(1304,1646,o),
(1332,1618,o),
(1384,1618,cs),
(1416,1618,ls),
(1468,1618,o),
(1496,1646,o),
(1496,1698,cs),
(1496,1730,ls),
(1496,1782,o),
(1468,1810,o),
(1416,1810,cs),
(1384,1810,ls),
(1332,1810,o),
(1304,1782,o),
(1304,1730,cs)
);
},
{
closed = 1;
nodes = (
(596,1698,ls),
(596,1646,o),
(624,1618,o),
(676,1618,cs),
(708,1618,ls),
(760,1618,o),
(788,1646,o),
(788,1698,cs),
(788,1730,ls),
(788,1782,o),
(760,1810,o),
(708,1810,cs),
(676,1810,ls),
(624,1810,o),
(596,1782,o),
(596,1730,cs)
);
},
{
closed = 1;
nodes = (
(662,2029,ls),
(662,1977,o),
(690,1949,o),
(742,1949,cs),
(1350,1949,ls),
(1402,1949,o),
(1430,1977,o),
(1430,2029,cs),
(1430,2029,ls),
(1430,2081,o),
(1402,2109,o),
(1350,2109,cs),
(742,2109,ls),
(690,2109,o),
(662,2081,o),
(662,2029,cs)
);
}
);
width = 2092;
}
);
unicode = 478;
},
{
glyphname = "Alpha-latin";
lastChange = "2024-09-30 05:34:58 +0000";
layers = (
{
anchors = (
{
name = bottom;
pos = (2433,0);
},
{
name = ogonek;
pos = (2522,20);
},
{
name = top;
pos = (2433,1536);
}
);
layerId = m01;
shapes = (
{
ref = O;
},
{
closed = 1;
nodes = (
(1827,80,ls),
(1827,28,o),
(1855,0,o),
(1907,0,cs),
(1939,0,ls),
(1991,0,o),
(2019,28,o),
(2019,80,cs),
(2019,1456,ls),
(2019,1508,o),
(1991,1536,o),
(1939,1536,cs),
(1907,1536,ls),
(1855,1536,o),
(1827,1508,o),
(1827,1456,cs)
);
}
);
width = 2721;
}
);
unicode = 11373;
},
{
glyphname = Schwa;
lastChange = "2024-09-30 05:15:36 +0000";
layers = (
{
anchors = (
{
name = bottom;
pos = (783,384);
},
{
name = ogonek;
pos = (504,1516);
},
{
name = top;
pos = (783,1536);
}
);
layerId = m01;
shapes = (
{
closed = 1;
nodes = (
(302,1194,ls),
(352,1194,o),
(375,1220,o),
(385,1269,cs),
(407,1384,o),
(506,1398,o),
(849,1398,cs),
(1300,1398,o),
(1356,1205,o),
(1358,863,c),
(280,863,ls),
(228,863,o),
(200,835,o),
(200,783,cs),
(200,406,ls),
(200,71,o),
(412,2,o),
(854,2,cs),
(1370,2,o),
(1551,71,o),
(1551,804,cs),
(1551,1343,o),
(1365,1558,o),
(849,1558,cs),
(438,1558,o),
(237,1541,o),
(205,1277,cs),
(198,1224,o),
(229,1194,o),
(282,1194,cs)
);
},
{
closed = 1;
nodes = (
(444,162,o),
(384,213,o),
(384,406,cs),
(384,712,l),
(1358,712,l),
(1355,205,o),
(1288,162,o),
(854,162,cs)
);
}
);
width = 1567;
}
);
unicode = 399;
},
{
glyphname = Germandbls;
lastChange = "2024-09-30 03:47:33 +0000";
layers = (
{
layerId = m01;
shapes = (
{
closed = 1;
nodes = (
(1942,130,o),
(1892,45,o),
(1582,-7,cs),
(1486,-23,o),
(1425,-32,o),
(870,-32,cs),
(693,-32,ls),
(569,-32,o),
(569,128,o),
(693,128,cs),
(887,128,o),
(1182,128,o),
(1335,130,cs),
(1487,132,o),
(1647,130,o),
(1712,214,cs),
(1747,259,o),
(1755,338,o),
(1755,444,cs),
(1755,606,o),
(1728,704,o),
(1558,704,cs),
(933,704,ls),
(885,704,o),
(854,735,o),
(854,783,cs),
(854,785,ls),
(854,833,o),
(866,867,o),
(901,898,cs),
(1408,1341,l),
(1171,1341,l),
(814,1341,ls),
(428,1341,o),
(317,1309,o),
(317,1089,cs),
(317,1008,o),
(316,41,o),
(317,-33,cs),
(317,-93,o),
(276,-128,o),
(216,-128,cs),
(213,-128,ls),
(160,-128,o),
(128,-86,o),
(128,-33,cs),
(128,1152,ls),
(128,1495,o),
(336,1536,o),
(933,1536,cs),
(1425,1536,ls),
(1579,1536,o),
(1585,1495,o),
(1585,1385,cs),
(1585,1267,o),
(1566,1222,o),
(1520,1179,cs),
(1473,1135,o),
(1151,870,o),
(1161,870,cs),
(1686,870,o),
(1942,836,o),
(1942,449,cs)
);
}
);
width = 1664;
}
);
unicode = 7838;
},
{
glyphname = Saltillo;
lastChange = "2024-09-30 05:20:13 +0000";
layers = (
{
layerId = m01;
shapes = (
{
closed = 1;
nodes = (
(205,527,ls),
(206,476,o),
(234,448,o),
(284,448,cs),
(334,448,o),
(362,476,o),
(363,527,cs),
(379,1455,ls),
(380,1508,o),
(351,1536,o),
(299,1536,cs),
(269,1536,ls),
(217,1536,o),
(188,1508,o),
(189,1455,cs)
);
}
);
width = 568;
}
);
unicode = 42891;
},
{
glyphname = adieresismacron;
lastChange = "2024-09-30 05:33:33 +0000";
layers = (
{
layerId = m01;
shapes = (
{
ref = a;
},
{
closed = 1;
nodes = (
(1060,1424,ls),
(1060,1372,o),
(1088,1344,o),
(1140,1344,cs),
(1172,1344,ls),
(1224,1344,o),
(1252,1372,o),
(1252,1424,cs),
(1252,1456,ls),
(1252,1508,o),
(1224,1536,o),
(1172,1536,cs),
(1140,1536,ls),
(1088,1536,o),
(1060,1508,o),
(1060,1456,cs)
);
},
{
closed = 1;
nodes = (
(352,1424,ls),
(352,1372,o),
(380,1344,o),
(432,1344,cs),
(464,1344,ls),
(516,1344,o),
(544,1372,o),
(544,1424,cs),
(544,1456,ls),
(544,1508,o),
(516,1536,o),
(464,1536,cs),
(432,1536,ls),
(380,1536,o),
(352,1508,o),
(352,1456,cs)
);
},
{
closed = 1;
nodes = (
(418,1755,ls),
(418,1703,o),
(446,1675,o),
(498,1675,cs),
(1106,1675,ls),
(1158,1675,o),
(1186,1703,o),
(1186,1755,cs),
(1186,1755,ls),
(1186,1807,o),
(1158,1835,o),
(1106,1835,cs),
(498,1835,ls),
(446,1835,o),
(418,1807,o),
(418,1755,cs)
);
}
);
width = 1560;
}
);
unicode = 479;
},
{
glyphname = "alpha-latin";
lastChange = "2024-09-30 05:34:10 +0000";
layers = (
{
anchors = (
{
name = bottom;
pos = (819,0);
},
{
name = top;
pos = (768,1340);
},
{
name = "topright@ascender";
pos = (1667,1606);
}
);
layerId = m01;
shapes = (
{
closed = 1;
nodes = (
(1048,-22,o),
(1217,1,o),
(1314,132,c),
(1314,80,ls),
(1314,28,o),
(1342,0,o),
(1394,0,cs),
(1426,0,ls),
(1478,0,o),
(1506,28,o),
(1506,80,cs),
(1506,1076,ls),
(1506,1128,o),
(1478,1156,o),
(1426,1156,cs),
(1394,1156,ls),
(1342,1156,o),
(1314,1128,o),
(1314,1076,cs),
(1314,1021,l),
(1217,1150,o),
(1048,1174,o),
(801,1174,cs),
(285,1174,o),
(96,1105,o),
(96,582,cs),
(96,43,o),
(285,-22,o),
(801,-22,cs)
);
},
{
closed = 1;
nodes = (
(1314,186,o),
(1235,138,o),
(801,138,cs),
(325,138,o),
(288,186,o),
(288,582,cs),
(288,962,o),
(325,1014,o),
(801,1014,cs),
(1235,1014,o),
(1314,962,o),
(1314,582,cs)
);
}
);
width = 1638;
}
);
unicode = 593;
},
{
glyphname = idotless;
lastChange = "2024-09-29 23:47:38 +0000";
layers = (
{
anchors = (
{
name = bottom;
pos = (291,0);
},
{
name = ogonek;
pos = (320,0);
},
{
name = top;
pos = (224,1442);
}
);
layerId = m01;
shapes = (
{
closed = 1;
nodes = (
(128,80,ls),
(128,28,o),
(156,0,o),
(208,0,cs),
(240,0,ls),
(292,0,o),
(320,28,o),
(320,80,cs),
(320,1072,ls),
(320,1124,o),
(292,1152,o),
(240,1152,cs),
(208,1152,ls),
(156,1152,o),
(128,1124,o),
(128,1072,cs)
);
}
);
width = 448;
}
);
unicode = 305;
},
{
glyphname = jdotless;
lastChange = "2024-09-30 04:47:16 +0000";
layers = (
{
layerId = m01;
shapes = (
{
closed = 1;
nodes = (
(-37,-304,ls),
(-37,-356,o),
(-9,-384,o),
(43,-384,cs),
(108,-384,ls),
(382,-384,o),
(480,-266,o),
(480,-24,cs),
(480,1072,ls),
(480,1124,o),
(452,1152,o),
(400,1152,cs),
(368,1152,ls),
(316,1152,o),
(288,1124,o),
(288,1072,cs),
(288,-24,ls),
(288,-193,o),
(237,-224,o),
(108,-224,cs),
(43,-224,ls),
(-9,-224,o),
(-37,-252,o),
(-37,-304,cs)
);
}
);
width = 672;
}
);
unicode = 567;
},
{
glyphname = Delta;
layers = (
{
layerId = m01;
shapes = (
{
closed = 1;
nodes = (
(691.328,1502.19,o),
(740.11,1536,o),
(804,1536,cs),
(860,1536,ls),
(923.89,1536,o),
(972.672,1502.19,o),
(995.092,1442.36,cs),
(1500.91,92.64,ls),
(1519.92,41.907,o),
(1490.18,-1,o),
(1436,-1,cs),
(228,-1,ls),
(173.821,-1,o),
(144.08,41.907,o),
(163.092,92.64,cs),
(668.908,1442.36,ls)
);
},
{
closed = 1;
nodes = (
(836.775,1394.69,o),
(827.225,1394.69,o),
(823.897,1385.41,cs),
(392.103,181.591,ls),
(387.718,169.366,o),
(395.013,159,o),
(408,159,cs),
(1256,159,ls),
(1268.99,159,o),
(1276.28,169.366,o),
(1271.9,181.591,cs),
(840.103,1385.41,ls)
);
}
);
width = 1664;
}
);
unicode = 916;
},
{
glyphname = Sigma;
layers = (
{
layerId = m01;
shapes = (
{
closed = 1;
nodes = (
(1497,192,o),
(1530,154,o),
(1534,97,cs),
(1536,95,ls),
(1539,37,o),
(1497,0,o),
(1440,0,cs),
(228,0,ls),
(167,0,o),
(128,39,o),
(128,100,cs),
(128,206,ls),
(128,271,o),
(170,332,o),
(208,365,cs),
(652,759,ls),
(663,763,o),
(663,783,o),
(652,787,cs),
(209,1168,ls),
(171,1201,o),
(128,1262,o),
(128,1327,cs),
(128,1433,ls),
(128,1493,o),
(167,1533,o),
(228,1533,cs),
(1440,1533,ls),
(1497,1533,o),
(1530,1495,o),
(1534,1438,cs),
(1536,1436,ls),
(1539,1378,o),
(1497,1341,o),
(1440,1341,cs),
(326,1341,ls),
(316,1341,o),
(313,1330,o),
(321,1327,cs),
(786,926,ls),
(835,884,o),
(864,836,o),
(864,774,cs),
(864,772,ls),
(864,709,o),
(835,662,o),
(786,619,cs),
(321,206,ls),
(312,203,o),
(316,192,o),
(326,192,cs),
(1440,192,ls)
);
}
);
width = 1664;
}
);
unicode = 931;
},
{
glyphname = Omega;
lastChange = "2024-09-30 05:48:55 +0000";
layers = (
{
anchors = (
{
name = bottom;
pos = (836,0);
},
{
name = ogonek;
pos = (1204,20);
},
{
name = top;
pos = (1073,1536);
},
{
name = "topright@ascender";
pos = (1888,1536);
}
);
layerId = m01;
shapes = (
{
closed = 1;
nodes = (
(871,424,ls),
(871,476,o),
(843,504,o),
(791,504,cs),
(671,504,ls),
(320,504,o),
(320,552,o),
(320,748,cs),
(320,788,ls),
(320,1374,o),
(394,1402,o),
(871,1402,cs),
(1274,1402,ls),
(1751,1402,o),
(1825,1374,o),
(1825,788,cs),
(1825,748,ls),
(1825,552,o),
(1795,504,o),
(1444,504,cs),
(1354,504,ls),
(1302,504,o),
(1274,476,o),
(1274,424,cs),
(1274,338,l),
(1444,338,ls),
(1977,338,o),
(2017,459,o),
(2017,748,cs),
(2017,788,ls),
(2017,1467,o),
(1874,1568,o),
(1274,1568,cs),
(871,1568,ls),
(271,1568,o),
(128,1467,o),
(128,788,cs),
(128,748,ls),
(128,459,o),
(138,338,o),
(671,338,cs),
(871,338,l)
);
},
{
closed = 1;
nodes = (
(1272,80,ls),
(1272,28,o),
(1300,0,o),
(1352,0,cs),
(1937,0,ls),
(1989,0,o),
(2017,28,o),
(2017,80,cs),
(2017,132,o),
(1989,160,o),
(1937,160,cs),
(1464,160,l),
(1464,506,l),
(1352,506,ls),
(1300,506,o),
(1272,478,o),
(1272,426,cs)
);
},
{
closed = 1;
nodes = (
(871,477,o),
(843,505,o),
(791,505,cs),
(679,505,l),
(681,160,l),
(208,160,ls),
(156,160,o),
(128,132,o),
(128,80,cs),
(128,28,o),
(156,0,o),
(208,0,cs),
(793,0,ls),
(845,0,o),
(873,28,o),
(873,80,cs),
(871,425,ls)
);
}
);
width = 2145;
}
);
unicode = 937;
},
{
glyphname = mu;
layers = (
{
background = {
shapes = (
{
closed = 1;
nodes = (
(321,-384,l),
(129,-384,l),
(129,-104,l),
(128,294,l),
(128,580,l),
(129,886,l),
(129,1088,l),
(321,1088,l),
(321,512,ls),
(321,377,o),
(333,277,o),
(401,213,cs),
(461,156,o),
(584,128,o),
(769,128,cs),
(1050,128,o),
(1214,191,o),
(1260,317,cs),
(1274,356,o),
(1281,400,o),
(1281,448,cs),
(1281,1088,l),
(1473,1088,l),
(1473,0,l),
(1281,0,l),
(1281,191,l),
(1241,111,o),
(1171,60,o),
(1076,24,cs),
(977,-13,o),
(848,-32,o),
(690,-32,cs),
(532,-32,o),
(409,-10,o),
(321,33,c)
);
}
);
};
layerId = m01;
shapes = (
{
closed = 1;
nodes = (
(287,-384,o),
(321,-350,o),
(321,-288,cs),
(321,33,l),
(409,-10,o),
(532,-32,o),
(690,-32,cs),
(848,-32,o),
(977,-13,o),
(1076,24,cs),
(1171,60,o),
(1241,111,o),
(1281,191,c),
(1281,96,ls),
(1281,34,o),
(1315,0,o),
(1377,0,cs),
(1439,0,o),
(1473,34,o),
(1473,96,cs),
(1473,992,ls),
(1473,1054,o),
(1439,1088,o),
(1377,1088,cs),
(1315,1088,o),
(1281,1054,o),
(1281,992,cs),
(1281,448,ls),
(1281,400,o),
(1274,356,o),
(1260,317,cs),
(1214,191,o),
(1050,128,o),
(769,128,cs),
(584,128,o),
(461,156,o),
(401,213,cs),
(333,277,o),
(321,377,o),
(321,512,cs),
(321,992,ls),
(321,1054,o),
(287,1088,o),
(225,1088,cs),
(163,1088,o),
(129,1054,o),
(129,992,cs),
(129,-288,ls),
(129,-350,o),
(163,-384,o),
(225,-384,cs)
);
}
);
width = 1601;
}
);
unicode = 956;
},
{
glyphname = pi;
layers = (
{
layerId = m01;
shapes = (
{
closed = 1;
nodes = (
(512,38,o),
(474,5,o),
(417,1,c),
(415,-1,l),
(358,-5,o),
(320,38,o),
(320,95,cs),
(320,982,ls),
(320,996,o),
(310,1006,o),
(296,1006,cs),
(200,1006,ls),
(157,1006,o),
(128,1035,o),
(128,1078,cs),
(128,1080,ls),
(128,1123,o),
(157,1152,o),
(200,1152,cs),
(984,1152,ls),
(1027,1152,o),
(1056,1123,o),
(1056,1080,cs),
(1056,1078,ls),
(1056,1035,o),
(1027,1006,o),
(984,1006,cs),
(536,1006,ls),
(522,1006,o),
(512,996,o),
(512,982,cs),
(512,95,ls)
);
},
{
closed = 1;
nodes = (
(512,38,o),
(474,5,o),
(417,1,c),
(415,-1,l),
(358,-5,o),
(320,38,o),
(320,95,cs),
(320,982,ls),
(320,996,o),
(310,1006,o),
(296,1006,cs),
(200,1006,ls),
(157,1006,o),
(128,1035,o),
(128,1078,cs),
(128,1080,ls),
(128,1123,o),
(157,1152,o),
(200,1152,cs),
(984,1152,ls),
(1027,1152,o),
(1056,1123,o),
(1056,1080,cs),
(1056,1078,ls),
(1056,1035,o),
(1027,1006,o),
(984,1006,cs),
(536,1006,ls),
(522,1006,o),
(512,996,o),
(512,982,cs),
(512,95,ls)
);
},
{
closed = 1;
nodes = (
(1276,982,ls),
(1276,996,o),
(1266,1006,o),
(1252,1006,cs),
(804,1006,ls),
(761,1006,o),
(732,1035,o),
(732,1078,cs),
(732,1080,ls),
(732,1123,o),
(761,1152,o),
(804,1152,cs),
(1588,1152,ls),
(1631,1152,o),
(1660,1123,o),
(1660,1080,cs),
(1660,1078,ls),
(1660,1035,o),
(1631,1006,o),
(1588,1006,cs),
(1492,1006,ls),
(1478,1006,o),
(1468,996,o),
(1468,982,cs),
(1468,95,ls),
(1468,38,o),
(1430,-5,o),
(1373,-1,c),
(1371,1,l),
(1314,5,o),
(1276,38,o),
(1276,95,cs)
);
}
);
width = 1788;
}
);
unicode = 960;
},
{
glyphname = onesuperior;
lastChange = "2024-09-30 05:55:33 +0000";
layers = (
{
layerId = m01;
shapes = (
{
closed = 1;
nodes = (
(576,448,l),
(768,448,l),
(768,1536,l),
(512,1536,l),
(64,1120,l),
(160,992,l),
(576,1376,l)
);
}
);
width = 938;
}
);
note = uni00B9;
unicode = 185;
},
{
glyphname = twosuperior;
lastChange = "2024-09-30 05:55:33 +0000";
layers = (
{
layerId = m01;
shapes = (
{
closed = 1;
nodes = (
(128,449,l),
(1186,449,l),
(1186,609,l),
(320,609,l),
(320,734,o),
(332,756,o),
(416,783,cs),
(446,793,o),
(520,810,o),
(640,834,cs),
(898,885,ls),
(1105,926,o),
(1216,1010,o),
(1216,1221,cs),
(1216,1387,o),
(1186,1474,o),
(1082,1523,cs),
(989,1567,o),
(838,1569,o),
(697,1569,cs),
(652,1569,o),
(608,1570,o),
(565,1570,cs),
(281,1570,o),
(128,1531,o),
(128,1249,c),
(320,1249,l),
(320,1362,o),
(332,1383,o),
(420,1397,cs),
(467,1405,o),
(537,1409,o),
(632,1409,cs),
(727,1409,o),
(797,1407,o),
(842,1405,cs),
(964,1399,o),
(1024,1370,o),
(1024,1243,cs),
(1024,1091,o),
(971,1062,o),
(834,1036,cs),
(448,963,ls),
(252,926,o),
(128,882,o),
(128,673,cs)
);
}
);
width = 1344;
}
);
note = uni00B2;
unicode = 178;
},
{
glyphname = threesuperior;
lastChange = "2024-09-30 05:55:33 +0000";
layers = (
{
layerId = m01;
shapes = (
{
closed = 1;
nodes = (
(603,447,o),
(633,448,o),
(723,448,cs),
(1015,448,o),
(1275,448,o),
(1275,738,cs),
(1275,914,o),
(1246,955,o),
(1115,1008,c),
(1223,1042,o),
(1275,1102,o),
(1275,1236,cs),
(1275,1394,o),
(1244,1487,o),
(1136,1531,cs),
(1042,1570,o),
(871,1568,o),
(771,1568,cs),
(634,1568,o),
(600,1569,o),
(516,1569,cs),
(375,1569,o),
(246,1557,o),
(174,1488,cs),
(125,1441,o),
(100,1362,o),
(100,1250,c),
(292,1250,l),
(292,1376,o),
(325,1393,o),
(427,1402,cs),
(475,1406,o),
(558,1408,o),
(637,1408,cs),
(766,1408,o),
(841,1409,o),
(903,1409,cs),
(1027,1409,o),
(1082,1381,o),
(1082,1258,cs),
(1082,1123,o),
(1032,1088,o),
(891,1088,cs),
(500,1088,l),
(500,928,l),
(891,928,ls),
(1021,928,o),
(1082,898,o),
(1082,778,cs),
(1082,689,o),
(1068,647,o),
(1006,626,cs),
(945,604,o),
(788,608,o),
(603,608,cs),
(565,608,o),
(497,609,o),
(427,614,cs),
(330,621,o),
(292,627,o),
(292,735,c),
(100,735,l),
(100,635,o),
(125,564,o),
(174,522,cs),
(231,473,o),
(352,447,o),
(537,447,cs)
);
}
);
width = 1403;
}
);
note = uni00B3;
unicode = 179;
},
{
glyphname = foursuperior;
lastChange = "2024-09-30 05:55:33 +0000";
layers = (
{
layerId = m01;
shapes = (
{
closed = 1;
nodes = (
(912,447,l),
(1104,447,l),
(1104,689,l),
(1346,689,l),
(1346,849,l),
(1104,849,l),
(1104,1568,l),
(848,1568,l),
(80,881,l),
(80,689,l),
(912,689,l)
);
},
{
closed = 1;
nodes = (
(272,849,l),
(912,1420,l),
(912,849,l)
);
}
);
width = 1424;
}
);
note = uni2074;
unicode = 8308;
},
{
glyphname = guillemetleft;
lastChange = "2024-09-30 05:55:33 +0000";
layers = (
{
layerId = m01;
shapes = (
{
closed = 1;
nodes = (
(1056,174,ls),
(1098,145,o),
(1136,149,o),
(1167,191,cs),
(1168,192,ls),
(1199,234,o),
(1192,272,o),
(1149,302,cs),
(704,608,l),
(1149,914,ls),
(1192,944,o),
(1198,983,o),
(1167,1025,cs),
(1167,1025,ls),
(1136,1067,o),
(1098,1071,o),
(1056,1042,cs),
(626,739,ls),
(591,714,o),
(576,686,o),
(576,643,cs),
(576,573,ls),
(576,530,o),
(591,502,o),
(626,477,cs)
);
},
{
closed = 1;
nodes = (
(608,174,ls),
(650,145,o),
(688,149,o),
(719,191,cs),
(720,192,ls),
(751,234,o),
(744,272,o),
(701,302,cs),
(256,608,l),
(701,914,ls),
(744,944,o),
(750,983,o),
(719,1025,cs),
(719,1025,ls),
(688,1067,o),
(650,1071,o),
(608,1042,cs),
(178,739,ls),
(143,714,o),
(128,686,o),
(128,643,cs),
(128,573,ls),
(128,530,o),
(143,502,o),
(178,477,cs)
);
}
);
width = 1315;
}
);
note = guillemotleft;
unicode = 171;
},
{
glyphname = guillemetright;
lastChange = "2024-09-30 05:55:33 +0000";
layers = (
{
layerId = m01;
shapes = (
{
closed = 1;
nodes = (
(596,191,ls),
(627,149,o),
(665,145,o),
(707,174,cs),
(1137,477,ls),
(1172,502,o),
(1187,530,o),
(1187,573,cs),
(1187,643,ls),
(1187,686,o),
(1172,714,o),
(1137,739,cs),
(707,1043,ls),
(665,1072,o),
(627,1067,o),
(596,1025,cs),
(595,1024,ls),
(564,982,o),
(571,944,o),
(614,914,cs),
(1059,608,l),
(614,302,ls),
(571,272,o),
(564,234,o),
(595,192,cs)
);
},
{
closed = 1;
nodes = (
(148,191,ls),
(179,149,o),
(217,145,o),
(259,174,cs),
(689,477,ls),
(724,502,o),
(739,530,o),
(739,573,cs),
(739,643,ls),
(739,686,o),
(724,714,o),
(689,739,cs),
(259,1043,ls),
(217,1072,o),
(179,1067,o),
(148,1025,cs),
(147,1024,ls),
(116,982,o),
(123,944,o),
(166,914,cs),
(611,608,l),
(166,302,ls),
(123,272,o),
(116,234,o),
(147,192,cs)
);
}
);
width = 1315;
}
);
note = guillemotright;
unicode = 187;
},
{
glyphname = euro;
lastChange = "2024-09-30 05:55:33 +0000";
layers = (
{
layerId = m01;
shapes = (
{
closed = 1;
nodes = (
(1409,0,o),
(1609,84,o),
(1643,342,cs),
(1650,395,o),
(1616,406,o),
(1563,406,cs),
(1538,406,ls),
(1488,406,o),
(1466,379,o),
(1456,330,cs),
(1429,203,o),
(1269,160,o),
(1034,160,cs),
(450,160,o),
(437,196,o),
(437,782,cs),
(437,1368,o),
(450,1376,o),
(1034,1376,cs),
(1269,1376,o),
(1427,1353,o),
(1454,1226,cs),
(1465,1177,o),
(1487,1151,o),
(1537,1151,cs),
(1563,1151,ls),
(1616,1151,o),
(1647,1181,o),
(1640,1234,cs),
(1605,1494,o),
(1352,1536,o),
(1034,1536,cs),
(420,1536,o),
(245,1521,o),
(245,782,cs),
(245,43,o),
(420,0,o),
(1034,0,cs)
);
},
{
closed = 1;
nodes = (
);
},
{
closed = 1;
nodes = (
);
},
{
closed = 1;
nodes = (
(104,872,o),
(132,844,o),
(184,844,cs),
(1202,844,ls),
(1254,844,o),
(1282,872,o),
(1282,924,cs),
(1282,976,o),
(1254,1004,o),
(1202,1004,cs),
(184,1004,ls),
(132,1004,o),
(104,976,o),
(104,924,cs)
);
},
{
closed = 1;
nodes = (
(104,560,o),
(132,532,o),
(184,532,cs),
(1202,532,ls),
(1254,532,o),
(1282,560,o),
(1282,612,cs),
(1282,664,o),
(1254,692,o),
(1202,692,cs),
(184,692,ls),
(132,692,o),
(104,664,o),
(104,612,cs)
);
}
);
width = 1771;
}
);
note = Euro;
unicode = 8364;
},
{
glyphname = dieresiscomb;
lastChange = "2024-09-29 23:45:20 +0000";
layers = (
{
anchors = (
{
name = _top;
pos = (544,1152);
}
);
layerId = m01;
shapes = (
{
closed = 1;
nodes = (
(802,1424,ls),
(802,1372,o),
(830,1344,o),
(882,1344,cs),
(914,1344,ls),
(966,1344,o),
(994,1372,o),
(994,1424,cs),
(994,1456,ls),
(994,1508,o),
(966,1536,o),
(914,1536,cs),
(882,1536,ls),
(830,1536,o),
(802,1508,o),
(802,1456,cs)
);
},
{
closed = 1;
nodes = (
(94,1424,ls),
(94,1372,o),
(122,1344,o),
(174,1344,cs),
(206,1344,ls),
(258,1344,o),
(286,1372,o),
(286,1424,cs),
(286,1456,ls),
(286,1508,o),
(258,1536,o),
(206,1536,cs),
(174,1536,ls),
(122,1536,o),
(94,1508,o),
(94,1456,cs)
);
}
);
width = 1088;
}
);
note = uni0308;
unicode = 776;
},
{
glyphname = dotaccentcomb;
lastChange = "2024-09-29 23:49:12 +0000";
layers = (
{
anchors = (
{
name = _top;
pos = (224,1152);
}
);
layerId = m01;
shapes = (
{
closed = 1;
nodes = (
(128,1424,ls),
(128,1372,o),
(156,1344,o),
(208,1344,cs),
(240,1344,ls),
(292,1344,o),
(320,1372,o),
(320,1424,cs),
(320,1456,ls),
(320,1508,o),
(292,1536,o),
(240,1536,cs),
(208,1536,ls),
(156,1536,o),
(128,1508,o),
(128,1456,cs)
);
}
);
width = 448;
}
);
note = uni0307;
unicode = 775;
},
{
glyphname = hungarumlautcomb;
lastChange = "2024-09-29 23:49:17 +0000";
layers = (
{
anchors = (
{
name = _top;
pos = (450,1128);
}
);
layerId = m01;
shapes = (
{
closed = 1;
nodes = (
(692,1328,ls),
(713,1296,o),
(747,1293,o),
(791,1320,cs),
(1294,1622,ls),
(1339,1649,o),
(1348,1688,o),
(1319,1732,cs),
(1283,1786,ls),
(1253,1831,o),
(1212,1836,o),
(1171,1802,cs),
(718,1425,ls),
(680,1393,o),
(671,1359,o),
(692,1328,cs)
);
},
{
closed = 1;
nodes = (
(139,1328,ls),
(160,1296,o),
(194,1293,o),
(238,1320,cs),
(741,1622,ls),
(786,1649,o),
(795,1688,o),
(766,1732,cs),
(730,1786,ls),
(700,1831,o),
(659,1836,o),
(618,1802,cs),
(165,1425,ls),
(127,1393,o),
(118,1359,o),
(139,1328,cs)
);
}
);
width = 1464;
}
);
note = uni030B;
unicode = 779;
},
{
glyphname = caroncomb.alt;
lastChange = "2024-09-30 06:01:04 +0000";
layers = (
{
anchors = (
{
name = _topright;
pos = (96,1638);
}
);
layerId = m01;
shapes = (
{
closed = 1;
nodes = (
(176,1543,o),
(205,1568,o),
(254,1568,cs),
(276,1568,ls),
(334,1568,o),
(360,1532,o),
(342,1477,cs),
(266,1249,ls),
(251,1204,o),
(223,1184,o),
(180,1184,cs),
(140,1184,o),
(121,1215,o),
(130,1270,cs),
(168,1495,ls)
);
}
);
width = 476;
}
);
note = uni030C.alt;
},
{
glyphname = circumflexcomb;
lastChange = "2024-09-29 23:49:32 +0000";
layers = (
{
anchors = (
{
name = _top;
pos = (518,1152);
}
);
layerId = m01;
shapes = (
{
closed = 1;
nodes = (
(164,1359,ls),
(207,1327,o),
(246,1336,o),
(275,1380,cs),
(518,1758,l),
(761,1380,ls),
(790,1336,o),
(829,1327,o),
(872,1359,cs),
(872,1359,ls),
(913,1389,o),
(919,1429,o),
(891,1471,cs),
(648,1834,ls),
(624,1870,o),
(595,1886,o),
(552,1886,cs),
(484,1886,ls),
(441,1886,o),
(412,1870,o),
(388,1834,cs),
(145,1471,ls),
(117,1429,o),
(124,1389,o),
(164,1359,cs)
);
}
);
width = 1036;
}
);
note = uni0302;
unicode = 770;
},
{
glyphname = caroncomb;
lastChange = "2024-09-29 23:49:36 +0000";
layers = (
{
anchors = (
{
name = _top;
pos = (518,1152);
}
);
layerId = m01;
shapes = (
{
closed = 1;
nodes = (
(388,1368,ls),
(412,1332,o),
(441,1316,o),
(484,1316,cs),
(552,1316,ls),
(595,1316,o),
(624,1332,o),
(648,1368,cs),
(891,1731,ls),
(919,1773,o),
(912,1813,o),
(872,1843,cs),
(870,1844,ls),
(829,1875,o),
(790,1867,o),
(761,1822,cs),
(518,1444,l),
(275,1822,ls),
(246,1866,o),
(207,1875,o),
(164,1843,cs),
(164,1843,ls),
(124,1813,o),
(117,1773,o),
(145,1731,cs)
);
}
);
width = 1036;
}
);
note = uni030C;
unicode = 780;
},
{
glyphname = brevecomb;
lastChange = "2024-09-29 23:49:54 +0000";
layers = (
{
anchors = (
{
name = _top;
pos = (637,1152);
}
);
layerId = m01;
shapes = (
{
closed = 1;
nodes = (
(851,1307,o),
(986,1372,o),
(1015,1597,cs),
(1023,1661,o),
(991,1697,o),
(939,1697,cs),
(939,1697,ls),
(888,1697,o),
(863,1669,o),
(858,1616,cs),
(850,1537,o),
(830,1489,o),
(797,1469,cs),
(770,1453,o),
(717,1445,o),
(637,1445,cs),
(557,1445,o),
(505,1452,o),
(482,1466,cs),
(447,1488,o),
(425,1536,o),
(417,1616,cs),
(411,1669,o),
(386,1697,o),
(335,1697,cs),
(333,1697,ls),
(282,1697,o),
(251,1667,o),
(257,1613,cs),
(282,1375,o),
(418,1307,o),
(637,1307,cs)
);
}
);
width = 1272;
}
);
note = uni0306;
unicode = 774;
},
{
glyphname = ringcomb;
lastChange = "2024-09-29 23:45:10 +0000";
layers = (
{
anchors = (
{
name = _top;
pos = (640,1152);
}
);
layerId = m01;
shapes = (
{
closed = 1;
nodes = (
(849,1340,o),
(992,1455,o),
(992,1660,cs),
(992,1857,o),
(861,1980,o),
(640,1980,cs),
(431,1980,o),
(288,1865,o),
(288,1660,cs),
(288,1463,o),
(419,1340,o),
(640,1340,cs)
);
},
{
closed = 1;
nodes = (
(506,1468,o),
(448,1532,o),
(448,1660,cs),
(448,1717,o),
(457,1758,o),
(476,1782,cs),
(512,1828,o),
(567,1852,o),
(640,1852,cs),
(774,1852,o),
(832,1788,o),
(832,1660,cs),
(832,1603,o),
(823,1562,o),
(804,1538,cs),
(768,1492,o),
(713,1468,o),
(640,1468,cs)
);
}
);
width = 1280;
}
);
note = uni030A;
unicode = 778;
},
{
glyphname = macroncomb;
lastChange = "2024-09-29 23:49:59 +0000";
layers = (
{
anchors = (
{
name = _top;
pos = (512,1152);
}
);
layerId = m01;
shapes = (
{
closed = 1;
nodes = (
(128,1385,ls),
(128,1333,o),
(156,1305,o),
(208,1305,cs),
(816,1305,ls),
(868,1305,o),
(896,1333,o),
(896,1385,cs),
(896,1385,ls),
(896,1437,o),
(868,1465,o),
(816,1465,cs),
(208,1465,ls),
(156,1465,o),
(128,1437,o),
(128,1385,cs)
);
}
);
width = 1024;
}
);
note = uni0304;
unicode = 772;
},
{
glyphname = breveinvertedcomb;
lastChange = "2024-09-29 23:50:03 +0000";
layers = (
{
anchors = (
{
name = _top;
pos = (635,1152);
}
);
layerId = m01;
shapes = (
{
closed = 1;
nodes = (
(421,1697,o),
(286,1632,o),
(257,1407,cs),
(249,1343,o),
(281,1307,o),
(333,1307,cs),
(333,1307,ls),
(384,1307,o),
(409,1335,o),
(415,1388,cs),
(423,1468,o),
(445,1516,o),
(480,1538,cs),
(503,1552,o),
(555,1559,o),
(635,1559,cs),
(715,1559,o),
(768,1551,o),
(795,1535,cs),
(828,1515,o),
(848,1467,o),
(856,1388,cs),
(861,1335,o),
(886,1307,o),
(937,1307,cs),
(939,1307,ls),
(990,1307,o),
(1021,1337,o),
(1015,1391,cs),
(990,1629,o),
(854,1697,o),
(635,1697,cs)
);
}
);
width = 1272;
}
);
note = uni0311;
unicode = 785;
},
{
glyphname = commaturnedabovecomb;
lastChange = "2024-09-29 23:50:11 +0000";
layers = (
{
anchors = (
{
name = _top;
pos = (197,1152);
}
);
layerId = m01;
shapes = (
{
closed = 1;
nodes = (
(134,1335,ls),
(116,1279,o),
(142,1244,o),
(200,1244,cs),
(222,1244,ls),
(271,1244,o),
(300,1268,o),
(308,1317,cs),
(346,1542,ls),
(355,1597,o),
(336,1628,o),
(296,1628,cs),
(296,1628,ls),
(253,1628,o),
(225,1608,o),
(210,1563,cs)
);
}
);
width = 476;
}
);
note = uni0312;
unicode = 786;
},
{
glyphname = dotbelowcomb;
lastChange = "2024-09-30 05:28:02 +0000";
layers = (
{
layerId = m01;
shapes = (
{
closed = 1;
nodes = (
(0,-256,ls),
(0,-308,o),
(28,-336,o),
(80,-336,cs),
(112,-336,ls),
(164,-336,o),
(192,-308,o),
(192,-256,cs),
(192,-224,ls),
(192,-172,o),
(164,-144,o),
(112,-144,cs),
(80,-144,ls),
(28,-144,o),
(0,-172,o),
(0,-224,cs)
);
}
);
width = 192;
}
);
unicode = 803;
},
{
glyphname = commaaccentcomb;
lastChange = "2024-09-29 23:50:20 +0000";
layers = (
{
anchors = (
{
name = _bottom;
pos = (276,0);
}
);
layerId = m01;
shapes = (
{
closed = 1;
nodes = (
(342,-243,ls),
(360,-187,o),
(334,-152,o),
(276,-152,cs),
(254,-152,ls),
(205,-152,o),
(176,-176,o),
(168,-225,cs),
(130,-450,ls),
(121,-505,o),
(140,-536,o),
(180,-536,cs),
(180,-536,ls),
(223,-536,o),
(251,-516,o),
(266,-471,cs)
);
}
);
width = 476;
}
);
note = uni0326;
unicode = 806;
},
{
glyphname = cedillacomb;
lastChange = "2024-09-29 23:50:23 +0000";
layers = (
{
anchors = (
{
name = _bottom;
pos = (207,0);
}
);
layerId = m01;
shapes = (
{
closed = 1;
nodes = (
(128,-463,ls),
(128,-515,o),
(157,-545,o),
(211,-541,cs),
(393,-529,o),
(512,-471,o),
(512,-318,cs),
(512,-181,o),
(427,-128,o),
(256,-128,c),
(256,-16,ls),
(256,36,o),
(233,64,o),
(192,64,cs),
(192,64,ls),
(151,64,o),
(128,36,o),
(128,-16,cs),
(128,-146,ls),
(128,-197,o),
(156,-222,o),
(209,-227,cs),
(278,-234,o),
(320,-254,o),
(320,-300,cs),
(320,-354,o),
(269,-374,o),
(207,-381,cs),
(156,-386,o),
(128,-411,o),
(128,-462,cs)
);
}
);
width = 640;
}
);
note = uni0327;
unicode = 807;
},
{
glyphname = ogonekcomb;
lastChange = "2024-09-29 23:50:26 +0000";
layers = (
{
anchors = (
{
name = _ogonek;
pos = (512,64);
}
);
layerId = m01;
shapes = (
{
closed = 1;
nodes = (
(512,-429,ls),
(512,-379,o),
(485,-355,o),
(434,-347,cs),
(364,-336,o),
(320,-303,o),
(320,-224,cs),
(320,-151,o),
(350,-83,o),
(409,-21,cs),
(458,31,o),
(476,64,o),
(437,64,cs),
(437,64,ls),
(399,64,o),
(371,58,o),
(338,37,cs),
(262,-11,o),
(206,-65,o),
(168,-125,cs),
(142,-167,o),
(128,-204,o),
(128,-274,cs),
(128,-310,o),
(139,-344,o),
(161,-377,cs),
(212,-452,o),
(301,-495,o),
(429,-508,cs),
(482,-513,o),
(512,-483,o),
(512,-432,cs)
);
}
);
width = 640;
}
);
note = uni0328;
unicode = 808;
},
